<svg width="681" height="721" viewBox="0 0 681 721" fill="none" xmlns="http://www.w3.org/2000/svg">
<path d="M408.836 20.6797C413.91 20.7665 418.704 21.6709 423.351 23.7474C431.663 27.4589 438.146 34.338 441.364 42.8556C444.664 51.6097 444.329 61.322 440.422 69.8252C435.803 79.7628 426.728 86.9062 415.984 89.061C413.124 89.6377 408.295 89.6922 406.396 90.4036C404.29 92.9502 408.727 95.7187 407.758 99.894C405.921 109.821 403.45 122.076 403.427 132.196C403.399 143.484 404.399 153.728 400.52 164.786C399.932 166.465 397.706 168.439 396.383 169.676C394.842 176.112 393.924 184.276 391.822 190.326C389.161 198.003 386.553 203.094 386.089 211.602C385.947 214.22 384.137 218.624 383.932 221.58C383.538 227.258 383.822 232.948 382.425 238.502C380.23 248.889 373.238 258.262 373.708 268.827C374.221 276.057 376.576 290.273 380.225 296.477C387.929 309.577 388.538 312.401 389.659 327.208C391.266 348.499 389.826 365.062 384.871 385.703L390.044 397.775C399.632 403.063 411.637 408.986 403.567 421.891C431.721 434.235 448.248 443.844 469.573 466.216C481.352 468.532 485.217 472.155 495.179 478.619C515.581 492.127 535.272 506.685 554.173 522.228C565.419 531.455 572.326 538.573 584.779 546.702C584.09 548.66 583.187 550.82 582.417 552.769C586.394 555.836 586.141 555.844 590.978 556.404C592.071 556.533 596.515 560.432 598.064 560.276C604.298 559.654 610.408 554.077 615.432 550.61C617.245 549.357 624.113 547.204 625.596 549.415C624.666 552.131 620.467 551.909 617.953 553.719C613.392 557.007 609.875 563.09 606.851 567.814C619.424 566.044 631.523 570.418 643.438 566.141C646.217 564.728 648.723 563.156 651.346 561.343C657.848 556.844 665.145 556.579 670.355 563.082C671.744 564.814 667.643 568.55 666.328 569.826C657.085 578.824 647.952 588.031 637.091 595.122C631.06 599.064 624.752 602.123 618.953 606.466C612.68 611.058 607.361 617.627 600.259 620.946C596.975 622.484 594.593 617.335 593.344 615.105C591.211 611.295 589.484 607.466 588.203 603.29C582.506 598.644 580.343 594.538 575.864 589.16C572.657 585.315 566.598 580.902 563.267 576.722C562.263 575.465 558.527 572.761 557.087 571.663C553.733 571.768 550.756 571.62 547.795 569.857C540.214 565.351 533.101 558.899 525.855 553.614C521.434 549.925 515.009 549.325 510.46 545.951C492.47 532.65 475.437 517.064 454.965 507.639C443.115 502.182 427.452 502.494 415.439 497.851C399.683 491.757 384.291 484.301 368.41 478.374C360.77 475.521 352.829 474.07 345.216 471.147C340.571 469.353 336.297 466.142 331.593 464.773C326.6 465.664 320.778 468.999 316.166 471.361C310.365 474.268 304.629 477.307 298.964 480.475C291.963 484.464 284.327 489.173 277.172 492.714C268.286 497.092 259.351 501.373 250.369 505.549C246.514 507.308 239.529 510.016 236.097 511.982C232.992 513.76 226.705 518.687 223.608 520.936C217.097 525.629 210.437 530.113 203.638 534.378C197.896 537.962 189.955 542.472 183.887 545.333C171.088 551.365 161.174 560.128 149.858 568.425C146.944 570.562 140.721 577.065 137.677 576.948C136.259 576.574 134.543 575.991 133.114 575.547C131.515 576.734 128.908 578.835 127.25 579.664C123.416 581.583 118.689 582.587 115.487 585.638C113.484 587.545 109.824 590.744 108.192 592.806C103.009 599.356 104.389 601.267 96.157 603.893C82.0755 619.802 88.5454 621.106 65.5233 618.736C57.6112 620.063 50.8775 626.982 42.0899 623.709C31.4341 619.736 12.4815 599.936 32.5556 592.946C41.463 589.841 50.2288 590.269 59.4441 586.463C64.157 584.517 67.1612 584.463 72.436 581.665C72.2072 571.819 79.2585 575.461 80.8831 573.928C80.7388 570.511 74.2665 554.809 80.2391 555.462C82.8763 557.953 82.8701 563.868 84.7999 567.631C85.6054 568.379 85.8649 568.32 86.9483 568.542C92.2185 567.266 90.6938 554.602 99.9056 563.183C102.889 560.677 104.492 560.346 103.788 556.358C104.452 553.894 111.402 548.072 113.513 545.745C130.188 527.346 150.158 512.176 171.889 500.233C179.725 495.929 187.694 492.333 195.756 488.507C197.803 487.534 200.188 485.126 201.693 483.417C205.784 478.775 211.638 477.475 217.653 476.805C227.202 462.531 235.952 452.292 249.27 441.1C253.141 437.847 257.161 435.06 261.08 431.924C262.767 430.573 264.61 426.693 266.487 425.463C270.725 422.685 277.713 421.926 280.948 417.338C286.359 409.664 280.018 395.665 286.089 387.349C288.557 383.967 291.886 383.251 295.678 382.613C298.066 379.118 299.991 376.694 302.739 373.542C300.159 367.171 299.095 362.011 297.907 355.356C297.501 354.932 297.098 354.504 296.701 354.072C293.14 350.196 292.374 348.472 292.608 343.253C289.178 339.163 284.907 332.688 282.63 327.932L277.097 327.282C276.846 327.831 276.588 328.376 276.323 328.913C273.715 334.209 271.561 334.886 266.35 336.673C259.096 349.811 257.018 359.053 243.325 369.265C239.666 371.993 234.498 375.382 231.085 377.896C223.973 383.138 216.814 397.288 215.619 405.99C215.047 408.667 216.011 412.96 215.485 415.376C214.03 422.07 219.034 421.611 223.46 423.627C224.873 424.374 224.777 426.911 223.841 427.795C217.186 434.068 209.287 423.487 204.026 422.961C200.791 422.638 194.066 438.625 188.179 433.889C187.563 431.421 190.218 427.475 191.476 424.942C184.833 426.685 174.023 431.706 167.73 429.779L167.541 428.845C170.182 424.72 178.96 423.109 179.357 420.272C178.133 419.556 171.509 421.381 169.512 421.654C167.498 421.918 165.465 422.016 163.434 421.945C160.285 421.821 152.64 421.529 150.678 419.408C150.258 417.949 150.213 418.626 150.621 417.314C151.869 416.478 155.032 416.591 156.6 416.458C165.568 415.707 177.303 413.182 184.51 407.282C189.165 403.476 196.321 394.786 200.744 390.178C203.334 386.691 205.136 382.002 206.85 378.072C214.241 361.1 224.97 345.993 237.031 332.084C238.474 330.419 240.215 322.955 241.838 320.273C244.059 316.604 246.811 313.864 249.336 310.419C254.623 300.474 260.092 290.212 266.251 280.772C271.594 272.581 282.855 274.476 288.403 264.83C289.996 262.061 290.616 259.37 292.122 256.33C283.555 250.083 276.985 242.397 277.491 231.911C278.692 207.036 308.678 190.275 327.026 210.853C328.367 212.356 330.82 213.748 332.582 215.724C335.425 216.517 337.657 217.137 340.429 218.216C340.646 219.84 340.674 222.135 340.746 223.822C343.33 226.856 343.725 227.648 344.768 231.414C348.38 223.943 354.297 220.476 356.222 216.73C360.653 208.104 362.933 193.742 366.689 184.291C367.144 182.15 366.32 177.475 366.868 175.596C369.423 166.832 373.199 163.196 373.906 153.465C374.253 148.68 378.109 139.099 379.705 134.35C379.908 133.747 381.521 132.487 382.119 132.029C384.578 124.827 388.102 109.429 388.738 101.875C389.382 94.2422 381.856 82.3273 379.009 75.3645C376.943 70.3128 375.064 62.8985 374.64 57.337C374.028 48.1334 377.152 39.0718 383.305 32.2C390.316 24.2292 398.578 21.3915 408.836 20.6797Z" fill="white"/>
</svg>
