<svg width="442" height="182" viewBox="0 0 442 182" fill="none" xmlns="http://www.w3.org/2000/svg">
<path d="M213.277 0.354125C235.449 -2.19863 262.499 10.8641 279.421 24.2216C289.599 32.2541 299.996 42.5869 312.646 46.3174C320.899 48.7514 344.224 38.9989 350.436 44.6301C350.566 47.4636 348.541 55.5326 348.009 58.6846C346.739 66.2191 345.349 73.6426 343.694 81.1039C329.879 80.6016 325.161 87.2521 311.424 85.4144C303.091 84.3814 295.049 81.7066 287.756 77.5451C283.774 75.2226 277.801 70.1389 273.959 67.1726C258.601 55.3199 243.36 43.9281 223.564 41.5319C218.685 41.1739 213.433 41.1694 208.589 42.2486C192.106 45.9214 175.659 58.0461 162.54 68.4039C155.055 74.3134 150.821 79.6794 140.899 82.8181C132.604 85.4421 122.205 86.7431 113.554 85.5439C105.028 84.3624 101.919 82.7644 93.0265 83.9186C92.7195 80.8736 91.8338 77.1256 91.206 74.0829L87.848 58.1001C87.4428 56.1966 85.235 47.1051 86.5753 46.1156C93.0933 41.3031 106.031 46.8721 113.652 47.0999C118.063 47.2316 121.582 48.4206 125.925 47.1599C133.371 44.9184 137.213 40.2914 142.894 36.1724C164.742 20.3299 185.16 2.03762 213.277 0.354125ZM226.028 36.6911C229.397 38.5834 230.546 39.0901 234.339 39.8091C234.199 38.9389 233.982 37.9371 234.128 37.0611C234.413 35.3586 241.343 15.7374 242.004 14.7961C242.572 13.9871 243.313 13.4386 244.315 13.3214C245.965 13.1284 247.772 14.0466 248.993 15.0854C249.985 15.9294 250.869 17.0754 250.964 18.4189C251.079 20.0974 250.789 22.0486 249.596 23.3121C248.379 24.6009 246.481 24.9201 244.783 24.9106C243.378 24.9026 241.061 24.4399 239.818 25.0196C239.754 25.2006 239.629 25.3711 239.627 25.5631C239.617 26.3719 243.415 41.5049 243.956 42.7421C244.965 45.0449 264.134 56.7161 267.136 57.8451C269.356 58.6794 271.831 58.6904 274.149 58.3521C279.866 56.8234 282.711 56.1424 286.059 50.5814C288.139 47.1251 288.701 42.7751 287.544 38.8961C284.636 29.1354 277.214 26.6904 270.516 21.8041C270.344 22.5406 270.146 23.2646 269.786 23.9349C267.771 27.6914 256.456 43.4736 253.306 45.4661C252.671 45.8684 252.076 46.2539 251.291 46.1184C250.886 46.0481 250.661 45.7611 250.466 45.4189C249.772 44.2059 249.479 42.6059 249.097 41.2614C247.964 37.2744 246.739 31.4361 244.712 27.9819C261.864 27.8449 260.229 13.5301 246.192 9.59189C243.799 8.92064 240.493 8.14888 238.255 7.37538C236.211 13.7494 233.598 20.0609 231.203 26.3181C229.8 29.9829 228.973 34.0079 226.028 36.6911ZM118.813 69.7599C119.745 69.8374 120.592 69.8131 121.102 70.5264C123.078 73.2946 122.906 78.9151 122.706 82.2134C122.81 82.2921 122.915 82.3706 123.019 82.4491C125.539 82.6249 127.835 82.4206 130.272 82.5486C126.699 72.6529 124.182 60.4321 120.451 50.6606C118.255 49.8844 116.905 49.7356 114.574 49.7076C114.675 50.7639 114.839 51.8899 114.547 52.9256C113.231 57.5826 103.797 76.3891 100.981 80.6114C103.429 80.5836 105.301 80.6541 107.731 80.8019C107.066 77.7559 107.175 76.0331 108.928 73.2849C109.683 72.1106 110.501 70.9784 111.379 69.8934C114.213 69.5799 115.966 69.4731 118.813 69.7599ZM316.441 80.0736L316.661 79.6294C316.449 79.0849 315.371 76.4614 315.351 76.1171C315.149 72.5391 313.989 59.8779 315.031 57.0386L315.426 56.9321C316.424 57.7424 316.906 58.6924 317.754 59.7066L327.201 70.8676C328.726 72.6849 334.441 80.7796 336.881 78.7371C337.264 76.7609 336.751 74.1339 336.786 72.2189C336.894 66.4074 335.484 52.3586 336.851 47.4621L333.359 47.6454C332.659 47.6394 331.806 47.5231 331.291 47.9181C332.931 53.5851 333.414 63.0896 332.989 69.0491C327.609 63.5481 321.646 55.0691 316.449 49.0021C314.126 48.9969 311.526 49.0486 309.226 48.9396C311.226 55.4116 309.981 65.6481 310.671 72.5624C310.876 74.6171 310.824 78.4024 310.431 80.3719C312.294 80.3009 314.626 80.2754 316.441 80.0736ZM176.14 14.2126C177.231 14.4636 178.071 14.5299 178.902 15.2436C180.821 18.7844 182.659 23.6924 184.204 27.4736C186.882 34.0306 190.142 40.1361 190.312 47.3104L190.255 47.8761C191.334 48.8096 192.626 47.3596 193.262 46.5091C196.596 42.0551 193.84 37.2764 191.951 32.8139L186.502 19.9991C185.725 18.1634 184.211 14.7926 183.681 12.9476C183.954 11.9019 184.251 11.4459 184.008 10.4964L183.564 10.3216C180.518 10.8974 178.452 12.2091 176.14 14.2126ZM304.066 46.5424C302.771 45.4301 300.959 44.0606 299.329 43.5346C299.091 44.3806 298.854 45.2526 298.236 45.8896C295.624 48.5821 292.124 51.2121 289.131 53.5234C284.204 57.3289 279.049 61.5381 273.946 65.0694C274.996 65.7014 278.421 67.8839 279.371 68.0049C282.721 61.7266 285.591 58.5211 292.999 62.2894C294.324 63.1434 295.719 63.8276 295.964 65.5221C296.474 69.0366 294.306 73.6719 292.074 76.2736C294.246 77.3226 297.226 78.6211 299.246 79.7914C299.886 72.0871 301.726 64.0571 302.861 56.4089C303.251 53.7804 304.061 49.1491 304.066 46.5424ZM127.127 49.7071C127.524 49.9699 128.787 50.7941 129.022 51.2546C133.091 59.2289 137.142 68.2486 140.314 76.6201C140.399 76.8451 140.426 77.9469 140.429 78.1311L140.927 78.5356C143.327 77.5036 145.755 76.5356 148.206 75.6331C144.113 72.5046 137.378 54.5416 134.914 49.4874C134.674 48.9964 135.151 47.3434 134.39 46.5741L133.984 46.5321C131.308 47.4081 129.608 48.4476 127.127 49.7071ZM212.12 38.3979C221.165 37.5839 227.893 29.6789 227.251 20.6204C226.609 11.5619 218.834 4.68463 209.765 5.15413C203.743 5.46588 198.359 9.00613 195.686 14.4114C193.014 19.8166 193.469 26.2439 196.877 31.2184C200.285 36.1926 206.115 38.9384 212.12 38.3979ZM155.282 33.0669C147.939 35.1346 145.675 38.6731 139.697 43.2986C145.489 47.3314 151.117 57.6061 156.105 62.9539C157.393 64.3349 158.498 66.5349 159.297 68.2631C160.711 67.5111 164.045 65.7724 164.469 64.1794C161.093 59.2814 155.833 53.6709 152.247 48.7349C150.825 46.7779 148.711 44.6839 147.534 42.5916C147.882 37.9974 160.97 33.6886 159.119 43.5969C158.59 46.4321 155.49 49.6064 155.424 50.7236C156.366 52.0786 171.054 55.9046 173.391 56.5616C175.692 57.2089 178.055 54.3226 179.432 52.6784C171.59 51.2596 169.067 50.7389 161.67 48.0521C165.746 41.7661 164.432 32.5989 155.282 33.0669Z" fill="white"/>
<path d="M274.004 28.6426C275.492 28.8156 277.442 30.6436 278.447 31.7401C287.054 41.1298 281.892 55.4933 268.254 54.4918C263.539 53.1361 262.912 52.0811 258.727 49.5163C262.052 44.6521 265.604 39.9108 268.849 34.9838C270.457 32.5441 271.827 30.6146 274.004 28.6426Z" fill="white"/>
<path d="M208.535 8.83488C220.301 7.83563 224.435 21.2826 219.406 30.1719C217.875 32.8786 215.578 34.0219 212.618 34.6836C199.013 35.4749 193.585 12.8171 208.535 8.83488Z" fill="white"/>
<path d="M297.002 52.9531C297.25 53.0169 297.332 53.1194 297.562 53.2796C297.985 55.1656 297.582 59.2069 295.74 60.3934C294.7 60.4669 294.495 60.1796 293.467 59.7061C292.7 59.4276 291.695 58.9261 290.93 58.5741C292.79 55.5416 293.955 54.7806 297.002 52.9531Z" fill="white"/>
<path d="M116.927 59.3408L117.42 59.4931C118.873 60.7903 119.21 65.2646 119.357 67.0771C118.346 67.1001 117.02 67.0331 115.985 67.0076C115.15 67.1493 115.164 67.1563 114.329 67.0526C112.607 65.2566 115.634 60.8651 116.927 59.3408Z" fill="white"/>
<path d="M266.245 81.8555C266.675 81.857 267.437 81.8812 267.67 82.3097C272.56 91.318 273.64 102.297 272.425 112.365C272.177 114.407 272.002 115.792 271.917 117.56C261.272 110.815 243.025 102.962 230.56 101.757C223.887 100.95 220.18 101.954 214.718 105.342C213.582 103.994 211.65 101.09 210.523 99.5595C212.538 98.8787 215.608 96.976 217.576 95.8755C219.711 94.696 221.888 93.5935 224.102 92.5702C236.66 86.6425 252.35 82.5302 266.245 81.8555Z" fill="white"/>
<path d="M223.535 52.4375C239.275 54.2993 252.425 59.9635 262.113 73.1508C263.085 74.474 264.093 75.9425 265.373 76.972C264.523 77.2195 263.408 77.5273 262.533 77.6028C253.32 78.396 244.519 80.6167 235.691 83.2437C229.001 85.4025 213.708 91.6805 208.322 96.0408C207.512 94.3898 207.092 93.5397 206.055 92.0445C216.649 83.3895 219.657 73.507 222.413 60.4375C222.932 57.9738 222.988 55.213 223.484 52.686L223.535 52.4375Z" fill="white"/>
<path d="M206.664 102.442C207.959 102.333 208.461 103.698 209.107 104.672C209.893 105.855 210.4 106.663 211.456 107.651C204.799 113.574 203.143 121.912 204.648 130.307C206.04 138.067 214.808 154 221.013 158.267C218.671 158.01 216.289 158.06 213.875 157.742C209.135 157.117 204.802 155.932 200.344 154.29C190.11 150.327 181.67 142.755 175.602 133.725C176.701 132.452 177.769 130.875 178.766 129.5C186.553 118.762 195.812 110.041 206.664 102.442Z" fill="white"/>
<path d="M277.354 100.466C281.944 100.562 286.609 100.379 291.224 100.407L350.051 100.504C347.159 104.737 346.069 106.218 341.844 109.206C331.804 116.145 324.759 116.04 313.394 115.793C304.696 115.603 295.624 116.105 286.861 115.81C283.579 115.698 279.571 115.8 276.281 116C277.634 112.001 277.839 104.723 277.354 100.466Z" fill="white"/>
<path d="M91.9219 100.478C95.3544 100.629 99.8499 100.473 103.369 100.457L123.986 100.422C136.37 100.406 150.661 100.785 162.882 100.353C162.346 104.226 162.82 108.024 163.121 111.89C163.21 113.037 163.709 114.937 163.212 115.792C160.137 115.682 156.234 115.895 153.063 115.892L126.474 115.887C122.293 115.872 116.282 116.122 112.307 115.405C106.397 114.339 92.8389 107.232 91.9219 100.478Z" fill="white"/>
<path d="M2.24219 86.2877L68.9051 86.273L84.7886 86.2712C86.5759 86.2707 91.7864 86.1532 93.2311 86.49C92.1316 89.7347 92.7434 88.353 92.9236 91.26C92.0664 91.761 74.4966 91.4285 71.8156 91.449L42.7811 91.4715C45.1424 98.704 44.4116 101.235 51.6584 106.397C48.1214 106.024 44.3171 106.177 40.7144 106.202C27.6016 106.308 11.3607 105.1 4.22007 92.246C3.41137 90.7902 2.99475 88.0862 2.24219 86.2877Z" fill="white"/>
<path d="M214.31 111.945C214.895 112.19 219.534 118.2 220.604 119.333C228.924 128.14 243.768 141.375 255.167 145.465C254.069 145.913 253.154 146.528 252.194 147.215C249.691 149 247.163 150.433 244.429 151.838C240.202 153.948 232.443 156.878 227.583 157.38C226.697 157.478 225.989 156.695 225.447 156.108C216.546 146.465 200.793 123.605 214.31 111.945Z" fill="white"/>
<path d="M225.751 106.335C240.902 104.885 257.786 115.025 270.013 123.02C267.338 129.477 264.961 134.477 260.198 139.78C259.871 140.245 259.173 140.99 258.776 141.44C242.564 134.265 228.555 122.645 217.414 108.991C220.152 107.378 222.653 106.754 225.751 106.335Z" fill="white"/>
<path d="M349.423 86.5146C352.816 86.7379 357.571 86.5726 361.046 86.5629L381.421 86.5579L440.726 86.5269C437.836 93.9292 433.373 96.7099 426.431 100.357C417.361 104.871 411.571 106.413 401.291 106.343C398.251 106.323 393.761 106.238 390.836 106.571C396.336 100.764 396.503 99.2507 399.398 91.5652C387.731 91.1739 375.391 91.7652 363.683 91.5269C360.278 91.4577 352.201 91.7637 349.343 91.2657C349.151 90.2932 349.631 88.6992 349.458 86.8614L349.423 86.5146Z" fill="white"/>
<path d="M47.2656 94.0458C50.8149 94.1748 54.6764 94.1433 58.2456 94.061C72.0926 93.7418 86.0646 94.337 99.8841 94.224L140.495 94.0375C147.386 94.0235 154.297 93.9675 161.187 94.0213C162.057 94.028 162.974 93.8808 163.437 94.3665C163.225 95.8223 163.172 96.6318 163.134 98.1063C157.416 97.7723 149.78 97.996 143.989 98.0265L107.198 97.9915C102.482 97.9995 91.9656 98.2745 87.7814 97.733C87.8286 98.147 87.8814 98.5603 87.9399 98.9731C88.6809 104.146 91.5761 108.051 95.6759 111.108C84.3254 109.594 72.3974 112.9 61.7316 108.017C56.5976 105.666 48.5351 99.9455 47.2656 94.0458Z" fill="white"/>
<path d="M276.961 93.9403C294.286 94.4321 313.396 94.0208 330.876 94.0461L366.413 93.9951C375.426 94.0083 385.013 94.1706 393.993 93.9346C391.258 100.258 388.663 103.609 382.638 107.248C370.326 113.601 357.936 109.145 345.273 111.167C350.713 107.346 352.916 103.813 354.291 97.4686C337.136 97.8481 318.873 97.4926 301.623 97.5338L285.088 97.5528C283.461 97.5513 278.873 97.6518 277.616 97.4101C277.188 96.5941 277.306 95.4096 277.016 94.1746L276.961 93.9403Z" fill="white"/>
<path d="M218.841 46.8579C228.562 46.1639 240.5 50.1116 248.796 54.7876C264.377 63.5694 278.639 75.5614 294.027 84.6796C289.782 84.2644 277.569 84.2529 273.354 84.5374C263.082 64.5984 244.72 50.9344 221.814 50.4081C218.109 50.3876 214.325 50.4074 210.647 50.8631C191.334 53.2559 172.09 65.1354 166.606 84.6674C162.222 84.4176 150.282 84.2126 146.289 84.9314C158.681 75.3224 170.716 66.1661 184.235 58.1141C195.697 51.2871 205.469 47.5566 218.841 46.8579Z" fill="white"/>
<path d="M171.076 86.1797C172.024 86.7814 174.106 88.8852 175.331 89.7402C181.696 94.1804 186.964 95.0439 194.591 95.0377C196.987 95.0357 200.537 94.1017 202.074 94.4357C203.338 95.2987 204.017 96.7627 204.838 98.1174C198.471 101.955 192.013 107.38 186.489 112.412C183.257 115.463 180.27 118.868 177.316 122.165C176.479 123.098 173.065 127.54 172.615 127.87C171.741 127.085 170.897 124.338 170.495 123.128C167.32 113.569 166.3 104.124 168.6 94.2202C169.248 91.4262 169.771 88.8174 171.076 86.1797Z" fill="white"/>
<path d="M275.609 120.293L302.894 120.28C307.097 120.285 313.404 120.495 317.424 120.11C313.787 125.62 312.417 126.708 306.829 130.228C302.769 132.55 299.294 134.165 294.499 134.463C286.052 134.985 277.534 134.38 269.102 134.53C271.102 132.068 272.984 127.258 274.117 124.175C274.644 122.74 274.784 121.623 275.609 120.293Z" fill="white"/>
<path d="M215.17 52.5953C215.894 52.4955 215.944 52.4375 216.655 52.6685L216.91 53.222C216.607 55.8165 216.713 58.7905 216.457 61.5333C215.725 69.409 213.567 77.5098 208.36 83.6643C207.399 84.8 205.264 87.2275 203.796 87.3425C202.993 86.4075 201.941 83.91 201.368 82.6855C197.466 74.8593 195.879 67.8438 193.523 59.7493C200.327 55.6155 207.369 53.6333 215.17 52.5953Z" fill="white"/>
<path d="M253.578 156.893C253.821 156.875 253.868 156.968 254.156 157.113C254.148 157.928 252.533 159.923 251.956 160.6C243.189 170.855 231.345 169.503 219.599 168.938C206.525 168.308 201.787 170.335 190.663 161.238C189.532 160.353 187.687 158.128 186.656 156.968C188.362 156.953 194.782 156.74 196.036 157.223C203.559 160.123 210.11 161.935 218.272 162.098C224.177 162.213 230.41 161.8 236.13 160C239.051 159.08 242.087 157.65 245.13 157.113C247.599 156.833 250.838 157.078 253.578 156.893Z" fill="white"/>
<path d="M125.188 120.287L151.23 120.257C155.499 120.255 159.846 120.117 164.09 120.467C165.399 120.575 165.186 122.272 165.673 123.347C167.145 126.597 168.224 130.16 170.196 133.155C170.571 133.722 170.686 133.81 170.978 134.472C159.47 133.687 149.53 136.435 138.787 131.09C132.81 128.117 128.697 126.262 125.188 120.287Z" fill="white"/>
<path d="M112.289 133.817C119.874 134.06 127.642 133.562 135.207 134.062C137.284 134.2 140.232 135.502 142.269 136.165C145.521 137.227 148.002 137.73 151.414 137.982C151.759 138.95 152.207 140.127 152.505 141.097C153.617 144.702 157.031 146.4 159.005 148.967C147.227 147.872 135.187 150.857 124.118 145.315C120.5 143.502 112.381 138.422 112.289 133.817Z" fill="white"/>
<path d="M307.779 134.062C313.392 133.592 324.612 133.895 330.569 133.92C325.379 143.225 316.227 147.825 305.812 148.897C298.304 149.177 290.457 148.73 283.039 149.215C287.129 146.07 289.487 143.28 290.279 138.175C297.654 138.357 301.127 136.822 307.779 134.062Z" fill="white"/>
<path d="M341.112 115.12C347.494 114.939 354.157 115.38 360.437 115.062C357.422 120.815 355.789 123.507 349.709 126.712C343.719 129.875 338.997 129.847 332.439 129.837C326.652 129.81 318.989 129.532 313.352 130.147C317.537 127.17 319.844 124.475 321.209 119.585C325.007 119.84 329.267 119.2 332.839 117.878C335.869 116.758 337.859 115.335 341.112 115.12Z" fill="white"/>
<path d="M247.518 168.095C254.802 167.77 263.617 168.417 270.662 167.8C265.637 177.672 259.157 181.307 248.039 181.745C242.977 181.77 228.874 181.277 224.711 181.975C227.739 178.692 229.103 176.302 230.201 171.98C234.498 172.267 238.32 171.702 242.316 170.07C243.988 169.387 245.783 168.527 247.518 168.095Z" fill="white"/>
<path d="M85.9984 115.13C90.7006 115.08 96.5146 114.802 101.143 115.388C102.622 115.575 105.643 117.24 107.267 117.903C112.121 119.883 116.39 119.61 121.511 119.538C122.712 124.905 125.042 127.145 129.654 130.023C128.008 129.963 127.162 129.628 125.311 129.685C117.235 129.675 106.455 130.68 99.1676 128.138C92.3961 125.775 85.4069 121.815 82.1406 115.168L85.9984 115.13Z" fill="white"/>
<path d="M172.281 168.06C173.578 167.968 175.164 167.985 176.488 168.003C181.618 168.49 190.32 167.178 195.101 168.218C202.476 169.828 203.137 171.758 211.34 171.388C212.403 174.243 213.678 177.733 215.604 180.178C216.04 180.733 216.15 180.803 216.518 181.455C212.602 181.65 207.621 181.47 203.631 181.51C200.848 181.538 195.248 181.663 192.686 181.358C190.554 181.113 188.464 180.588 186.47 179.795C181.207 177.74 174.609 173.445 172.281 168.06Z" fill="white"/>
<path d="M386.681 110.06C392.046 109.815 397.471 110.09 402.916 109.856C396.714 120.987 387.559 124.505 375.341 124.492C370.626 124.442 362.801 124.157 358.344 124.715C358.656 124.402 358.964 124.087 359.271 123.77C362.141 120.85 362.991 118.42 364.496 114.699C369.881 114.776 374.664 114.613 379.786 112.734C382.119 111.878 384.351 110.846 386.681 110.06Z" fill="white"/>
<path d="M188.588 62.9189C189.069 63.5017 190.711 68.6387 191.137 69.7277C193.069 74.6674 197.151 85.8447 200.225 89.8102C193.983 91.0487 192.446 91.6189 186.06 89.8484C181.636 88.0919 176.135 84.7879 173.578 80.6787C176.579 73.7614 182.712 67.5872 188.588 62.9189Z" fill="white"/>
<path d="M40.3631 109.831C45.2613 110.166 50.8216 109.608 55.6276 110.173C58.0143 110.454 62.3673 112.651 64.9878 113.428C69.4378 114.747 73.6283 114.66 78.2306 114.871C79.3336 117.452 79.4341 118.427 81.1203 120.9C82.1633 122.427 84.2916 123.652 84.4838 124.332L84.0378 124.472C79.2873 124.317 73.3736 124.227 68.7088 124.39C59.1103 124.722 52.0298 122.917 44.6571 116.327C43.3716 115.177 40.4811 111.874 40.0703 110.251L40.3631 109.831Z" fill="white"/>
<path d="M354.301 128.563C360.036 128.368 366.158 128.475 371.923 128.483C367.498 138.655 356.758 142.6 346.388 142.945C340.331 143.02 334.263 142.79 328.203 143.078C331.516 140.06 333.256 137.87 334.281 133.448C342.761 133.698 347.021 131.845 354.301 128.563Z" fill="white"/>
<path d="M70.7188 128.488C76.9005 128.628 83.8618 128.18 90.024 128.645C91.5583 128.76 95.1015 130.368 96.6578 131.008C101.093 132.828 103.71 133.04 108.33 132.998C108.935 135.573 109.152 137.273 110.627 139.62C111.643 141.235 113.038 141.465 113.178 142.773C111.349 142.43 107.201 142.58 105.263 142.63C94.4012 142.91 86.5465 143.278 77.376 136.368C75.5567 134.998 71.023 130.798 70.7188 128.488Z" fill="white"/>
<path d="M277.484 153.097C281.592 152.957 285.984 153.072 290.114 153.022C291.859 153.002 296.449 152.915 297.962 153.19L298.182 153.552C294.387 163.075 283.184 164.832 274.057 165.167C268.472 165.29 257.849 165.455 252.484 165.062C255.817 162.66 257.077 159.877 258.794 156.21C262.419 156.252 266.312 156.502 269.817 155.502C272.367 154.772 274.864 153.547 277.484 153.097Z" fill="white"/>
<path d="M144.242 153.058C151.143 152.958 159.069 152.883 165.944 153.31C167.873 153.428 171.161 155.025 173.172 155.553C176.12 156.323 179.651 156.205 182.729 156.28C183.901 159.45 185.667 161.955 188.536 164.138C188.858 164.383 188.77 164.088 189.432 164.755L189.176 165.18C175.845 164.808 161.73 167.303 150.248 159.74C148.021 158.275 144.856 155.813 144.242 153.058Z" fill="white"/>
<path d="M130.711 164.798C136.852 165.378 144.355 164.385 150.656 165.033C153.898 165.365 156.675 166.658 159.8 167.548C162.643 168.36 164.997 168.513 167.904 168.748C169.386 172.69 170.799 173.818 173.532 176.738C166.184 176.68 157.89 177.265 150.7 176.168C144.606 175.238 134.197 170.545 130.586 165.35L130.711 164.798Z" fill="white"/>
<path d="M325.637 147.363C329.975 147.173 335.502 147.303 339.872 147.325C335.35 157.32 323.797 159.975 313.815 159.978C308.802 159.99 303.67 159.753 298.68 160.015C300.877 157.745 301.552 155.643 302.36 152.65C307 152.675 310.25 152.255 314.725 150.765C319 149.345 321.107 147.47 325.637 147.363Z" fill="white"/>
<path d="M101.984 147.3C105.251 147.465 116.878 146.825 119.005 147.49C127.911 150.272 130.116 152.227 140.158 152.457C141.093 156.02 141.479 157.02 144.219 159.57C143.452 159.89 125.144 159.785 123.23 159.652C121.384 159.537 119.554 159.235 117.768 158.75C112.09 157.182 104.925 152.452 101.984 147.3Z" fill="white"/>
<path d="M309.705 164.873C310.405 164.79 310.355 164.778 311.005 165.038L311.087 165.458C309.472 169.468 305.55 172.018 301.862 173.888C296.48 176.618 290.645 176.3 284.8 176.403C280.87 176.473 276.888 176.495 272.97 176.3C272.158 176.405 271.408 176.62 270.812 176.018C271.96 174.185 273.572 172.015 274.087 169.855C274.36 167.993 279.343 168.55 281.253 168.25C286.278 167.46 290.585 164.808 295.735 164.888C300.377 164.96 305.057 164.958 309.705 164.873Z" fill="white"/>
<path d="M274.234 86.4129C283.237 86.9679 294.082 86.1562 303.212 86.4687C306.904 86.3619 312.477 88.1799 316.032 87.7794C323.969 86.8847 330.379 86.3909 338.394 86.5479C338.089 87.4519 337.689 88.4474 337.349 89.3514C337.534 90.4114 337.709 90.4272 337.397 91.2907C336.522 91.7414 281.652 91.6514 275.654 91.4527C275.417 89.5304 275.099 88.1347 274.234 86.4129Z" fill="white"/>
<path d="M103.742 86.3962C113.726 86.6252 120.185 89.6852 130.838 87.2102C134.25 86.4172 164.169 86.0555 165.455 86.6922C165.285 87.9005 165.008 88.5475 164.605 89.685C164.553 90.2495 164.482 90.5762 164.371 91.1267C163.819 91.5617 163.951 91.6015 163.178 91.603C156.856 91.6137 150.421 91.5475 144.108 91.5342L104.634 91.5495C104.46 89.9197 104.053 88.0312 103.742 86.3962Z" fill="white"/>
<path d="M275.922 138.372C279.325 138.287 282.997 138.387 286.422 138.43C282.165 147.172 273.163 151.99 263.658 152.532C262.193 152.532 253.49 152.672 252.875 152.272C253.118 151.652 259.837 146.707 260.985 145.207C267.157 137.14 266.852 138.467 275.922 138.372Z" fill="white"/>
<path d="M156.644 138.365C161.551 138.745 168.12 138.28 173.413 138.53C174.369 139.38 176.242 141.878 177.269 143.018C180.146 146.213 183.487 149.433 187.122 151.755C187.555 152.033 187.381 151.805 187.546 152.333L186.946 152.448C184.996 152.198 180.934 152.493 178.608 152.435C171.937 152.27 165.167 148.81 160.236 144.478C159.099 143.478 156.132 140.018 156.086 138.658L156.644 138.365Z" fill="white"/>
<path d="M96.7296 85.5073C99.1841 85.2565 100.416 85.58 101.658 87.8253C102.668 89.652 102.751 92.009 100.738 93.0823C95.9726 92.9088 92.4189 89.249 96.7296 85.5073Z" fill="white"/>
<path d="M342.526 85.5422C343.238 85.516 343.951 85.5905 344.641 85.7635C348.533 86.739 348.241 90.7222 344.286 92.3317C343.456 92.526 342.073 92.9502 341.278 92.7002C340.671 92.509 340.163 92.083 339.871 91.5165C338.836 89.5027 340.658 86.543 342.526 85.5422Z" fill="white"/>
<path d="M218.753 171.873C220.566 171.665 223.726 171.903 225.646 171.988C224.777 174.443 223.528 176.023 222.052 178.13C221.672 178.653 221.711 178.628 221.106 178.85C219.497 178.32 217.248 173.785 217.039 172.213C217.535 171.825 218.092 171.9 218.753 171.873Z" fill="white"/>
</svg>
