<svg width="360" height="179" viewBox="0 0 360 179" fill="none" xmlns="http://www.w3.org/2000/svg">
<path d="M210.3 8.0739C213.112 7.51867 220.831 7.72455 223.973 7.72603L250.071 7.74312L262.001 7.72757C263.538 7.72573 267.228 7.62965 268.538 7.89509C268.938 8.28416 268.831 8.0891 268.947 8.62991C268.231 10.5348 267.407 12.5626 266.732 14.4729C265.954 16.6791 264.224 22.8512 262.873 24.5949C261.516 25.3825 247.495 24.6548 244.67 24.9205C243.483 26.0664 240.365 38.1875 239.672 40.7634C242.116 41.0715 245.57 41.0182 248.046 41.0189C251.298 41.0489 254.55 41.0254 257.801 40.9487C257.422 42.3747 256.631 44.0996 256.092 45.4961C254.537 49.5412 252.647 53.3441 251.545 57.5469C250.006 57.7169 248.378 57.6604 246.819 57.6736C242.497 57.7082 238.308 57.5276 233.981 57.744C231.833 57.8514 231.536 62.2239 230.822 63.6378C229.035 67.1718 227.103 74.8607 224.887 77.8693L224.836 77.9362C230.969 78.4683 238.54 77.653 244.775 77.6373C245.491 77.6356 246.896 77.5145 247.386 77.9899C247.495 78.9669 245.758 86.1751 245.559 88.0153C247.207 87.8402 248.801 87.2409 250.408 86.9552C256.347 85.8989 261.978 84.0298 267.723 82.5388L317.158 70.0976C322.802 68.6695 328.467 66.9658 334.119 65.5856C336.093 65.1033 338.059 64.5014 340.07 64.2087L340.344 64.48L340.593 64.2666L340.424 64.1901L340.577 64.3117C339.917 64.7409 336.39 65.9551 335.29 66.4058L318.43 73.2185C314.673 74.6981 310.462 76.7274 306.622 78.3039L282.736 87.9379L112.378 158.849C109.038 160.363 105.139 161.707 101.971 163.23C94.6242 166.761 87.777 168.829 79.9871 171.096C70.2195 173.938 60.1764 176.243 49.9551 174.508C38.7104 172.399 27.9849 169.536 20.9145 159.832C15.6328 152.583 15.6875 144.758 16.5374 136.141C17.1695 129.731 19.92 123.755 22.1275 117.817C24.0919 112.534 26.2306 108.855 29.0207 104.036C36.0989 91.5764 44.6943 80.0424 54.6101 69.6976C57.6092 66.6062 59.8975 63.8458 63.4153 61.2904C62.5188 63.0768 60.3989 65.3602 59.6081 67.1339C56.8323 73.3598 53.4113 81.1463 52.0462 87.8077C51.0171 92.8285 50.9068 101.721 52.4156 106.584C53.8214 111.115 56.9542 115.979 60.2722 119.378C62.2296 120.974 65.1693 122.983 67.3957 124.064C80.571 130.46 96.1532 126.614 109.46 122.694C121.309 119.251 133.067 115.867 145.223 113.615C146.374 113.402 147.769 112.939 148.932 112.637C153.891 111.35 158.845 109.925 163.791 108.603C166.891 107.775 170.113 107.141 173.235 106.373C178.786 104.962 184.326 103.497 189.849 101.979C191.816 101.433 193.766 100.941 195.765 100.528C197.391 100.192 202.693 99.6185 203.469 98.0739L203.272 97.8312C202.465 97.6574 201.694 97.7803 200.875 97.8229C193.843 98.1883 186.797 98.0167 179.755 98.0412C179.967 93.4892 179.732 89.2041 179.558 84.6726C179.381 80.0754 179.716 75.3828 179.418 70.7739C179.297 68.9076 179.325 67.2685 179.604 65.4194C179.032 65.4101 178.446 65.3701 177.872 65.3383C177.482 68.9839 173.934 77.9636 172.509 81.7026C171.3 84.874 170.038 88.1824 168.988 91.4546C168.356 93.4209 167.188 96.0879 166.931 98.0621C161.301 98.2039 155.586 97.9881 149.948 98.0583C147.943 98.0832 145.857 98.0588 143.858 97.947C144.659 94.8924 145.837 92.4048 146.756 89.538C148.756 83.3022 150.922 77.3808 153.315 71.2844C154.51 68.2414 155.584 64.6133 156.709 61.4617L163.222 43.5465C164.773 39.2046 166.896 34.3523 168.26 30.0725C169.848 24.5874 172.051 19.3165 174.068 13.9818C174.471 12.9153 175.859 8.19402 176.317 7.77281C178.855 7.73863 197.872 7.52181 198.557 7.99665C199.141 10.6002 190.384 27.8378 190.986 29.2872C191.89 29.2312 192.906 27.9154 193.459 27.2173C197.06 22.6654 201.1 18.4931 204.808 14.0312C206.492 12.0037 208.402 9.89374 210.3 8.0739ZM197.855 46.5421C197.583 49.1646 198.139 54.7687 198.29 57.5771L199.947 84.4511C199.969 85.1466 199.854 85.1515 200.205 85.6009C200.517 85.5321 200.696 85.4367 200.849 85.0894C202.367 81.6254 203.574 77.2502 204.887 73.7494L221.639 29.078C222.36 27.2092 227.44 14.1876 227.221 13.2755C227.214 13.2517 227.207 13.2285 227.2 13.205L226.914 13.081C224.764 15.7648 223.297 17.261 221.174 19.7452L207.645 35.3474C205.808 37.4441 203.97 39.5523 202.142 41.6573C200.692 43.325 199.466 45.0123 197.855 46.5421Z" fill="white"/>
<path d="M123.943 7.73629C126.847 7.90374 145.846 7.28628 146.663 8.21194C146.597 7.54811 135.031 38.7384 134.168 40.9692L123.478 68.3518C121.162 74.399 119.117 81.0026 116.437 86.9238C115.089 89.9003 113.62 95.7158 112.26 97.9149C110.8 98.1213 109.148 98.0785 107.66 98.0802C102.796 98.0839 96.3001 98.2322 91.5598 97.9421C91.7365 93.5808 92.1821 90.1251 92.4627 85.9236C92.8052 80.0828 93.0688 74.2376 93.2534 68.3897C93.2938 67.3194 93.9175 61.4338 93.1894 60.9861C92.5104 61.9176 90.8271 66.5495 90.35 67.7924L83.8947 85.0202C82.4457 88.8387 79.902 94.3691 78.9161 98.0307C72.0594 98.1811 64.659 98.0825 57.7812 98.0205C59.5317 91.5379 62.3295 85.3872 64.6428 79.073L78.2626 41.9627C81.5361 33.0585 84.8414 24.1207 87.9391 15.1599C88.6778 13.0229 89.926 9.5391 91.0737 7.72834C98.1946 8.08552 106.311 7.50368 113.639 7.80489C113.169 17.3946 112.444 28.983 111.43 38.5064C111.761 38.7505 111.683 38.6734 112.16 38.7163C113.725 38.038 114.442 32.6564 115.21 30.8817C116.221 28.5426 117.03 25.929 118.121 23.5751C120.513 18.4166 121.836 13.0112 123.943 7.73629Z" fill="white"/>
<path d="M151.861 7.7301C154.561 7.83566 170.922 7.28724 171.963 8.1143C172.137 8.25299 172.09 8.37415 172.104 8.5819C170.92 10.58 169.265 16.1362 168.405 18.5439L161.926 36.169C160.449 40.2656 158.673 44.3654 157.164 48.4559L143.215 86.4362C142.005 89.6724 140.932 92.9532 139.776 96.2082C139.311 97.5191 139.392 97.8883 137.977 98.0784C131.854 98.1261 122.974 98.2944 116.973 97.9145C120.759 88.955 123.745 79.5622 127.67 70.6291C128.313 69.1664 128.697 67.2546 129.296 65.6968L136.418 47.4493C137.559 44.6034 138.815 41.8406 139.88 38.9494L146.732 20.9018C147.967 17.5544 150.085 10.3805 151.861 7.7301Z" fill="white"/>
</svg>
