<svg width="113" height="73" viewBox="0 0 113 73" fill="none" xmlns="http://www.w3.org/2000/svg">
<path d="M67.971 12.616C67.9928 12.4516 68.0437 12.3639 68.1113 12.2159C68.1724 12.1695 68.2469 12.0938 68.3009 12.0964C68.404 12.1015 68.7603 12.1021 68.8214 12.0143C69.2114 11.4541 69.5805 10.9282 70.0503 10.4575C71.1687 9.33709 71.6291 9.81088 72.9665 10.0975C73.6901 10.2527 74.0957 10.2825 74.825 10.2844C75.4666 10.2141 75.8701 10.2153 76.516 10.2825C77.807 10.4245 82.6233 12.0136 83.6648 12.7446C84.7021 13.0195 85.3401 13.2851 86.299 13.775C86.4879 13.8716 86.8386 13.9474 86.9997 14.0358C87.9051 14.1581 90.1257 14.7769 90.6761 14.7735C91.4603 14.8348 92.4405 14.9002 93.2026 15.0358C94.5956 16.2678 95.1031 16.1523 96.9082 16.1907C98.7574 16.1777 98.8608 16.1215 99.5024 18.0642C99.9843 19.5228 100.096 20.9588 100.188 22.4782C100.217 22.9929 100.325 24.5517 100.458 24.9677C101.399 25.5953 101.053 30.1009 102.132 31.1665C102.449 32.522 102.219 32.9189 102.839 34.4455C102.891 34.7369 103.017 35.2986 102.965 35.5683L102.968 35.7856L103.073 36.1202C103.733 39.8725 103.701 43.9117 103.997 47.7195C104.106 49.1054 103.882 50.6547 104.05 52.0385C104.071 52.2618 104.096 52.6702 104.162 52.8652C104.591 53.7188 104.464 58.0442 104.644 59.2314C104.702 59.6109 104.476 60.7537 104.124 61.0041C103.85 61.2751 103.733 61.5084 103.542 61.8374C102.231 62.2317 97.1912 62.1848 95.7162 62.019C94.9905 62.0688 89.7657 62.2317 89.2824 62.0876C88.8126 62.22 87.0846 62.1202 86.4102 62.145C84.3242 62.0012 81.4891 62.0941 79.344 62.0975L66.5319 62.1041C65.223 62.1766 63.6342 62.1374 62.3125 62.1294C60.9668 62.1214 59.458 62.136 58.1435 61.9546C57.6127 61.9888 57.0616 62.1373 56.5544 62.1286C53.6237 62.0784 50.6859 62.0706 47.7574 61.9706C46.2013 61.9175 44.3065 61.8816 42.7744 61.9858C42.5076 62.0087 42.3138 62.0197 42.0463 62.0182C41.2536 62.1755 40.7621 62.0708 39.9859 62.0883C39.6209 62.1765 39.5241 62.1785 39.1521 62.1378C37.7946 61.9929 36.4381 61.8125 35.0742 61.7518C34.4494 61.724 33.8521 61.671 33.2332 61.5809C32.5302 61.4532 31.5339 61.4098 30.8006 61.3562C29.3768 61.2579 27.9538 61.1479 26.5318 61.026C22.8932 60.6845 19.5349 59.9516 15.8654 60.0665C14.0212 60.1241 11.4311 59.0552 9.77763 58.265C9.59284 58.1263 8.3651 56.4339 8.23614 56.14L8.21654 56.0947C8.04017 55.6952 8.02634 55.1951 8.08793 54.768C8.17612 54.2151 8.26138 53.7665 8.38742 53.2212L8.5156 52.846C8.94276 52.0216 8.70544 52.0698 9.45854 51.1935C10.5879 49.6187 10.3178 47.3986 12.5018 46.4368C12.6768 46.3196 12.851 46.3005 13.0589 46.2553C13.2396 46.2096 13.5648 45.9988 13.7453 45.9896C15.5698 45.8958 16.4258 44.8747 18.3139 44.8763C18.7839 44.8768 20.7523 44.5396 21.0089 44.3817C22.2104 43.642 23.6901 44.0248 25.0365 43.6519C26.8134 42.7998 28.1595 43.0408 30.0229 42.687C30.5225 42.6095 31.3209 42.1668 31.7765 42.1072C33.2898 41.9094 34.4789 40.8977 35.9726 40.9519C36.1359 40.6936 36.5312 40.3041 36.7264 40.0704C38.0834 38.4462 39.8074 38.5364 41.6244 37.9736C41.7678 37.9292 43.2621 36.9704 43.7533 36.7277C43.9521 36.5611 43.9885 36.438 44.2553 36.2587C45.0544 35.7395 45.601 35.8806 46.1445 35.1303C47.1373 34.8499 47.761 34.3191 48.7258 34.0142C49.1377 33.884 49.926 34.0286 50.2826 33.8604C50.6641 33.6805 50.7209 33.227 51.19 32.9534L51.2426 32.9234C52.1077 32.7044 53.2363 31.1674 54.1054 31.5507C54.2904 31.6345 54.44 31.7025 54.6323 31.7705C54.7674 31.6245 54.6284 31.3863 54.6686 31.0033L54.675 30.9457C55.0115 30.3992 55.6526 29.1234 56.3074 29.0482C56.8195 28.9427 57.2528 28.3075 57.9364 28.193L58.5026 27.7847C58.8856 27.0896 58.9165 26.9597 58.9637 26.1696C60.8371 23.7872 62.9123 24.2561 65.0526 23.0058C65.1063 22.8087 65.261 22.4428 65.34 22.2393C66.0713 21.246 65.5797 18.6981 65.7072 17.2823C65.9933 16.8489 66.1476 16.6725 66.5221 16.3241C67.3232 15.4625 67.2765 15.4297 67.2313 14.2454C67.2206 13.9667 67.4906 13.5942 67.7073 13.3954C67.5734 13.6388 67.3186 13.9624 67.4769 14.2093C67.6082 14.2426 67.7125 14.2533 67.8118 14.3424L67.7548 14.6794L67.8786 14.6401C68.0884 14.4333 68.3409 13.6422 68.4589 13.3222C68.5268 12.9375 68.5817 12.8399 68.7566 12.485L68.6945 12.3719C68.2593 12.2485 68.2383 12.2902 67.971 12.616ZM77.288 11.4502C77.504 11.4482 77.5568 11.4386 77.7407 11.5583L77.9866 11.4381C78.0978 11.2486 78.0843 11.3353 78.0316 11.1131C77.7635 10.8642 77.3493 10.824 77.0456 11.0311L76.9979 11.3201L77.288 11.4502Z" fill="#FBFBFA"/>
<path d="M67.9726 12.616C67.9944 12.4516 68.0454 12.3639 68.1129 12.2159C68.174 12.1695 68.2485 12.0938 68.3025 12.0964C68.4057 12.1015 68.762 12.1021 68.8231 12.0143C69.213 11.4541 69.5821 10.9282 70.0519 10.4575C71.1703 9.33709 71.6307 9.81088 72.9681 10.0975C73.6917 10.2527 74.0973 10.2825 74.8266 10.2844C75.4682 10.2141 75.8717 10.2153 76.5176 10.2825C77.8086 10.4245 82.6249 12.0136 83.6664 12.7446C84.7037 13.0195 85.3417 13.2851 86.3006 13.775C86.4895 13.8716 86.8402 13.9474 87.0013 14.0358C87.9067 14.1581 90.1274 14.7769 90.6777 14.7735C91.4619 14.8348 92.4421 14.9002 93.2042 15.0358C94.5972 16.2678 95.1048 16.1523 96.9098 16.1907C98.759 16.1777 98.8624 16.1215 99.504 18.0642C99.9859 19.5228 100.097 20.9588 100.19 22.4782C100.219 22.9929 100.327 24.5517 100.46 24.9677C101.4 25.5953 101.055 30.1009 102.133 31.1665C102.45 32.522 102.22 32.9189 102.84 34.4455C102.892 34.7369 103.019 35.2986 102.967 35.5683C102.433 35.7076 101.155 35.9225 100.789 36.0383C100.324 36.1521 99.6131 36.2982 99.2146 36.5232L98.9551 36.6186L98.6421 36.3737C97.6583 36.7732 96.2625 36.9639 95.2174 37.2644C93.875 37.6504 89.567 39.4187 88.4564 39.2553C88.2838 39.111 87.665 39.2217 87.3378 39.2149C86.4232 39.1464 85.8457 39.3384 84.7857 39.2131L84.487 39.1506L84.2111 39.1178C83.4511 38.9158 83.4583 39.2117 82.3597 38.6894L82.3212 38.8272C82.729 38.9549 82.8088 39.2116 83.1589 39.4133C83.4048 39.4177 83.5745 39.4266 83.8104 39.3461L83.8889 39.3917C83.387 40.1677 82.6263 39.1306 82.3027 39.0031C79.3335 37.8337 76.6373 36.3261 73.9547 34.6065C73.1456 34.0876 72.2523 33.6792 71.4275 33.1254L71.4667 33.0349C71.4061 32.8457 71.2868 32.8296 71.0758 32.6987C71.4247 32.3392 71.6257 32.1273 72.0242 31.8242L72.3336 30.9921C73.1214 29.8062 73.0672 28.7953 73.2026 27.3813L73.4429 26.6611C72.894 26.6965 72.4926 26.3226 72.119 26.8023C72.0477 27.0566 72.1333 27.3913 72.1803 27.6612L72.1155 27.7375C71.0704 27.5183 71.2472 26.4843 70.4816 26.2404C70.3745 26.1899 70.2875 26.1335 70.1721 26.1376C69.8687 26.5218 70.1661 27.3 69.234 26.8627C69.2449 26.8724 66.8029 25.3735 66.7468 25.3497C66.4836 24.8112 65.6536 24.4149 65.0638 24.4485C64.9984 23.9232 65.0872 23.5174 65.0542 23.0058C65.108 22.8087 65.2627 22.4428 65.3417 22.2393C66.0729 21.246 65.5813 18.6981 65.7089 17.2823C65.9949 16.8489 66.1492 16.6725 66.5237 16.3241C67.3248 15.4625 67.2781 15.4297 67.2329 14.2454C67.2223 13.9667 67.4922 13.5942 67.709 13.3954C67.5751 13.6388 67.3202 13.9624 67.4785 14.2093C67.6099 14.2426 67.7141 14.2533 67.8135 14.3424L67.7564 14.6794L67.8803 14.6401C68.09 14.4333 68.3426 13.6422 68.4605 13.3222C68.5284 12.9375 68.5833 12.8399 68.7582 12.485L68.6961 12.3719C68.2609 12.2485 68.2399 12.2902 67.9726 12.616ZM77.2896 11.4502C77.5056 11.4482 77.5584 11.4386 77.7423 11.5583L77.9883 11.4381C78.0995 11.2486 78.0859 11.3353 78.0332 11.1131C77.7651 10.8642 77.3509 10.824 77.0472 11.0311L76.9995 11.3201L77.2896 11.4502Z" fill="#3D513B"/>
<path d="M77 11.3205L77.0478 11.0315C77.3515 10.8244 77.7656 10.8646 78.0337 11.1135C78.0864 11.3356 78.1 11.249 77.9888 11.4385L77.7428 11.5587C77.5589 11.439 77.5062 11.4486 77.2902 11.4506L77 11.3205Z" fill="#5A7258" fill-opacity="0.980392"/>
<path d="M73.4923 26.5645C73.8345 26.5723 74.3371 27.0865 74.66 27.3082C75.5547 27.922 76.438 28.5931 77.3847 29.1247L79.0528 30.253C79.9546 30.7656 80.7181 31.159 81.5052 31.8411C82.6772 32.7134 83.4899 33.9996 84.746 34.0985C84.9442 34.256 85.2464 34.3392 85.5038 34.3367C89.8852 34.2992 94.2559 33.4966 98.4506 32.2535C99.7587 31.8659 100.822 31.6958 102.128 31.1664C102.445 32.5219 102.215 32.9187 102.835 34.4453C102.887 34.7367 103.013 35.2985 102.961 35.5681C102.427 35.7074 101.15 35.9224 100.784 36.0382C100.318 36.152 99.6076 36.2981 99.2091 36.5231L98.9496 36.6185L98.6367 36.3735C97.6529 36.773 96.257 36.9637 95.2119 37.2642C93.8696 37.6503 89.5616 39.4186 88.4509 39.2552C88.2784 39.1109 87.6596 39.2216 87.3323 39.2148C86.4177 39.1463 85.8403 39.3383 84.7802 39.2129L84.4815 39.1505L84.2056 39.1177C83.4457 38.9157 83.4528 39.2116 82.3542 38.6893L82.3157 38.827C82.7235 38.9548 82.8033 39.2114 83.1534 39.4132C83.3993 39.4176 83.569 39.4264 83.805 39.3459L83.8834 39.3916C83.3815 40.1675 82.6208 39.1304 82.2972 39.003C79.328 37.8335 76.6319 36.326 73.9492 34.6064C73.1401 34.0874 72.2469 33.6791 71.422 33.1253L71.4613 33.0347C71.4007 32.8455 71.2813 32.8295 71.0703 32.6986C71.4192 32.3391 71.6202 32.1271 72.0187 31.824L72.3281 30.9919C73.1159 29.806 73.0617 28.7952 73.1972 27.3812L73.4374 26.661L73.4923 26.5645Z" fill="#ECECEB"/>
<path d="M102.838 34.4453C102.89 34.7367 103.016 35.2985 102.964 35.5681C102.43 35.7074 101.153 35.9224 100.787 36.0382C100.634 35.742 100.624 35.8268 100.655 35.5353C101.42 35.1814 102.093 34.8374 102.838 34.4453Z" fill="#535D50"/>
<path d="M79.0538 30.2539C79.9556 30.7665 80.7192 31.1599 81.5062 31.842C80.7869 31.9199 79.5236 31.0481 78.8984 30.6411L79.0538 30.2539Z" fill="#D6D5D5"/>
<path d="M77.3861 29.125L79.0543 30.2533L78.8989 30.6405C78.5253 30.5089 77.6107 29.8783 77.4218 29.5185C77.3027 29.2926 77.3241 29.3904 77.3861 29.125Z" fill="#ECECEB"/>
<path d="M98.6406 36.3743C99.2345 36.1861 100.002 35.7627 100.656 35.5361C100.625 35.8276 100.635 35.7428 100.788 36.039C100.322 36.1528 99.6116 36.2989 99.2131 36.5239L98.9536 36.6193L98.6406 36.3743Z" fill="#848A84"/>
<path d="M82.3154 38.8273C82.1066 38.7915 81.661 38.7071 81.5312 38.5559C81.7622 38.493 82.108 38.6216 82.3539 38.6895L82.3154 38.8273Z" fill="#C8C9C5"/>
<path d="M84.9019 35.2208C85.7702 35.1848 86.6649 35.1523 87.5303 35.0879C88.5683 35.0107 89.5171 34.8633 90.5679 34.9527L90.5494 35.0017C89.505 35.2523 85.6604 35.6531 84.7422 35.4656L84.9019 35.2208Z" fill="#C8C9C5"/>
<path d="M83.9101 35.4427L83.6556 35.4864C83.4688 35.3523 83.5244 35.4293 83.4609 35.1815C83.5451 34.9336 83.483 35.0163 83.6912 34.8664C83.9036 34.8557 83.9714 34.9209 84.1446 35.0351L83.9101 35.4427Z" fill="#C8C9C5"/>
<path d="M84.1408 35.0352L84.905 35.2203L84.7453 35.465C84.4238 35.4397 84.2271 35.4317 83.9062 35.4427L84.1408 35.0352Z" fill="#D6D5D5"/>
<path d="M76.5118 10.2822C77.8029 10.4242 82.6192 12.0134 83.6607 12.7443C84.698 13.0193 85.336 13.2849 86.2948 13.7748C86.4838 13.8713 86.8345 13.9471 86.9956 14.0356C87.901 14.1579 90.1216 14.7767 90.672 14.7732C91.4562 14.8346 92.4364 14.9 93.1985 15.0356C94.5915 16.2676 95.099 16.152 96.9041 16.1905C98.7533 16.1775 98.8567 16.1212 99.4983 18.0639C99.9802 19.5226 100.091 20.9586 100.184 22.478C100.213 22.9927 100.321 24.5515 100.454 24.9675C98.9722 24.7434 94.5366 23.117 93.0153 22.5161C92.6125 22.3711 92.132 22.1605 91.7285 21.9963C90.6363 21.6449 89.1272 21.1739 88.1712 20.5976L88.0607 20.6619C87.8033 20.5055 86.3825 19.9478 86.0439 19.8048L80.8769 17.6381C79.6806 17.133 77.9918 16.2081 76.8056 15.7972L76.6074 15.5337C76.8034 15.0069 77.0094 14.4839 77.2254 13.9651C77.5013 13.4538 77.7779 12.4022 77.939 11.8122L77.7366 11.5581L77.9825 11.4379C78.0937 11.2484 78.0802 11.335 78.0274 11.1129C77.7594 10.8639 77.3452 10.8238 77.0415 11.0308L76.9938 11.3199C76.8975 11.3124 76.7699 11.29 76.6715 11.2756C76.1946 10.8071 75.856 10.7566 75.2422 10.649C75.7362 10.5257 75.9244 10.3877 76.5118 10.2822Z" fill="#FBFBFA"/>
<path d="M76.5118 10.2822C77.8029 10.4242 82.6192 12.0134 83.6607 12.7443C84.698 13.0193 85.336 13.2849 86.2948 13.7748C86.4838 13.8713 86.8345 13.9471 86.9956 14.0356C87.901 14.1579 90.1216 14.7767 90.672 14.7732C91.4562 14.8346 92.4364 14.9 93.1985 15.0356C94.5915 16.2676 95.099 16.152 96.9041 16.1905C94.4574 16.798 89.5756 16.17 87.1011 15.488C85.7673 15.1203 83.8268 14.2935 82.5522 13.7147C81.4714 13.224 79.0583 11.8762 77.939 11.8122L77.7366 11.5581L77.9825 11.4379C78.0937 11.2484 78.0802 11.335 78.0274 11.1129C77.7594 10.8639 77.3452 10.8238 77.0415 11.0308L76.9938 11.3199C76.8975 11.3124 76.7699 11.29 76.6715 11.2756C76.1946 10.8071 75.856 10.7566 75.2422 10.649C75.7362 10.5257 75.9244 10.3877 76.5118 10.2822Z" fill="#5A7258"/>
<path d="M83.6641 12.7451C84.7013 13.0201 85.3394 13.2857 86.2982 13.7756C86.4871 13.8721 86.8379 13.9479 86.999 14.0364C86.0508 14.1166 84.434 13.3864 83.6641 12.7451Z" fill="#535D50"/>
<path d="M90.6719 14.7734C91.4561 14.8348 92.4363 14.9002 93.1984 15.0358C92.5225 15.3596 91.2707 15.2483 90.6719 14.7734Z" fill="#293E28"/>
<path d="M76.6094 15.5345C76.8054 15.0076 77.0114 14.4847 77.2274 13.9658C77.3208 14.2503 77.3401 14.2842 77.534 14.5127L77.5397 14.6238L77.4263 14.6109L77.2831 14.4244C76.9851 14.6088 76.9309 15.2 77.0328 15.5156C77.5618 16.1872 78.5741 16.4069 79.3946 16.4983C80.4483 16.6158 81.4143 17.0983 82.3496 17.575C82.5542 17.678 83.0097 17.6655 83.1837 17.756C85.0728 18.738 87.3462 19.3871 89.1498 20.5276C88.8112 20.5859 88.5118 20.6601 88.1732 20.5983L88.0627 20.6626C87.8053 20.5062 86.3845 19.9485 86.0459 19.8055L80.8789 17.6388C79.6826 17.1338 77.9938 16.2089 76.8076 15.7979L76.6094 15.5345Z" fill="#C8C9C5"/>
<path d="M89.1485 20.5273C89.7887 20.766 90.4239 21.0175 91.0541 21.2817C90.8531 21.3175 90.8032 21.2918 90.6057 21.2308L90.4645 21.2905L90.4624 21.3885C90.9222 21.5641 91.3899 21.6541 91.7292 21.9968C90.6371 21.6454 89.1279 21.1744 88.1719 20.5981C88.5105 20.6599 88.8099 20.5857 89.1485 20.5273Z" fill="#B5B6B2"/>
<path d="M75.2466 10.6494C75.8604 10.757 76.199 10.8075 76.6759 11.276C76.7743 11.2904 76.9019 11.3128 76.9982 11.3203L77.2883 11.4504C77.5043 11.4484 77.5571 11.4388 77.741 11.5585L77.9435 11.8126C77.7823 12.4026 77.5057 13.4542 77.2299 13.9655C77.0138 14.4843 76.8078 15.0073 76.6118 15.5341C75.9588 16.039 75.6373 14.8192 74.7961 14.787C74.6228 14.7805 73.5777 14.353 73.3681 14.2575L73.1386 14.5406C72.4121 14.1938 71.839 13.7928 71.0485 13.5743C71.2677 13.4433 71.2936 13.3065 71.3635 13.0778L71.0662 12.7268C71.0581 12.6829 70.9896 12.5234 70.9688 12.4718L71.0766 12.408C71.2965 12.2161 71.4889 12.0607 71.7206 11.8829C72.5961 11.7247 73.1065 11.5542 73.8529 11.0632C74.183 10.8462 74.8345 10.7588 75.2466 10.6494Z" fill="#4A5D48"/>
<path d="M75.2481 10.6494C75.8619 10.757 76.2005 10.8075 76.6775 11.276C76.7758 11.2904 76.9034 11.3128 76.9997 11.3203L77.2898 11.4504L77.2221 11.7619C76.9448 11.7729 76.5171 11.7638 76.2747 11.8681C75.0228 11.1647 72.4964 12.8511 71.3329 12.6178C71.2325 12.5468 71.1588 12.5028 71.0781 12.408C71.298 12.2161 71.4905 12.0607 71.7222 11.8829C72.5976 11.7247 73.108 11.5542 73.8544 11.0632C74.1845 10.8462 74.8361 10.7588 75.2481 10.6494Z" fill="#293E28"/>
<path d="M76.2737 11.8679C76.5161 11.7636 76.9438 11.7728 77.2212 11.7617C77.2283 12.1308 76.658 13.0407 76.2324 13.131C75.9836 12.9044 75.9401 12.1796 76.109 11.9379L76.2737 11.8679Z" fill="#5F725B"/>
<path d="M71.3618 13.0781C71.5172 13.1511 73.2146 14.1518 73.3665 14.2578L73.1369 14.5409C72.4105 14.1942 71.8373 13.7931 71.0469 13.5747C71.266 13.4436 71.292 13.3068 71.3618 13.0781Z" fill="#7C8D76"/>
<path d="M73.6462 26.125C74.0525 26.264 74.2664 26.477 74.6613 26.2618C74.9222 26.3856 75.9338 26.8308 76.0807 26.9228C77.7125 27.9468 84.2397 32.8098 84.7459 34.0994C83.4898 34.0005 82.6771 32.7143 81.5051 31.842C80.718 31.1599 79.9545 30.7665 79.0527 30.2539L77.3846 29.1256C76.4379 28.594 75.5546 27.9229 74.6599 27.3091C74.337 27.0874 73.8344 26.5732 73.4922 26.5654C73.5072 26.4524 73.6005 26.2399 73.6462 26.125Z" fill="#566653"/>
<path d="M65.3417 22.2393C65.5279 22.3305 65.7267 22.4372 65.922 22.5011C66.2709 22.6129 66.4514 22.6136 66.8102 22.6348L67.7314 23.6357C68.635 23.9768 68.9499 26.1022 69.312 26.8079L69.234 26.8626C69.2449 26.8723 66.8029 25.3734 66.7468 25.3496C66.4836 24.8112 65.6536 24.4149 65.0638 24.4484C64.9984 23.9231 65.0872 23.5173 65.0542 23.0058C65.108 22.8086 65.2627 22.4427 65.3417 22.2393Z" fill="#4B5D48"/>
<path d="M65.9173 22.501C66.2663 22.6128 66.4468 22.6135 66.8056 22.6347L67.7268 23.6355C67.5032 23.8314 66.5257 23.609 66.1798 23.5677C66.1465 23.2003 66.108 23.0242 65.9062 22.7106L65.875 22.6627L65.9173 22.501Z" fill="#B5B6B2"/>
<path d="M74.8206 10.2849C75.4623 10.2146 75.8658 10.2158 76.5116 10.283C75.9242 10.3885 75.736 10.5265 75.242 10.6498C74.8299 10.7592 74.1783 10.8465 73.8483 11.0636C73.1019 11.5546 72.5914 11.725 71.716 11.8832C71.2018 11.4707 70.946 11.4472 70.362 11.5867L70.2812 11.5243C71.105 11.3571 70.6696 11.0571 71.6932 10.7473C72.7526 10.4266 73.7413 10.4989 74.7615 10.2969L74.8206 10.2849Z" fill="#546851"/>
<path d="M71.062 12.7266L71.3593 13.0775C71.2894 13.3062 71.2634 13.443 71.0443 13.574C70.093 14.1342 69.8568 15.6836 69.205 15.8404L69.1006 15.7255C68.9053 14.6809 70.0189 13.0098 71.062 12.7266Z" fill="#ECECEB"/>
<path d="M68.4602 13.3223C68.4603 13.6856 68.2842 14.5894 68.2149 14.9717C68.1192 15.4996 67.4518 15.9528 67.1949 16.5202L67.1736 16.5663C66.969 17.014 66.9561 17.5163 66.8451 17.9975C66.7379 17.4467 66.6681 16.8534 66.5234 16.3242C67.3245 15.4625 67.2778 15.4297 67.2326 14.2455C67.222 13.9667 67.492 13.5942 67.7087 13.3954C67.5748 13.6389 67.3199 13.9624 67.4783 14.2094C67.6096 14.2427 67.7138 14.2534 67.8132 14.3424L67.7562 14.6794L67.88 14.6402C68.0897 14.4333 68.3423 13.6423 68.4602 13.3223Z" fill="#546951"/>
<path d="M73.3702 14.2578C73.5798 14.3533 74.6249 14.7808 74.7981 14.7873C75.6393 14.8195 75.9608 16.0393 76.6138 15.5345L76.812 15.7979C76.735 15.8458 76.7086 15.8663 76.6131 15.8795C76.0592 15.9563 75.774 16.4234 75.1766 16.1051L75.1702 16.011C75.3092 15.9244 75.4098 15.8615 75.5416 15.7609C75.1752 15.5564 73.3994 14.6021 73.1406 14.5409L73.3702 14.2578Z" fill="#556A53"/>
<path d="M73.6515 26.1244C73.0034 25.7609 70.7794 24.5132 70.5625 23.8763C70.9177 23.8165 74.2168 25.9099 74.6666 26.2612C74.2717 26.4764 74.0578 26.2634 73.6515 26.1244Z" fill="#5A7258"/>
<path d="M88.0625 20.662L88.173 20.5977C89.129 21.174 90.6382 21.645 91.7303 21.9963C92.1338 22.1605 92.6143 22.3711 93.0171 22.5162C91.6747 22.7751 91.1529 22.2944 90.0458 21.6916C89.6964 21.5013 88.8574 21.852 88.6014 21.0791C88.6036 21.0841 88.1659 20.8357 88.0625 20.662Z" fill="#5F725B"/>
<path d="M81.117 23.5822C81.0194 23.193 80.8946 22.8158 80.7734 22.4336C81.2183 22.7706 83.054 23.9835 83.5409 24.1974C83.7319 24.2026 84.0385 24.1971 84.2089 24.2493L84.5104 24.1564C84.5325 23.9126 84.5211 23.6299 84.5175 23.382C84.8077 22.9334 85.4536 22.8934 85.8998 23.1339C86.0139 23.3339 85.9775 23.2832 85.9412 23.5565L86.1679 23.6341C87.923 23.8143 88.144 23.7949 89.6332 24.7709C89.8257 25.2067 90.2257 25.6487 90.2392 25.8128C90.0681 26.0499 89.8421 26.0708 89.5334 26.1712C90.6156 26.4053 90.9692 26.5287 91.6215 27.4216L91.7413 27.4459C91.8097 27.6693 91.8731 28.1039 91.9922 28.1939L92.0635 28.192C92.2774 28.1876 92.3672 28.1736 92.5475 28.2987L92.6039 28.4321C92.5183 28.6191 92.3779 28.8771 92.3672 29.0693L92.2139 29.4846L92.2032 30.0801C92.6181 30.4508 93.3581 30.2623 93.6518 30.6291L93.6083 30.7615C93.4643 30.8307 93.3182 30.8973 93.172 30.9612C93.3631 31.1638 93.2668 31.1162 93.5299 31.1504C93.7987 31.0162 93.9747 30.8987 94.2727 30.9087L94.3476 30.9486C94.3782 31.1489 94.2449 31.3302 94.1344 31.5014C93.8479 31.9473 93.2013 31.8716 92.7742 32.0374C92.4185 32.2213 92.3087 32.2786 91.9038 32.1591C91.4005 32.1631 91.1781 32.0494 90.7247 31.8527C90.277 31.8271 90.1059 31.8244 89.6689 31.6915C88.755 31.7721 87.8567 31.4931 87.2108 30.8176L86.8751 30.5873C86.6291 30.4596 86.3846 30.2575 86.1629 30.086C85.5106 29.7238 85.1114 28.7501 84.4484 28.7424C84.3372 28.6912 84.1711 28.5822 84.0613 28.5151C84.0128 27.5482 82.5892 27.6483 83.039 26.5962C82.53 26.3739 82.2242 26.3345 82.1122 25.7472C82.16 25.3595 82.1001 25.3737 82.3047 25.0986C82.1743 24.9227 82.2006 24.7316 82.2021 24.513L82.5771 24.6726L82.915 24.6284C82.2149 23.9761 82.0388 23.6432 81.117 23.5822Z" fill="#ECECEB"/>
<path d="M81.117 23.5822C81.0194 23.193 80.8946 22.8158 80.7734 22.4336C81.2183 22.7706 83.054 23.9835 83.5409 24.1974C83.7319 24.2026 84.0385 24.1971 84.2089 24.2493L84.5104 24.1564C84.5325 23.9126 84.5211 23.6299 84.5175 23.382C84.8077 22.9334 85.4536 22.8934 85.8998 23.1339C86.0139 23.3339 85.9775 23.2832 85.9412 23.5565L86.1679 23.6341C85.9619 24.1616 86.4088 24.3089 86.3818 24.7972C86.2435 24.9549 86.2071 24.9587 86.0011 25.01L85.8827 25.0655C85.9626 25.2757 86.6084 25.6717 86.8309 25.7373C86.8166 25.8296 86.7988 25.9414 86.7781 26.0726C86.5678 26.2384 86.3418 26.3249 86.5407 26.6477C86.7097 26.9232 86.8993 26.8256 86.9948 27.1506C86.8801 27.4348 86.8622 27.4026 86.5507 27.479L86.4587 27.5901C86.4295 27.5543 86.3375 27.4788 86.2983 27.4439C86.1337 27.4749 86.0274 27.5095 85.8685 27.5611L85.7352 27.4809L85.7323 27.2106C85.0372 27.1557 85.3566 26.6575 84.7485 26.4462C84.5168 26.4996 84.4912 26.5114 84.3087 26.6628L84.0634 27.3221C84.3336 27.3389 84.4028 27.3305 84.6302 27.4817L84.6708 27.6204C84.2937 28.2144 84.144 27.8946 84.0613 28.5151C84.0128 27.5482 82.5892 27.6483 83.039 26.5962C82.53 26.3739 82.2242 26.3345 82.1122 25.7472C82.16 25.3595 82.1001 25.3737 82.3047 25.0986C82.1743 24.9227 82.2006 24.7316 82.2021 24.513L82.5771 24.6726L82.915 24.6284C82.2149 23.9761 82.0388 23.6432 81.117 23.5822Z" fill="#D6D5D5"/>
<path d="M82.1992 24.5137L82.5742 24.6733L82.9121 24.6291C83.1538 24.7666 83.7226 25.2997 83.8859 25.5197C83.9351 25.7121 83.9501 25.8245 83.9743 26.0167L84.0306 26.1652L83.9479 26.2637C83.6784 26.2792 83.5066 26.2063 83.25 26.1244C83.2051 26.4686 83.2671 26.3601 83.0361 26.597C82.5271 26.3746 82.2213 26.3352 82.1094 25.7479C82.1571 25.3602 82.0973 25.3744 82.3019 25.0993C82.1714 24.9234 82.1978 24.7323 82.1992 24.5137Z" fill="#C8C9C5"/>
<path d="M82.3019 25.0986L82.448 25.421C82.7389 25.7654 82.8907 25.8643 83.25 26.1238C83.2051 26.468 83.2671 26.3594 83.0361 26.5963C82.5271 26.3739 82.2213 26.3346 82.1094 25.7472C82.1571 25.3596 82.0973 25.3737 82.3019 25.0986Z" fill="#ECECEB"/>
<path d="M82.4453 25.4209C83.0812 25.7071 83.2345 25.8497 83.9716 26.0159L84.0279 26.1644L83.9452 26.2629C83.6758 26.2784 83.504 26.2055 83.2473 26.1237C82.888 25.8642 82.7362 25.7653 82.4453 25.4209Z" fill="#505150"/>
<path d="M82.916 24.6289C83.1577 24.7664 83.7266 25.2995 83.8898 25.5195C83.2333 25.5847 83.1805 25.062 82.5781 24.6731L82.916 24.6289Z" fill="#535D50"/>
<path d="M84.5156 23.3821C84.8058 22.9336 85.4517 22.8936 85.8979 23.1341C86.012 23.3341 85.9756 23.2834 85.9393 23.5567L86.166 23.6343C85.9599 24.1618 86.4069 24.309 86.3798 24.7974C86.2415 24.9551 86.2052 24.9589 85.9991 25.0102C85.9079 24.6946 85.6092 23.9865 85.4944 23.6317C85.4559 23.5115 85.1822 23.4867 85.0261 23.4511L84.5156 23.3821Z" fill="#7C8D76"/>
<path d="M84.5156 23.3821C84.8058 22.9336 85.4517 22.8936 85.8979 23.1341C86.012 23.3341 85.9756 23.2834 85.9393 23.5567C85.6463 23.3993 85.3518 23.4383 85.0261 23.4511L84.5156 23.3821Z" fill="#5F725B"/>
<path d="M83.5391 24.1982C83.7301 24.2034 84.0367 24.1979 84.207 24.2501C84.2719 24.6675 85.3805 25.5832 85.2878 26.0672C84.7389 26.0783 84.155 24.4336 83.5391 24.1982Z" fill="#535D50"/>
<path d="M84.0574 27.3225C83.8086 27.2939 83.6689 27.3004 83.4821 27.1356C83.3395 26.648 83.9519 26.4819 84.3026 26.6633L84.0574 27.3225Z" fill="#5A7258"/>
<path d="M88.9939 29.9561C89.6027 30.0266 90.0147 29.6121 90.3819 30.298L90.6606 30.4229C91.3022 30.3247 91.4241 30.4491 91.8319 30.9226C92.1306 30.9006 92.43 30.8812 92.7294 30.8644C92.8435 30.8888 93.0709 30.9298 93.1721 30.962C93.3632 31.1646 93.2669 31.117 93.53 31.1512C93.7988 31.0169 93.9748 30.8995 94.2728 30.9094L94.3477 30.9494C94.3783 31.1497 94.245 31.331 94.1345 31.5022C93.8479 31.9481 93.2014 31.8723 92.7743 32.0382C92.4186 32.2221 92.3088 32.2794 91.9039 32.1598C91.4006 32.1638 91.1782 32.0502 90.7248 31.8534C90.2771 31.8279 90.106 31.8251 89.669 31.6923C88.7551 31.7729 87.8568 31.4939 87.2109 30.8184L87.5724 30.789C88.862 30.9478 88.1498 30.0294 88.9939 29.9561Z" fill="#D6D5D5"/>
<path d="M88.9939 29.9561C89.6027 30.0266 90.0147 29.6121 90.3819 30.298L90.3298 30.2948C89.4943 30.2369 89.6954 29.7895 88.7593 30.5797C88.6481 30.6736 88.6082 30.7132 88.5683 30.8706C88.5783 30.9288 88.584 31.0127 88.6139 31.0554C88.9447 31.2843 89.2954 31.5559 89.669 31.6923C88.7551 31.7729 87.8568 31.4939 87.2109 30.8184L87.5724 30.789C88.862 30.9478 88.1498 30.0294 88.9939 29.9561Z" fill="#535D50"/>
<path d="M93.1719 30.9618C93.363 31.1644 93.2667 31.1168 93.5298 31.151C93.7986 31.0167 93.9747 30.8993 94.2726 30.9092L94.3475 30.9492C94.3782 31.1495 94.2448 31.3308 94.1343 31.502C93.8478 31.9479 93.2012 31.8721 92.7741 32.038L92.5859 32.0109L92.7157 31.9152C92.8896 31.5705 92.9666 31.3698 92.8618 31.0232L92.7292 30.8643C92.8433 30.8886 93.0707 30.9296 93.1719 30.9618Z" fill="#B5B6B2"/>
<path d="M89.1982 31.0207C89.4206 31.2514 89.3287 31.2216 89.6081 31.2678C90.0523 31.1242 90.0508 30.9394 90.3738 30.9791C90.4707 31.1728 90.5527 31.3807 90.7031 31.5292L90.7202 31.8535C90.2725 31.828 90.1015 31.8252 89.6645 31.6924C89.2909 31.556 88.9402 31.2844 88.6094 31.0555C88.8218 31.0559 88.9879 31.04 89.1982 31.0207Z" fill="#C8C9C5"/>
<path d="M90.6562 30.4228C91.2979 30.3247 91.4198 30.4491 91.8275 30.9226C92.1262 30.9005 92.4256 30.8811 92.7251 30.8644L92.8577 31.0234C92.7108 31.0492 92.3615 31.1986 92.1947 31.2611C91.8774 31.1141 90.7689 30.6547 90.6562 30.4228Z" fill="#848A84"/>
<path d="M89.2031 31.0199C89.6665 30.8335 90.5291 30.4506 90.8242 31.0223C90.8157 31.2278 90.8299 31.3595 90.708 31.5284C90.5576 31.3799 90.4756 31.1721 90.3787 30.9784C90.0557 30.9387 90.0572 31.1234 89.613 31.2671C89.3336 31.2209 89.4255 31.2506 89.2031 31.0199Z" fill="#848A84"/>
<path d="M91.9008 32.1597C91.8944 32.0306 91.8744 32.0223 91.8038 31.9157L91.4631 31.856C91.3846 31.69 91.3996 31.762 91.4353 31.5663L91.59 31.5176C92.0483 31.6031 92.2693 31.6718 92.583 32.011L92.7712 32.0381C92.4155 32.222 92.3057 32.2793 91.9008 32.1597Z" fill="#5F725B"/>
<path d="M86.8146 28.9374L86.9857 28.7631C86.97 28.5341 86.8773 28.4161 86.759 28.2235C86.7854 28.198 86.8203 28.1677 86.8574 28.1673C87.7656 28.158 87.3108 27.1405 88.1056 27.1025L88.2325 27.2316C88.2532 27.4919 88.2817 27.3994 88.1448 27.5902C87.7991 27.6659 87.7406 27.6294 87.6943 27.9909C87.8162 28.1538 87.8811 28.2431 87.9823 28.4257C88.0122 28.8944 88.7465 29.2848 89.1857 29.2573C89.232 29.4523 89.2199 29.3881 89.1593 29.6017C89.063 29.7397 89.0024 29.7947 88.9882 29.9559C88.1441 30.0292 88.8563 30.9476 87.5667 30.7888L87.2052 30.8182L86.8695 30.5879C86.8958 30.2807 86.8303 30.0816 86.759 29.7809L86.8196 29.492C86.4146 29.2357 86.4588 29.3301 86.2578 28.933L86.4824 28.8364L86.8146 28.9374Z" fill="#B5B6B2"/>
<path d="M86.8184 29.4912L87.0287 29.5259C87.2583 29.7173 87.3866 29.7504 87.3638 30.0831C87.5477 30.2038 87.7081 30.3244 87.9198 30.3872L87.8635 30.6349C87.7402 30.7105 87.6995 30.7366 87.5655 30.788L87.2041 30.8174L86.8683 30.5871C86.8947 30.2799 86.8291 30.0808 86.7578 29.7801L86.8184 29.4912Z" fill="#ECECEB"/>
<path d="M88.0979 29.4944L88.1848 29.4131C88.753 29.5227 88.656 29.7013 89.1629 29.6011C89.0667 29.7391 89.0061 29.7941 88.9918 29.9552C88.1478 30.0286 88.8599 30.9469 87.5703 30.7882C87.7043 30.7368 87.745 30.7107 87.8683 30.6351L87.9246 30.3874C88.2383 30.021 88.224 29.9566 88.0979 29.4944Z" fill="#D6D5D5"/>
<path d="M87.3672 30.0833C87.4378 29.822 87.5682 29.5807 87.7486 29.3789C87.8655 29.4149 87.981 29.4535 88.0965 29.4945C88.2227 29.9567 88.2369 30.0211 87.9232 30.3875C87.7115 30.3247 87.5511 30.2041 87.3672 30.0833Z" fill="#848A84"/>
<path d="M86.4824 28.8359L86.8146 28.937C87.0292 29.0383 87.3257 29.1418 87.4455 29.3219C87.3378 29.4632 87.2102 29.5045 87.0299 29.5263L86.8196 29.4916C86.4146 29.2352 86.4588 29.3297 86.2578 28.9326L86.4824 28.8359Z" fill="#848A84"/>
<path d="M87.9885 28.425C87.9635 28.523 87.9015 28.6422 87.8573 28.7376L87.7354 28.7818L87.6199 28.678C87.4894 28.3863 87.4688 28.2065 87.7005 27.9902C87.8224 28.1531 87.8872 28.2425 87.9885 28.425Z" fill="#97A395"/>
<path d="M84.4453 28.7434C84.5872 28.5455 84.6093 28.4649 84.652 28.2319L84.7618 28.1836C84.9422 28.3843 84.9992 28.4382 85.1211 28.682C85.2288 28.716 85.3122 28.7603 85.4127 28.7228C85.7356 29.1139 85.8511 28.8463 86.2603 28.9334C86.4614 29.3305 86.4172 29.236 86.8221 29.4924L86.7615 29.7813C86.8328 30.082 86.8984 30.2811 86.872 30.5882C86.626 30.4606 86.3815 30.2585 86.1598 30.0869C85.5075 29.7248 85.1083 28.7511 84.4453 28.7434Z" fill="#C8C9C5"/>
<path d="M86.1562 30.0865C86.2667 29.9366 86.3088 29.7905 86.363 29.6146C86.5491 29.5826 86.5605 29.6459 86.7579 29.7808C86.8292 30.0816 86.8948 30.2806 86.8684 30.5878C86.6225 30.4601 86.378 30.258 86.1562 30.0865Z" fill="#B5B6B2"/>
<path d="M90.6701 27.4912C90.9067 28.1925 91.1798 30.0123 92.2142 29.4845L92.2035 30.0799C92.0495 30.0301 91.8977 29.9767 91.7465 29.9198C91.2561 29.733 90.6237 29.1183 90.4427 28.6345C90.2937 28.2383 90.2922 28.2601 90.4255 27.927C90.4291 27.9219 90.566 27.6356 90.6701 27.4912Z" fill="#5F725B"/>
<path d="M86.8253 25.7373C87.2223 26.2425 87.3542 27.0174 87.0441 27.5947C86.8238 27.7669 86.9094 27.7459 86.6805 27.7665C86.5116 27.6854 86.5522 27.7315 86.4531 27.59L86.5451 27.479C86.8566 27.4025 86.8744 27.4348 86.9892 27.1505C86.8937 26.8255 86.7041 26.9232 86.5351 26.6477C86.3362 26.3249 86.5622 26.2383 86.7725 26.0726C86.7932 25.9413 86.811 25.8296 86.8253 25.7373Z" fill="#B5B6B2"/>
<path d="M85.4155 28.7225C85.7948 28.2831 85.6451 28.2534 85.3984 27.7346L85.4505 27.7168C86.261 28.2841 85.9039 28.3665 86.4877 28.8365L86.2632 28.9331C85.854 28.846 85.7385 29.1136 85.4155 28.7225Z" fill="#97A395"/>
<path d="M91.6221 27.4219L91.7419 27.4462C91.8103 27.6695 91.8738 28.1041 91.9928 28.1941L92.0641 28.1923C92.278 28.1879 92.3678 28.1738 92.5482 28.2989L92.6045 28.4324C92.5189 28.6194 92.3785 28.8773 92.3678 29.0695C92.2773 28.7906 91.5337 28.1594 91.4453 27.8396C91.5601 27.6789 91.595 27.6181 91.6221 27.4219Z" fill="#5F725B"/>
<path d="M89.8906 26.7412C90.2392 27.0262 90.3704 27.1617 90.6691 27.4916C90.565 27.636 90.4281 27.9223 90.4246 27.9274C90.4274 27.7865 90.0168 27.1156 89.8906 26.7412Z" fill="#848A84"/>
<path d="M87.114 25.0028C87.0099 24.7922 86.9721 24.6346 87.0819 24.4335C87.4825 24.2735 88.0671 24.6843 88.3729 24.9179C88.5825 25.0407 88.8356 25.11 88.8192 25.3867C88.9297 25.6996 89.1072 25.8944 89.3111 26.1529C88.4399 25.7631 88.4143 25.9616 87.7477 25.8205C87.6935 25.8145 87.5581 25.7714 87.4989 25.7545C87.29 25.5808 87.2679 25.2682 87.114 25.0028Z" fill="#848A84"/>
<path d="M88.3752 24.918C88.5848 25.0408 88.8379 25.1101 88.8215 25.3868C88.932 25.6997 89.1095 25.8945 89.3134 26.1531C88.4422 25.7632 88.4166 25.9617 87.75 25.8206L87.8334 25.6332C87.8498 25.4452 87.8641 25.4265 87.991 25.2858C88.1093 25.1979 88.2668 25.0273 88.3752 24.918Z" fill="#848A84"/>
<path d="M88.3777 24.918C88.5873 25.0408 88.8404 25.1101 88.824 25.3868C88.3257 25.2843 88.4811 25.6554 87.8359 25.6332C87.8523 25.4452 87.8666 25.4265 87.9935 25.2858C88.1118 25.1979 88.2694 25.0273 88.3777 24.918Z" fill="#D6D5D5"/>
<path d="M87.1172 25.0029C87.4708 25.0211 87.701 25.0602 87.9919 25.2858C87.865 25.4265 87.8508 25.4451 87.8344 25.6332L87.7509 25.8205C87.6968 25.8146 87.5613 25.7715 87.5022 25.7546C87.2933 25.5809 87.2712 25.2683 87.1172 25.0029Z" fill="#B5B6B2"/>
<path d="M88.3516 27.8525C88.847 27.8989 88.8442 28.37 89.6554 28.3944C90.0119 28.8107 90.1017 28.9488 90.265 29.4747C90.0126 29.3796 89.741 29.0316 89.5471 28.8199L89.5043 28.809C88.8085 28.6275 88.6738 28.5706 88.3516 27.8525Z" fill="#97A395"/>
<path d="M76.8448 17.4365L77.1364 17.5827L77.7737 17.7592C78.5943 18.1215 82.1438 19.3976 82.5501 19.8299C82.101 20.1876 81.4708 19.7149 81.0737 19.7839C79.4098 20.0731 78.292 20.3096 76.6018 20.2738C76.5782 19.9108 76.6018 19.4294 76.6096 19.0574C76.3943 19.3636 76.1198 19.8678 76.0207 20.2278C76.1819 20.3478 76.204 20.3681 76.3194 20.5323L76.2653 20.6096L76.0913 20.5388C75.6358 19.8181 76.894 18.5244 76.9632 18.1465C76.8584 17.9212 76.2938 17.6709 76.0343 17.5283C76.3052 17.627 76.6901 17.8582 76.8905 17.6087L76.8448 17.4365Z" fill="#879785"/>
<path d="M76.8448 17.4365L77.1364 17.5827L77.7737 17.7592C77.654 17.8968 76.8826 19.6212 76.8484 19.8506C78.2885 19.9632 80.2845 19.428 81.8059 19.6379C82.0917 19.6774 82.2143 19.8772 82.5501 19.8299C82.101 20.1876 81.4708 19.7149 81.0737 19.7839C79.4098 20.0731 78.292 20.3096 76.6018 20.2738C76.5782 19.9108 76.6018 19.4294 76.6096 19.0574C76.3943 19.3636 76.1198 19.8678 76.0207 20.2278C76.1819 20.3478 76.204 20.3681 76.3194 20.5323L76.2653 20.6096L76.0913 20.5388C75.6358 19.8181 76.894 18.5244 76.9632 18.1465C76.8584 17.9212 76.2938 17.6709 76.0343 17.5283C76.3052 17.627 76.6901 17.8582 76.8905 17.6087L76.8448 17.4365Z" fill="#5F725B"/>
<path d="M68.1589 18.9656C68.0316 18.6084 67.9167 18.3188 68.311 18.1113C69.3665 18.1709 70.9702 19.5685 71.5684 19.7585C71.5855 19.7992 71.6261 19.884 71.6325 19.9226L71.6411 20.0242C71.3894 20.1635 70.538 20.4201 70.4304 20.5761C70.5777 20.9457 70.7187 20.9325 70.7252 21.2619L70.6211 21.3749C70.3279 21.3481 70.1013 21.0578 69.9828 20.8C69.8579 20.6054 69.6045 20.4444 69.4121 20.3035L69.0436 19.9592C68.6345 19.6255 68.374 19.445 68.1589 18.9656Z" fill="#5A7258"/>
<path d="M71.6341 19.9229L71.6426 20.0244C71.391 20.1637 70.5396 20.4203 70.432 20.5764C70.5793 20.9459 70.7202 20.9327 70.7267 21.2621L70.6226 21.3752C70.3294 21.3483 70.1029 21.058 69.9844 20.8002C70.0835 20.7899 70.1407 20.7511 70.2342 20.708C70.3406 20.4833 70.3636 20.4059 70.5521 20.2409C70.9307 20.1081 71.2358 19.9887 71.6341 19.9229Z" fill="#3F593D"/>
<path d="M68.1562 18.9658C68.3919 18.8594 68.2885 18.881 68.5761 18.9182C68.9225 19.1574 69.0932 19.5434 69.0409 19.9594C68.6319 19.6257 68.3714 19.4452 68.1562 18.9658Z" fill="#5F725B"/>
<path d="M69.4141 20.3039C69.8054 20.1248 70.0717 20.2384 70.5526 20.2411C70.3641 20.4061 70.341 20.4835 70.2347 20.7082C70.1411 20.7513 70.0839 20.7901 69.9848 20.8004C69.8599 20.6059 69.6065 20.4448 69.4141 20.3039Z" fill="#535D50"/>
<path d="M90.5945 22.9014C90.8119 22.915 91.1035 23.0657 91.3045 23.1621C92.6562 23.8086 94.072 24.3103 95.4963 24.7742C95.3224 24.9338 93.5252 24.0626 93.0867 24.1337L93.0561 24.2541L93.25 24.5048C93.4582 24.6029 94.0114 24.8737 94.216 24.9405C94.6337 25.0769 95.1242 25.1307 95.502 25.438C94.2423 25.016 93.198 24.5635 92.0053 23.9949C91.4941 23.7512 90.7684 23.769 90.3984 23.3315C90.407 23.0693 90.407 23.144 90.5945 22.9014Z" fill="#5A7258"/>
<path d="M71.4062 15.1813C72.035 15.1462 71.9659 15.256 72.4941 15.4584C73.9634 16.0208 75.5125 16.7696 76.9632 17.3302L77.1365 17.5821L76.8449 17.436C76.343 17.2126 75.4476 16.7193 74.9671 16.5749C74.8452 16.7334 74.7697 16.8674 74.5786 16.9296C74.3027 16.8889 73.4572 16.5624 73.1835 16.3987C73.1165 16.3584 73.068 16.0628 72.8163 15.9288C72.7037 16.0139 72.5925 16.1006 72.4827 16.189C72.3466 15.8021 72.6281 16.0223 72.5839 15.5413C72.3523 15.3346 71.9388 15.3186 71.6629 15.4427L71.4062 15.1813Z" fill="#5A7258"/>
<path d="M82.1079 25.7473C82.0822 25.5372 82.0887 25.3814 81.9311 25.2385C81.7308 25.2201 81.646 25.2275 81.4863 25.0979C81.3993 24.7927 81.5597 24.7519 81.616 24.4823C81.6367 24.3811 81.4905 24.2159 81.5939 23.9854C81.9325 24.0549 82.0388 24.2287 82.1977 24.5131C82.1963 24.7317 82.1699 24.9229 82.3004 25.0987C82.0958 25.3738 82.1557 25.3597 82.1079 25.7473Z" fill="#D6D5D5"/>
<path d="M70.2646 16.3086C70.5114 16.3552 70.7973 16.4237 70.9402 16.6432C71.0018 16.8609 70.9626 16.9203 70.8804 17.1237C70.7384 17.1602 70.603 17.1823 70.4591 17.2079C70.0727 17.002 70.1514 16.6913 70.2646 16.3086Z" fill="#293E28"/>
<path d="M71.6673 15.4427C71.884 15.671 72.1834 15.6184 72.3253 15.8903L72.2504 15.9521L72.0708 15.9217C72.0045 15.8246 71.9574 15.7509 71.8983 15.6493C71.6495 15.5509 71.2916 15.6764 70.9346 15.6688C70.7466 15.4299 70.8187 15.1265 71.0638 14.9512C71.3037 15.0179 71.2141 14.9735 71.4106 15.1813L71.6673 15.4427Z" fill="#5F725B"/>
<path d="M35.9672 40.9523C35.9271 41.1299 35.902 41.2896 35.82 41.4518C35.7507 41.7253 35.5679 42.3553 35.5744 42.605C35.6294 42.8164 35.6114 42.9113 35.7534 43.0231L35.7614 42.9924C36.2523 43.7984 36.5441 44.0867 37.2315 44.7484C37.8772 45.4208 38.2486 46.1115 38.8554 46.7698C39.1081 47.0439 40.6246 47.9994 40.7737 48.2902C40.3513 48.2799 40.0376 47.7917 39.793 47.9718C39.9114 48.4734 40.497 48.507 40.4214 48.8431C41.009 49.781 41.9589 50.6562 42.647 51.6297C43.3253 52.5896 44.1541 53.8212 44.8002 54.8398C44.8001 54.8396 45.156 54.9503 45.208 54.9667C37.4194 54.8321 29.5916 55.2504 21.8499 54.1444C19.6384 53.8284 17.5638 53.5839 15.3898 53.0108C14.1039 52.9845 11.0146 51.983 9.6677 51.6794C9.53995 51.6506 9.49183 51.3367 9.45312 51.194C10.5825 49.6191 10.3124 47.399 12.4964 46.4372C12.6714 46.32 12.8456 46.301 13.0535 46.2558C13.2342 46.21 13.5594 45.9993 13.7399 45.99C15.5644 45.8963 16.4203 44.8751 18.3085 44.8768C18.7784 44.8772 20.7469 44.54 21.0035 44.3821C22.205 43.6425 23.6847 44.0252 25.0311 43.6523C26.8079 42.8002 28.1541 43.0412 30.0175 42.6874C30.517 42.6099 31.3155 42.1672 31.7711 42.1077C33.2843 41.9098 34.4735 40.8981 35.9672 40.9523Z" fill="#4D674B"/>
<path d="M35.9762 40.9523C35.9361 41.1299 35.911 41.2896 35.8289 41.4518C35.7597 41.7253 35.5769 42.3553 35.5834 42.605C35.6384 42.8164 35.6204 42.9113 35.7624 43.0231L35.7704 42.9924C36.2613 43.7984 36.5531 44.0867 37.2405 44.7484C37.8862 45.4208 38.2576 46.1115 38.8644 46.7698C39.1171 47.0439 40.6335 47.9994 40.7827 48.2902C40.3603 48.2799 40.0466 47.7917 39.802 47.9718C39.9204 48.4734 40.506 48.507 40.4304 48.8431C40.2455 48.7628 39.5275 48.1422 39.346 47.9841C39.1137 48.0776 38.891 48.1888 38.6654 48.2976C38.7054 48.4143 38.7873 48.6685 38.7522 48.7791C38.6675 49.0459 38.2647 49.3137 38.0249 49.4305C35.0459 50.8809 34.3814 48.5571 31.8836 47.8608C30.0428 47.3476 27.3925 47.4986 25.4468 47.447C22.6247 47.3723 19.8458 47.3954 17.0271 47.203C15.8976 47.1259 14.6444 47.0324 13.5421 46.7481C13.2792 46.6803 13.1699 46.4819 13.0625 46.2558C13.2432 46.21 13.5684 45.9993 13.7489 45.99C15.5734 45.8963 16.4293 44.8751 18.3175 44.8768C18.7874 44.8772 20.7559 44.54 21.0125 44.3821C22.214 43.6425 23.6937 44.0252 25.0401 43.6523C26.8169 42.8002 28.1631 43.0412 30.0264 42.6874C30.526 42.6099 31.3245 42.1672 31.7801 42.1077C33.2933 41.9098 34.4825 40.8981 35.9762 40.9523Z" fill="#FBFBFA"/>
<path d="M35.5787 42.6045C35.6336 42.8159 35.6157 42.9108 35.7576 43.0226L35.7657 42.9919C36.2565 43.7979 36.5483 44.0862 37.2357 44.7479C37.8814 45.4203 38.2529 46.111 38.8597 46.7693C39.1123 47.0434 40.6288 47.9989 40.7779 48.2897C40.3555 48.2795 40.0419 47.7912 39.7973 47.9713C39.9157 48.4729 40.5012 48.5065 40.4257 48.8426C40.2407 48.7623 39.5227 48.1417 39.3412 47.9836C39.1089 48.0771 38.8862 48.1883 38.6606 48.2971C38.2722 47.5088 37.8663 46.6407 37.345 45.9343C36.5185 44.8144 35.2724 44.1805 35.5787 42.6045Z" fill="#5B755B"/>
<path d="M9.45312 51.1943C10.5825 49.6194 10.3124 47.3993 12.4964 46.4375C12.2708 46.7789 11.5948 47.1249 11.7099 47.4708C11.985 48.2986 12.8642 49.3721 13.5093 49.9314L13.0817 50.8926C12.901 50.9967 12.7215 51.0927 12.5923 51.2553C12.2318 51.7087 11.6911 51.167 11.4188 51.7333C11.7763 52.509 14.7763 52.5468 15.3714 52.9245L15.3898 53.0111C14.1039 52.9848 11.0146 51.9833 9.6677 51.6797C9.53995 51.6509 9.49183 51.337 9.45312 51.1943Z" fill="#3F593D"/>
<path d="M100.786 36.0384C101.151 35.9226 102.429 35.7077 102.963 35.5684L102.966 35.7857L103.071 36.1204C103.731 39.8726 103.698 43.9118 103.995 47.7196C104.103 49.1055 103.88 50.6548 104.048 52.0386C104.068 52.2619 104.093 52.6703 104.16 52.8653C100.631 53.032 96.9281 52.9024 93.3402 53.0455C91.3127 53.125 89.2874 53.2357 87.2642 53.3776C86.1457 53.4537 84.5944 53.6073 83.503 53.6092C83.0752 53.3981 82.7167 53.4588 82.2761 53.541C81.9603 52.6853 83.5436 51.7723 83.468 51.2731C83.0988 51.0349 83.1708 51.0703 83.2178 50.6681C83.2535 50.5183 83.7275 49.4765 83.8423 49.2226C84.568 47.6139 85.2453 45.7229 86.0373 44.1797C86.2248 43.8042 86.3068 43.6181 86.4501 43.2212L86.48 43.1244C86.6753 42.6698 86.7516 42.4745 87.0432 42.0701L87.0396 42.0066L86.8029 41.9509C86.0886 41.9417 85.9575 41.5432 86.1735 40.9206C86.9705 40.5506 86.8664 40.2927 87.6306 40.2692C87.8523 40.3397 87.7853 40.3196 88.0477 40.2118C88.1867 40.0728 88.2808 40.0516 88.4618 39.9792C88.2487 39.8179 88.3086 39.4518 88.4526 39.2554C89.5633 39.4188 93.8713 37.6505 95.2136 37.2645C96.2587 36.964 97.6546 36.7733 98.6384 36.3738L98.9513 36.6187L99.2108 36.5233C99.6093 36.2983 100.32 36.1522 100.786 36.0384Z" fill="#3F593D"/>
<path d="M100.785 36.0384C101.151 35.9226 102.428 35.7077 102.962 35.5684L102.965 35.7857C102.7 36.1523 100.167 37.0653 99.5765 37.2517C98.9371 37.5354 98.3347 37.8285 97.6353 37.9051C97.4564 38.1851 97.4122 38.2532 97.1691 38.475C96.6351 38.5342 96.69 38.6125 96.0171 38.6253C95.7198 38.6925 95.3833 38.7397 95.1459 38.9224L94.8928 39.0079L94.8864 39.0565C94.8565 39.2648 94.8365 39.3324 94.7695 39.5331C94.855 39.7291 94.7959 39.6621 95.0204 39.7716C94.788 39.8744 93.2503 40.5812 93.1377 40.6699C93.4228 40.7963 93.5526 40.8132 93.8627 40.8694C92.5082 41.2179 92.1026 41.5825 90.5934 41.8222C89.9732 41.8568 88.9252 41.939 88.5246 42.4654C88.1175 42.4691 87.7696 42.1422 87.4217 41.8964L87.0389 42.0066L86.8022 41.9509C86.0879 41.9417 85.9567 41.5432 86.1728 40.9206C86.9698 40.5506 86.8657 40.2927 87.6299 40.2692C87.8516 40.3397 87.7846 40.3196 88.0469 40.2118C88.1859 40.0728 88.2801 40.0516 88.4611 39.9792C88.248 39.8179 88.3079 39.4518 88.4519 39.2554C89.5625 39.4188 93.8705 37.6505 95.2129 37.2645C96.258 36.964 97.6539 36.7733 98.6376 36.3738L98.9506 36.6187L99.2101 36.5233C99.6086 36.2983 100.319 36.1522 100.785 36.0384Z" fill="#ECECEB"/>
<path d="M87.4219 41.8963C87.9437 41.6988 88.4876 41.3372 89.0644 41.1577C90.1145 40.831 91.3399 40.5616 92.3565 40.1421C93.3025 39.7519 93.8286 39.2928 94.893 39.0078L94.8866 39.0564C94.8566 39.2647 94.8367 39.3322 94.7696 39.533C94.8552 39.729 94.796 39.662 95.0206 39.7715C94.7882 39.8743 93.2505 40.5811 93.1378 40.6698C93.423 40.7962 93.5527 40.8131 93.8628 40.8693C92.5084 41.2178 92.1027 41.5824 90.5935 41.8221C89.9733 41.8567 88.9254 41.9389 88.5247 42.4653C88.1177 42.469 87.7698 42.1421 87.4219 41.8963Z" fill="#5F725B"/>
<path d="M88.4581 39.2557C89.5688 39.4191 93.8768 37.6507 95.2191 37.2647C96.2642 36.9642 97.6601 36.7735 98.6439 36.374L98.9568 36.619C97.8469 37.0595 96.3605 37.1427 95.2997 37.4837C93.017 38.2178 90.7301 39.1673 88.4674 39.9794C88.2542 39.8181 88.3141 39.4521 88.4581 39.2557Z" fill="#B5B6B2"/>
<path d="M100.786 36.0384C101.151 35.9226 102.429 35.7077 102.963 35.5684L102.966 35.7857C102.701 36.1523 100.168 37.0653 99.5774 37.2517C99.9752 36.7386 101.814 36.4229 102.233 36.0371C101.731 35.7467 99.8932 36.5956 99.2109 36.5233C99.6094 36.2983 100.32 36.1522 100.786 36.0384Z" fill="#C8C9C5"/>
<path d="M96.0234 38.6254C96.561 38.1498 96.9203 37.9716 97.6417 37.9053C97.4628 38.1852 97.4186 38.2533 97.1755 38.4751C96.6415 38.5343 96.6964 38.6127 96.0234 38.6254Z" fill="#97A395"/>
<path d="M94.5295 40.7521C95.5325 40.4938 96.2975 40.4261 97.3005 40.7202C97.3205 41.8475 97.2934 43.2598 97.1159 44.3675C95.6844 44.1423 89.3981 43.3592 88.5669 42.5446L88.5312 42.4651C88.9319 41.9387 89.9798 41.8565 90.6001 41.8219C92.1092 41.5823 92.5149 41.2176 93.8694 40.8692C94.0996 40.7973 94.2907 40.7813 94.5295 40.7521Z" fill="#E4E5E3"/>
<path d="M94.0885 41.7237C94.8492 41.6309 95.7004 41.4385 96.4354 41.3848L96.4411 43.3927C95.6505 43.2503 94.1727 43.1782 93.6016 42.6396C93.0149 42.4935 91.6412 42.7595 91.1144 42.4937C90.9917 42.2732 90.9782 42.1698 90.9219 41.9259C91.4295 41.9845 93.6587 41.9122 94.0885 41.7237Z" fill="#5A7258"/>
<path d="M93.8631 40.87C94.0933 40.7981 94.2844 40.7822 94.5232 40.7529C94.1767 40.991 92.7973 41.2727 92.0609 41.6731C92.7118 41.8033 93.8823 41.6015 94.0869 41.7238C93.657 41.9124 91.4278 41.9847 90.9203 41.9261C90.8868 41.9028 90.6494 41.8388 90.5938 41.8228C92.1029 41.5831 92.5086 41.2184 93.8631 40.87Z" fill="#B5B6B2"/>
<path d="M96.021 38.6259C96.694 38.6132 96.6391 38.5348 97.173 38.4756L97.0647 38.5747C97.2593 38.7813 97.2978 38.5622 97.3527 38.8794L97.2614 39.1137C96.6505 39.2646 96.4288 39.2956 95.8356 39.553C95.5968 39.6263 95.2618 39.741 95.0244 39.7723C94.7998 39.6628 94.859 39.7297 94.7734 39.5337C94.8404 39.333 94.8604 39.2654 94.8904 39.0572L94.8968 39.0085L95.1498 38.9231C95.3872 38.7404 95.7237 38.6932 96.021 38.6259Z" fill="#5A7258"/>
<path d="M94.8968 39.0083L95.1498 38.9229C95.3402 39.2759 95.4899 39.3404 95.8356 39.5528C95.5968 39.6261 95.2618 39.7408 95.0244 39.7721C94.7998 39.6626 94.859 39.7295 94.7734 39.5335C94.8404 39.3328 94.8604 39.2652 94.8904 39.0569L94.8968 39.0083Z" fill="#7C8D76"/>
<path d="M87.0391 42.0067L87.4219 41.8965C87.7698 42.1423 88.1177 42.4692 88.5247 42.4654L88.5604 42.5449C88.2332 42.6237 87.968 42.842 87.635 42.7497C87.496 42.5012 87.3028 42.2015 87.0426 42.0702L87.0391 42.0067Z" fill="#5A7258"/>
<path d="M86.6502 44.9014C86.9275 45.0389 86.9417 45.0377 87.0002 45.3212C86.9624 45.5924 86.6045 45.9244 86.4064 46.1453C86.3265 46.2139 86.3736 46.1861 86.2388 46.1893L86.1875 46.0655C86.3344 45.6639 86.437 45.2583 86.6502 44.9014Z" fill="#5F725B"/>
<path d="M65.051 23.0059C65.084 23.5174 64.9952 23.9232 65.0606 24.4485C65.6504 24.415 66.4805 24.8113 66.7437 25.3497C66.7997 25.3735 69.2418 26.8724 69.2309 26.8627C70.163 27.3 69.8655 26.5218 70.1689 26.1376C70.2844 26.1335 70.3713 26.1899 70.4784 26.2405C71.244 26.4843 71.0673 27.5183 72.1123 27.7375L72.1772 27.6612C72.1301 27.3913 72.0446 27.0566 72.1159 26.8024C72.4894 26.3227 72.8908 26.6965 73.4397 26.6611L73.1995 27.3814C73.064 28.7953 73.1182 29.8062 72.3304 30.9921L72.021 31.8242C71.6225 32.1273 71.4215 32.3392 71.0726 32.6987C71.2836 32.8296 71.403 32.8457 71.4636 33.0349L71.4244 33.1254C71.331 33.0956 71.0335 33.0103 70.9535 33.029C68.2325 33.668 65.4087 33.4671 62.6661 33.8957C58.2556 35.2038 56.9959 39.4137 52.3372 40.1922C52.1775 40.1465 51.1984 40.3215 50.9923 40.3691L50.9619 40.3764C50.8083 40.2535 50.7569 40.2291 50.7147 40.041C51.0101 39.5478 51.6516 39.8269 52.0225 39.4446C51.6928 39.5114 51.0022 39.5977 50.7356 39.7005C50.6912 39.8028 50.6591 39.8722 50.6284 39.9814L50.639 40.0257C50.6754 40.1749 50.6752 40.2006 50.7557 40.3263L50.7117 40.4067C50.555 40.3811 50.4994 40.3702 50.349 40.3208L50.2464 40.4058L50.041 40.4595C49.9248 40.3672 49.8972 40.3415 49.7995 40.2298C49.5715 40.236 49.5458 40.3624 49.3757 40.4792C48.0234 41.4071 46.2961 42.0644 44.8267 42.7253C43.5679 43.0898 41.7554 44.1783 40.9815 44.3158C40.6293 44.5275 40.3239 44.7099 39.9193 44.8182C38.9308 44.863 39.3415 45.267 38.5485 45.6505C38.0666 45.195 38.3186 45.1763 37.4726 44.5938L37.2353 44.748C36.548 44.0863 36.2562 43.798 35.7653 42.992L35.7572 43.0227C35.6153 42.9109 35.6333 42.816 35.5783 42.6046C35.5718 42.3549 35.7545 41.7249 35.8238 41.4514C35.9059 41.2892 35.931 41.1295 35.9711 40.9519C36.1343 40.6936 36.5296 40.3042 36.7248 40.0705C38.0818 38.4462 39.8058 38.5365 41.6228 37.9736C41.7663 37.9292 43.2605 36.9704 43.7517 36.7277C43.9506 36.5611 43.9869 36.438 44.2537 36.2587C45.0528 35.7395 45.5995 35.8807 46.1429 35.1303C47.1357 34.85 47.7595 34.3191 48.7243 34.0142C49.1361 33.884 49.9244 34.0286 50.2811 33.8604C50.6626 33.6805 50.7194 33.227 51.1885 32.9534L51.2411 32.9234C52.1062 32.7044 53.2347 31.1675 54.1039 31.5507C54.2888 31.6345 54.4385 31.7026 54.6307 31.7705C54.7658 31.6245 54.6268 31.3863 54.6671 31.0034L54.6735 30.9457C55.01 30.3992 55.651 29.1234 56.3059 29.0482C56.8179 28.9427 57.2512 28.3076 57.9348 28.193L58.501 27.7847C58.884 27.0897 58.915 26.9597 58.9622 26.1696C60.8356 23.7873 62.9107 24.2561 65.051 23.0059Z" fill="#5A7258"/>
<path d="M49.9726 35.4084C49.8113 36.4171 49.4822 37.5181 49.9446 38.4868C50.0395 38.0698 49.8182 37.7896 49.8223 37.4132C49.8292 36.7858 50.0848 36.1481 50.0537 35.5094C50.0495 35.4237 50.2561 35.3285 50.3185 35.3037C50.3897 35.6567 50.1377 36.1315 50.197 36.6131C50.2916 37.3816 50.2535 38.2114 50.4475 38.976C50.5494 39.3775 50.6456 39.5558 50.6284 39.9816L50.639 40.0259C50.6754 40.1751 50.6752 40.2008 50.7557 40.3265L50.7117 40.4069C50.555 40.3813 50.4994 40.3704 50.349 40.321L50.2464 40.406L50.041 40.4597C49.9248 40.3674 49.8972 40.3417 49.7995 40.23C49.5715 40.2362 49.5458 40.3626 49.3757 40.4794C48.0234 41.4073 46.2961 42.0646 44.8267 42.7255C43.5679 43.09 41.7554 44.1785 40.9815 44.316C40.6293 44.5277 40.3239 44.7101 39.9193 44.8184C38.9308 44.8632 39.3415 45.2672 38.5485 45.6507C38.0666 45.1952 38.3186 45.1765 37.4726 44.594L37.2353 44.7482C36.548 44.0865 36.2562 43.7982 35.7653 42.9922L35.7572 43.0229C35.6153 42.9111 35.6333 42.8162 35.5783 42.6048C35.5718 42.3551 35.7545 41.7251 35.8238 41.4516C35.9059 41.2894 35.931 41.1297 35.9711 40.9521C36.1343 40.6938 36.5296 40.3044 36.7248 40.0707C38.0818 38.4464 39.8058 38.5367 41.6228 37.9738C41.7663 37.9294 43.2605 36.9706 43.7517 36.7279C43.9506 36.5613 43.9869 36.4382 44.2537 36.2589L44.5334 36.4354C44.5417 36.6301 44.5107 36.7212 44.4679 36.908C44.7598 36.7437 44.9013 36.5828 45.2288 36.7896C45.2519 37.2173 44.6958 37.3943 44.986 37.6268C45.1686 37.7731 45.5856 38.1367 45.779 38.2325C45.8269 38.1623 45.8838 38.1206 45.9479 38.0628C46.2687 38.0009 46.3365 38.2286 46.5418 38.2806C46.8475 38.358 47.3617 37.8734 47.7807 37.7545C47.6192 37.3317 47.2847 37.0881 47.1558 36.6392L47.2708 36.5184C48.4453 36.3095 49.061 35.808 49.9726 35.4084Z" fill="#566F54"/>
<path d="M47.7829 37.7549C48.2255 39.0546 47.236 38.9991 46.2608 38.8283L45.7812 38.2329C45.8292 38.1627 45.886 38.1209 45.9501 38.0632C46.2709 38.0013 46.3387 38.229 46.544 38.281C46.8497 38.3584 47.3639 37.8738 47.7829 37.7549Z" fill="#293E28"/>
<path d="M35.5783 42.6053C35.5718 42.3556 35.7545 41.7256 35.8238 41.4521C35.8667 42.7568 36.8549 43.6739 37.4726 44.5945L37.2353 44.7487C36.548 44.0871 36.2562 43.7988 35.7653 42.9927L35.7572 43.0234C35.6153 42.9117 35.6333 42.8168 35.5783 42.6053Z" fill="#A0B59A"/>
<path d="M44.252 36.2588L44.5317 36.4353C44.54 36.63 44.509 36.721 44.4662 36.9079C44.2696 37.0637 44.3634 37.0209 44.0918 37.0505C43.8256 36.9169 43.9119 36.9839 43.75 36.7278C43.9488 36.5612 43.9852 36.4381 44.252 36.2588Z" fill="#293E28"/>
<path d="M39.9184 44.8181C39.8725 44.6846 39.8893 44.7195 39.9269 44.5587C40.1726 44.278 40.3403 44.1749 40.7041 44.1035C40.926 44.1808 40.8533 44.1236 40.9807 44.3157C40.6285 44.5274 40.3231 44.7098 39.9184 44.8181Z" fill="#7C8D76"/>
<path d="M38.9629 40.7373C39.1871 40.7352 39.6383 40.8114 39.8773 40.8448L40.3164 41.647C40.0526 41.9113 39.8668 42.1981 39.546 42.3921C39.4536 42.4027 39.361 42.4101 39.2681 42.4144C38.7013 42.4385 38.1711 41.7499 38.1562 41.1687C38.2761 40.9686 38.7326 40.8285 38.9629 40.7373Z" fill="#2B412A"/>
<path d="M43.9253 39.7432L44.1294 39.7715C44.2166 39.8306 44.2908 39.8837 44.3459 39.9762C44.4472 40.1482 44.4749 40.3537 44.4224 40.5462C44.2561 41.1585 43.7467 41.2409 43.2151 41.0689C42.8229 40.8075 42.6463 40.6053 42.3359 40.2587C43.1243 40.296 43.4619 40.4569 43.9253 39.7432Z" fill="#293E28"/>
<path d="M52.0266 39.4452C53.5635 38.854 54.6585 38.6298 56.1036 37.6516C57.7929 36.508 59.7019 34.0331 61.4386 33.2366C62.7096 32.6537 65.7606 32.0498 67.2066 32.0071C67.9987 31.9165 68.9814 31.9926 69.7435 31.8391C70.5998 31.6666 71.276 30.3068 72.3345 30.9927L72.0251 31.8248C71.6266 32.1279 71.4256 32.3398 71.0767 32.6994C71.2877 32.8302 71.4071 32.8463 71.4676 33.0355L71.4284 33.126C71.335 33.0962 71.0376 33.0109 70.9576 33.0296C68.2366 33.6686 65.4128 33.4677 62.6702 33.8963C58.2596 35.2045 57 39.4143 52.3413 40.1928C52.1816 40.1471 51.2025 40.3221 50.9964 40.3697L50.966 40.377C50.8124 40.2541 50.761 40.2297 50.7188 40.0416C51.0142 39.5484 51.6557 39.8276 52.0266 39.4452Z" fill="#3F593D"/>
<path d="M62.6641 33.8963C62.8026 33.7392 63.4296 33.3666 63.6302 33.2711C65.5012 32.381 67.6139 32.9023 69.6062 32.5291C69.8509 32.4832 71.0427 32.1939 71.1533 32.2319C70.8789 32.5252 70.7934 32.4005 70.6375 32.7228L70.6849 32.8408C70.9251 32.8315 70.8336 32.8492 71.0705 32.6994C71.2816 32.8303 71.4009 32.8463 71.4615 33.0355L71.4223 33.1261C71.3289 33.0963 71.0314 33.0109 70.9514 33.0297C68.2305 33.6686 65.4066 33.4677 62.6641 33.8963Z" fill="#677364"/>
<path d="M51.2451 32.924C52.1102 32.705 53.2388 31.1681 54.108 31.5513C54.3253 31.949 54.4594 31.9828 54.8966 32.1366L54.9666 32.2427C55.5311 32.2477 56.1934 32.8614 56.4788 32.823C55.9343 33.5561 55.7613 34.0282 56.9106 34.3583C55.1041 34.6743 54.2128 33.1763 52.5206 33.2686C52.3421 33.2784 52.1944 33.5588 52.1089 33.7065C51.9221 33.8481 51.8938 33.9567 51.8029 34.1674C51.5025 34.2471 51.4401 34.2133 51.2441 34.4013L51.2099 34.6214C50.9466 34.3416 50.9233 34.2906 50.5062 34.4588C50.2661 34.8342 50.5018 34.9264 50.3434 35.13C50.2241 35.0905 50.1174 35.0553 50.0009 35.0085C50.0359 35.24 50.0751 35.233 49.9767 35.4088C49.065 35.8084 48.4493 36.3099 47.2748 36.5188L47.1598 36.6396C47.2888 37.0885 47.6232 37.3321 47.7848 37.7549C47.3658 37.8738 46.8515 38.3584 46.5458 38.281C46.3405 38.229 46.2728 38.0013 45.952 38.0632C45.8878 38.121 45.831 38.1627 45.7831 38.2329C45.5897 38.1371 45.1727 37.7735 44.9901 37.6272C44.6999 37.3947 45.256 37.2177 45.2328 36.79C44.9054 36.5833 44.7639 36.7441 44.472 36.9084C44.5148 36.7216 44.5458 36.6305 44.5375 36.4358L44.2578 36.2593C45.0569 35.7401 45.6035 35.8813 46.147 35.131C47.1398 34.8506 47.7635 34.3198 48.7284 34.0148C49.1402 33.8846 49.9285 34.0292 50.2852 33.861C50.6666 33.6811 50.7234 33.2276 51.1925 32.954L51.2451 32.924Z" fill="#3F593D"/>
<path d="M65.05 23.0059C65.083 23.5174 64.9942 23.9232 65.0596 24.4485C65.1173 25.3064 65.1481 26.166 65.1521 27.0258L65.0902 27.1969C64.8966 27.3989 64.7088 27.3442 64.4546 27.2234C62.8106 26.4422 60.7115 25.6704 59.1583 27.1714C59.1325 27.1961 59.1072 27.2213 59.0824 27.2471C58.9181 27.4246 58.7083 27.6816 58.5 27.7847C58.883 27.0897 58.914 26.9597 58.9612 26.1696C60.8346 23.7873 62.9097 24.2561 65.05 23.0059Z" fill="#FBFBFA"/>
<path d="M56.3104 29.0485C56.8225 28.943 57.2558 28.3079 57.9394 28.1934C59.0834 28.4464 59.8919 28.6902 60.3453 29.8652C59.6031 29.861 57.4087 29.3515 57.0305 29.7142C57.1981 30.2121 58.6869 29.7738 59.062 30.3139L59.034 30.4788C58.6448 30.7128 55.9845 30.0962 55.8516 29.9486C56.0267 29.6123 56.3604 29.3247 56.3104 29.0485Z" fill="#3F593D"/>
<path d="M65.0625 24.4493C65.6523 24.4157 66.4824 24.812 66.7456 25.3504C66.99 25.6844 67.2454 26.0988 66.9676 26.46C66.6234 26.6604 65.677 26.6045 65.2649 26.5592L65.155 27.0265C65.151 26.1667 65.1202 25.3071 65.0625 24.4493Z" fill="#5F725B"/>
<path d="M59.0859 27.2473C59.1107 27.2216 59.136 27.1963 59.1618 27.1717C60.715 25.6707 62.8141 26.4424 64.4581 27.2236C64.7124 27.3445 64.9001 27.3991 65.0937 27.1972L65.2555 27.0558L65.3107 27.1479C65.1636 27.649 64.7839 27.7587 64.3645 27.4498C62.6627 27.524 63.1976 27.018 61.7718 26.8475C60.8811 26.7411 59.9947 27.538 59.0859 27.2473Z" fill="#697969"/>
<path d="M54.6712 30.9463C55.0077 30.3999 55.6487 29.124 56.3035 29.0488C56.3535 29.325 56.0198 29.6126 55.8447 29.9489C55.7197 30.3951 55.4293 31.9043 55.2198 32.1011C55.0668 32.1389 55.0487 32.1389 54.8902 32.1366C54.453 31.9828 54.3189 31.949 54.1016 31.5514C54.2865 31.6352 54.4361 31.7032 54.6284 31.7711C54.7635 31.6251 54.6245 31.387 54.6647 31.004L54.6712 30.9463Z" fill="#778A74"/>
<path d="M70.4766 26.2412C71.2421 26.4851 71.0654 27.5191 72.1104 27.7383L72.1753 27.6619C72.1283 27.3921 72.0427 27.0574 72.114 26.8031C72.4876 26.3234 72.8889 26.6972 73.4378 26.6619L73.1976 27.3821C71.8253 27.6198 72.3257 28.3561 71.7576 28.7205C71.4638 28.6975 71.5052 28.667 71.2268 28.483C71.4909 28.4701 71.6706 28.792 71.9714 28.5839L71.9964 28.407C71.8745 28.245 71.7797 28.3178 71.4817 28.2611C71.6178 28.1424 71.769 28.1493 71.9714 28.1099L71.9622 28.0011C71.214 27.6486 71.0817 26.9105 70.4766 26.2412Z" fill="#535D50"/>
<path d="M56.4777 32.8223C57.4577 32.4868 57.837 33.7226 56.9096 34.3577C55.7603 34.0275 55.9332 33.5555 56.4777 32.8223Z" fill="#293E28"/>
<path d="M51.7969 34.167C51.8878 33.9564 51.9161 33.8477 52.1028 33.7061C52.3302 33.7908 52.4401 33.8201 52.6347 33.9677L52.6514 34.0887C52.416 34.2091 52.0715 34.1724 51.7969 34.167Z" fill="#5F725B"/>
<path d="M69.7497 30.0765C69.207 30.4645 68.371 30.1191 67.8999 29.7047C67.7162 29.5431 67.7788 29.2364 67.8039 29.003C67.6608 28.8555 67.0573 28.678 66.7882 28.5617L66.7344 28.4253C66.8681 28.3343 67.1248 28.5652 67.3662 28.6274C68.1103 28.8189 69.1397 28.9011 69.8892 28.7181C70.0403 28.6812 70.0594 28.7335 70.1646 28.8269C70.2543 29.0879 70.1833 29.4586 70.1667 29.7598C70.0206 29.9492 69.9886 30.0139 69.7497 30.0765Z" fill="#293E28"/>
<path d="M67.7031 29.1738C68.3961 29.1965 69.6592 29.2753 70.1663 29.7595C70.0202 29.9489 69.9882 30.0136 69.7493 30.0762C68.6952 30.0725 68.3523 29.9933 67.7031 29.1738Z" fill="#21311D"/>
<path d="M61.1847 30.5848C61.5458 30.3489 61.9039 30.0919 62.2482 30.4277C62.3981 30.8106 62.2961 31.1356 62.1888 31.5276C61.751 32.1518 60.381 31.7277 60.2109 30.9171C60.3559 30.4867 60.7929 30.516 61.1847 30.5848Z" fill="#21311D"/>
<path d="M62.1888 31.5279C61.751 32.152 60.381 31.7279 60.2109 30.9174C60.3559 30.4869 60.7929 30.5162 61.1847 30.5851C60.526 31.5901 61.3447 31.792 62.1888 31.5279Z" fill="#293E28"/>
<path d="M51.4657 37.0861C51.1581 36.3708 51.3163 35.8782 52.1548 35.898C52.8217 36.0934 52.8565 36.3319 53.1369 36.9386C52.6171 37.678 52.053 38.1212 51.4657 37.0861Z" fill="#293E28"/>
<path d="M51.4657 37.0861C51.1581 36.3708 51.3163 35.8782 52.1548 35.898C51.9993 36.185 51.5605 36.8793 51.4657 37.0861Z" fill="#3F593D"/>
<path d="M50.6275 39.982C50.6582 39.8729 50.6903 39.8035 50.7347 39.7012C51.0012 39.5984 51.6919 39.5121 52.0215 39.4453C51.6507 39.8276 51.0091 39.5485 50.7137 40.0417C50.756 40.2298 50.8073 40.2542 50.9609 40.3771L50.9913 40.3698C51.1975 40.3222 52.1766 40.1472 52.3362 40.1929C51.8403 40.3792 51.3396 40.5526 50.8347 40.7132C50.7879 41.5979 50.7327 42.4263 50.9468 43.293C51.7868 45.8833 52.3479 47.6979 53.7885 50.0657C54.7435 51.6352 56.0076 53.3232 56.8696 54.8869C53.9492 54.8939 51.0473 55.043 48.1272 54.9568C47.4855 54.9379 46.0494 55.0532 45.5716 54.9935L45.2109 54.9669C45.1589 54.9505 44.803 54.8399 44.8031 54.8401C44.157 53.8215 43.3282 52.5899 42.6498 51.63C41.9618 50.6564 41.0119 49.7813 40.4243 48.8434C40.4999 48.5073 39.9143 48.4736 39.7959 47.9721C40.0405 47.792 40.3542 48.2802 40.7766 48.2905C40.6274 47.9996 39.111 47.0442 38.8583 46.7701C38.2515 46.1118 37.8801 45.4211 37.2344 44.7486L37.4716 44.5945C38.3176 45.177 38.0657 45.1957 38.5475 45.6512C39.3405 45.2677 38.9298 44.8637 39.9183 44.8189C40.323 44.7106 40.6284 44.5281 40.9805 44.3165C41.7545 44.179 43.5669 43.0905 44.8257 42.726C46.2951 42.0651 48.0224 41.4078 49.3747 40.4799C49.5449 40.3631 49.5705 40.2367 49.7986 40.2305C49.8962 40.3422 49.9238 40.3679 50.04 40.4602L50.2455 40.4065L50.348 40.3215C50.4984 40.3709 50.554 40.3818 50.7107 40.4074L50.7547 40.327C50.6742 40.2013 50.6744 40.1756 50.638 40.0264L50.6275 39.982Z" fill="#5A7258"/>
<path d="M40.4253 48.8428C40.5009 48.5067 39.9153 48.4731 39.7969 47.9715C40.0415 47.7914 40.3551 48.2797 40.7775 48.2899C41.0853 48.5272 41.3528 48.7344 41.6443 48.9943C42.2454 49.7482 45.7164 54.2767 45.6837 54.8916L45.5726 54.9929L45.2119 54.9664C45.1599 54.95 44.8039 54.8393 44.8041 54.8395C44.158 53.8209 43.3292 52.5893 42.6508 51.6294C41.9627 50.6559 41.0129 49.7807 40.4253 48.8428Z" fill="#3F593D"/>
<path d="M44.8281 42.726C46.2975 42.0651 48.0248 41.4078 49.3771 40.4798C49.5472 40.3631 49.5729 40.2367 49.801 40.2305C49.8986 40.3422 49.9262 40.3678 50.0424 40.4602L50.2479 40.4065L50.4605 40.5487L50.4262 40.6186C50.1974 40.6693 50.0176 40.6816 49.881 40.8728C49.8291 41.2654 49.9984 41.1885 49.9307 41.559L49.9803 41.6046C49.8762 41.9813 49.8772 42.2215 49.6505 42.4966L49.5473 42.5034C49.3493 42.1538 49.3866 41.4779 49.3893 41.0688C48.3465 42.089 46.4611 42.425 45.0891 42.8675C45.0006 42.8961 44.8889 42.783 44.8281 42.726Z" fill="#3C573C"/>
<path d="M50.6259 39.982C50.6566 39.8729 50.6887 39.8035 50.7331 39.7012C50.9997 39.5984 51.6903 39.5121 52.02 39.4453C51.6491 39.8276 51.0076 39.5485 50.7122 40.0417C50.7544 40.2298 50.8058 40.2542 50.9594 40.3771L50.9898 40.3698C51.1959 40.3222 52.175 40.1472 52.3347 40.1929C51.8387 40.3792 51.3381 40.5526 50.8331 40.7132C50.7864 41.5979 50.7312 42.4263 50.9453 43.293C50.8991 43.3803 50.8362 43.4001 50.7479 43.4473C50.3747 43.3751 49.448 43.2734 49.3203 42.9477C49.5648 42.7364 49.9629 42.9438 50.2518 42.6647C50.3312 42.4034 50.3236 42.1234 50.23 41.8667C50.1509 41.6501 50.1678 41.6947 49.9764 41.6046L49.9268 41.559C49.9944 41.1885 49.8252 41.2655 49.877 40.8728C50.0137 40.6816 50.1935 40.6693 50.4222 40.6186L50.4565 40.5487L50.2439 40.4065L50.3464 40.3215C50.4969 40.3709 50.5525 40.3818 50.7092 40.4074L50.7532 40.327C50.6727 40.2013 50.6729 40.1756 50.6364 40.0264L50.6259 39.982Z" fill="#5F725B"/>
<path d="M37.4716 44.5938C38.3176 45.1763 38.0657 45.195 38.5475 45.6505C39.1097 46.3892 41.6259 47.868 42.1207 49.0013C41.1523 48.0477 40.2169 47.0482 39.0758 46.2933C38.7699 46.091 38.6748 46.0264 38.4414 45.7349L38.3766 45.7687C38.3768 46.1095 38.5814 46.0259 38.7781 46.5406C39.1767 46.846 41.6072 48.649 41.7716 48.9616L41.6433 48.9942C41.3519 48.7343 41.0843 48.5271 40.7766 48.2898C40.6274 47.9989 39.111 47.0435 38.8583 46.7693C38.2515 46.1111 37.8801 45.4204 37.2344 44.7479L37.4716 44.5938Z" fill="#97A395"/>
<path d="M50.3164 45.1875C50.4527 45.2372 50.4887 45.2857 50.5982 45.3858C50.7305 45.6231 50.6895 45.802 50.6677 46.0747C50.3094 45.8789 50.2803 45.55 50.3164 45.1875Z" fill="#3F593D"/>
<path d="M40.2617 46.0459C40.4469 46.1398 40.8449 46.5156 40.8493 46.7276L40.6325 46.7975C40.5108 46.6264 40.1967 46.3112 40.1641 46.2012L40.2299 46.3391L40.0859 46.1841L40.229 46.1812L40.2617 46.0459Z" fill="#5F725B"/>
<path d="M79.9002 43.6604C79.2436 43.7376 77.8506 44.2255 77.1249 44.3979C76.5111 44.608 75.6663 44.6266 75.0732 44.8297C71.6363 46.0061 67.7092 46.7602 64.1118 45.9538C63.0587 45.7178 61.8947 43.9162 62.035 42.8199C62.0681 42.5613 62.5883 42.7671 62.8278 42.6788C62.9666 42.4779 62.9617 42.55 62.9428 42.3546C62.676 42.1271 62.4116 42.2811 62.0664 42.0989C62.2316 41.5573 62.7686 41.8081 62.6723 40.9952C62.7834 40.675 63.7637 39.8314 63.8338 39.6484C64.2982 38.4365 64.6271 38.5035 65.7155 37.9427C65.9108 37.8421 66.3013 37.3266 66.6365 37.124C66.7485 37.2409 66.8462 37.3654 66.9899 37.4326C66.9953 37.8875 67.0006 37.9508 66.8863 38.3931C67.0208 39.1498 67.0512 39.6228 67.3242 40.3511C68.9766 42.8883 70.914 43.0992 73.7579 42.8696C74.726 42.7914 75.5858 42.6131 76.5346 42.4289C77.3074 42.3188 78.1956 42.0754 78.9599 41.8806C79.2728 41.7202 79.7319 41.4975 80.0926 41.5751C80.1611 41.5897 80.3536 41.7535 80.4562 41.802L80.4783 41.8548C81.2639 42.1888 81.0978 42.61 80.5539 43.1482C80.3607 43.3478 80.1404 43.5201 79.9002 43.6604Z" fill="#D6D5D5"/>
<path d="M80.4781 41.8555C81.2637 42.1895 81.0976 42.6107 80.5536 43.1489C80.3932 43.2014 80.2385 43.3173 80.0867 43.3153C80.101 42.8833 80.1216 43.0364 79.8828 42.6259C80.5308 42.2392 80.1109 42.2285 80.4781 41.8555Z" fill="#C8C9C5"/>
<path d="M78.9643 41.8809L78.9914 41.9993C78.6186 42.4934 77.381 42.5951 76.7479 42.684L76.5954 42.6056L76.5391 42.4292C77.3118 42.3191 78.2001 42.0757 78.9643 41.8809Z" fill="#C8C9C5"/>
<path d="M67.3234 40.3516L67.1977 40.3728C66.9763 40.1664 66.6281 38.7633 66.6962 38.4785L66.8854 38.3936C67.02 39.1502 67.0504 39.6233 67.3234 40.3516Z" fill="#B5B6B2"/>
<path d="M75.8309 43.4688C76.0669 43.5363 75.9885 43.4821 76.1339 43.6647L76.0854 43.8149L75.8665 43.9058C75.6634 43.8605 75.6306 43.8561 75.4688 43.7269C75.5493 43.5447 75.6028 43.5723 75.8309 43.4688Z" fill="#C8C9C5"/>
<path d="M8.08793 54.7686C9.95628 56.0767 18.5062 57.8552 21.1856 58.4249C23.5396 58.9254 26.4124 59.6445 28.8144 59.9124C31.2322 60.1821 33.8884 60.3611 36.3324 60.5832C37.1845 60.6606 38.399 60.6241 39.1596 60.7259L39.8496 60.7364C39.8409 61.0792 39.8064 61.6629 39.8647 61.9811L39.9859 62.0888C39.6209 62.1771 39.5241 62.1791 39.1521 62.1383C37.7946 61.9934 36.4381 61.8131 35.0742 61.7523C34.4494 61.7245 33.8521 61.6715 33.2332 61.5814C32.5302 61.4537 31.5339 61.4103 30.8006 61.3567C29.3768 61.2584 27.9538 61.1484 26.5318 61.0265C22.8932 60.685 19.5349 59.9521 15.8654 60.067C14.0212 60.1246 11.4311 59.0557 9.77763 58.2655C9.59284 58.1268 8.3651 56.4344 8.23614 56.1405L8.21654 56.0952C8.04017 55.6957 8.02634 55.1956 8.08793 54.7686Z" fill="#40573C"/>
<path d="M39.1559 60.7256L39.8459 60.7361C39.8372 61.0789 39.8027 61.6626 39.861 61.9808L39.9822 62.0885C39.6172 62.1767 39.5204 62.1787 39.1484 62.138C39.2456 61.8976 39.1865 61.0085 39.1559 60.7256Z" fill="#293E28"/>
<path d="M66.4302 36.3744C66.6193 36.2043 66.8112 35.9863 67.0548 35.9658L67.2131 36.0242C67.3152 36.2929 67.2303 36.5032 67.1291 36.7759L66.9659 36.7442C66.8183 36.8902 66.7625 36.9621 66.6404 37.1244C66.3052 37.327 65.9147 37.8425 65.7194 37.9431C64.631 38.5039 64.3021 38.4369 63.8377 39.6488C63.7676 39.8318 62.7873 40.6754 62.6762 40.9955C62.7726 41.8085 62.2355 41.5577 62.0704 42.0992C62.4155 42.2815 62.6799 42.1275 62.9467 42.355C62.9656 42.5504 62.9705 42.4783 62.8317 42.6792C62.5923 42.7674 62.072 42.5617 62.0389 42.8203C61.8986 43.9165 63.0626 45.7182 64.1157 45.9542C67.7131 46.7606 71.6403 46.0065 75.0771 44.83C75.6702 44.6269 76.515 44.6084 77.1288 44.3983C77.8545 44.2259 79.2475 43.738 79.9041 43.6608L80.222 43.9021C80.3596 43.8162 80.3589 43.8039 80.4238 43.6476C80.438 43.7648 80.458 43.8959 80.468 44.0123C80.5215 43.9951 76.9613 45.4818 77.2122 45.3038C76.093 45.6574 75.0108 46.0427 73.913 46.4038C73.024 46.6229 72.1421 46.7953 71.2415 46.9767C68.9587 47.4364 66.3632 48.1354 64.1508 47.0361C63.6386 46.7816 62.6744 46.1237 62.3005 45.596C62.3005 45.596 62.1249 45.5693 62.0893 45.5639C61.7356 45.3598 61.4598 44.4529 61.3975 44.07C61.0481 41.9235 62.2499 40.2603 63.4005 38.587C63.6712 38.1932 64.7067 37.2206 65.1706 37.1628C65.595 36.9073 66.0148 36.6444 66.4302 36.3744Z" fill="#ECECEB"/>
<path d="M66.4315 36.374C66.4053 36.7744 65.7703 37.3738 65.3566 37.3828C65.2888 37.3105 65.2222 37.2477 65.1719 37.1624C65.5963 36.9068 66.0162 36.644 66.4315 36.374Z" fill="#D6D5D5"/>
<path d="M42.7656 60.8408L48.2172 61.1922C49.8408 61.3095 51.4625 61.432 53.0872 61.5481C55.0706 61.6899 57.1585 61.5695 59.1213 61.7209C58.8221 62.0817 58.5783 61.8997 58.1453 61.9548C57.6145 61.989 57.0634 62.1375 56.5562 62.1288C53.6255 62.0785 50.6876 62.0708 47.7592 61.9708C46.2031 61.9176 44.3082 61.8817 42.7762 61.9859L42.7656 60.8408Z" fill="#5F725B"/>
<path d="M66.4833 61.7173C72.4823 61.503 79.001 61.7138 85.0484 61.7965C85.5247 61.832 85.956 61.842 86.4329 61.8503L86.373 62.0806L86.4115 62.1453C84.3256 62.0015 81.4904 62.0944 79.3453 62.0978L66.5332 62.1044C66.3766 62.0441 66.3432 62.0417 66.2266 61.9273L66.4833 61.7173Z" fill="#050B04"/>
<path d="M84.2086 39.1182L84.4845 39.151L84.7832 39.2134C85.8433 39.3388 86.4207 39.1468 87.3354 39.2153C87.6626 39.2221 88.2814 39.1114 88.4539 39.2557C88.3099 39.4521 88.25 39.8182 88.4632 39.9794C88.2821 40.0518 88.188 40.073 88.049 40.212C87.7866 40.3198 87.8537 40.3399 87.6319 40.2695C86.8677 40.2929 86.9718 40.5509 86.1748 40.9209C85.787 41.0049 85.1361 41.0865 84.8531 41.3221C84.821 40.9268 84.7904 40.8496 84.441 40.6559C83.9 40.9079 83.5065 40.7391 83.0452 41.0362C82.7094 40.9795 82.8064 40.9886 82.5391 40.6502L82.656 40.5594C82.8092 40.6068 82.7593 40.6969 83.1279 40.8623C83.3696 40.8013 83.2862 40.8593 83.433 40.6323L83.2933 40.2366C83.5321 39.8802 83.9206 39.9078 84.0875 39.6008C84.0853 39.3824 84.0818 39.3115 84.2086 39.1182Z" fill="#D6D5D5"/>
<path d="M84.4453 40.6559C84.9579 40.0818 86.3573 40.1769 86.9604 39.9902C87.2299 40.1851 87.3076 40.1958 87.6362 40.2695C86.872 40.293 86.9761 40.5509 86.1791 40.9209C85.7913 41.005 85.1404 41.0866 84.8574 41.3221C84.8253 40.9269 84.7946 40.8496 84.4453 40.6559Z" fill="#C8C9C5"/>
<path d="M84.7812 39.2136C85.8413 39.339 86.4188 39.1469 87.3334 39.2154C86.9891 39.6398 85.3758 39.9543 84.8454 39.6559L84.7812 39.2136Z" fill="#C9C8C7"/>
<path d="M86.9609 39.9901C87.2418 39.9545 87.7066 39.8531 87.944 39.9876C87.9968 40.0677 88.041 40.1171 88.0538 40.2119C87.7915 40.3197 87.8585 40.3398 87.6368 40.2694C87.3081 40.1956 87.2304 40.185 86.9609 39.9901Z" fill="#B5B6B2"/>
<path d="M84.4853 39.1504L84.784 39.2128L84.8482 39.6552C84.5509 39.6652 84.3962 39.7116 84.2344 39.4403C84.2821 39.2745 84.3363 39.2587 84.4853 39.1504Z" fill="#B5B6B2"/>
<path d="M93.5234 61.5888C96.7079 61.5242 100.993 61.4996 104.126 61.0039C103.851 61.2749 103.734 61.5082 103.544 61.8373C102.232 62.2315 97.1927 62.1847 95.7177 62.0188C95.5345 61.7981 94.5151 61.9908 94.2855 61.9032C93.8949 61.7541 94.0275 61.6722 93.5234 61.5888Z" fill="#5F725B"/>
<path d="M84.8565 41.3221C85.1395 41.0866 85.7904 41.0049 86.1782 40.9209C85.9622 41.5435 86.0934 41.942 86.8077 41.9512L87.0444 42.0069L87.0479 42.0704C86.7564 42.4748 86.6801 42.67 86.4847 43.1247L86.4548 43.2215C86.1739 42.8684 85.712 43.1012 85.3976 43.2532C84.1907 43.6637 82.2295 43.7007 81.0746 44.0621L81.0625 43.8874C81.7013 43.619 82.6095 43.0391 83.0942 42.8709C83.1691 42.898 83.4414 42.9973 83.4927 42.9738C84.0609 42.7134 84.3218 42.4426 84.9606 42.2765C84.9342 42.094 84.8258 42.0562 84.6875 41.9818L84.8316 41.8943C84.947 41.6575 84.8921 41.6327 84.8565 41.3221Z" fill="#C8C9C5"/>
<path d="M84.8565 41.3221C85.1395 41.0866 85.7903 41.0049 86.1782 40.9209C85.9622 41.5435 86.0933 41.942 86.8076 41.9512C86.4327 42.0401 86.2616 42.135 85.913 42.2903L85.7975 42.2087C85.5415 42.1643 85.2828 42.2301 85.0254 42.2765H84.9605C84.9342 42.094 84.8258 42.0562 84.6875 41.9818L84.8315 41.8943C84.947 41.6575 84.8921 41.6327 84.8565 41.3221Z" fill="#D6D5D5"/>
<path d="M86.8057 41.9512L87.0423 42.0068L87.0459 42.0704C86.7543 42.4747 86.6781 42.67 86.4827 43.1247C86.4906 43.0551 86.4834 42.9584 86.4806 42.8858L86.3416 42.8289C86.0685 42.8915 86.0044 42.8957 85.7242 42.8948C85.4726 42.783 85.2209 42.4826 85.0234 42.2765C85.2808 42.23 85.5396 42.1643 85.7955 42.2087L85.911 42.2902C86.2596 42.1349 86.4307 42.04 86.8057 41.9512Z" fill="#B5B6B2"/>
<path d="M77.2088 45.3037C77.4469 45.4133 77.6423 45.1225 77.9659 45.2071C77.8055 45.4327 77.432 45.3785 77.1247 45.6401C76.9322 45.7447 75.9955 45.9721 75.6882 46.0797C72.4154 47.2258 68.8918 48.2032 65.3948 47.814C64.2392 47.6854 62.7824 46.4995 62.0859 45.5639C62.1215 45.5693 62.2971 45.596 62.2971 45.596C62.671 46.1236 63.6353 46.7816 64.1474 47.0361C66.3598 48.1353 68.9553 47.4364 71.2382 46.9767C72.1388 46.7953 73.0206 46.6229 73.9096 46.4038C75.0074 46.0427 76.0896 45.6574 77.2088 45.3037Z" fill="#C9C7C6"/>
<path d="M39.8462 60.7363C40.6041 60.7409 41.3794 60.7326 42.1332 60.7998L42.7605 60.8411L42.771 61.9862C42.5042 62.0091 42.3104 62.0202 42.0429 62.0187C41.2502 62.176 40.7587 62.0713 39.9825 62.0888L39.8613 61.981C39.803 61.6629 39.8375 61.0792 39.8462 60.7363Z" fill="#5A7258"/>
<path d="M42.1371 60.7998L42.7644 60.8412L42.775 61.9863C42.5081 62.0092 42.3144 62.0202 42.0469 62.0187C42.0633 61.5883 42.0929 61.2283 42.1371 60.7998Z" fill="#293E28"/>
<path d="M82.1191 41.4218C82.2489 41.1404 82.3815 40.8608 82.5183 40.583L82.5362 40.6502C82.8035 40.9886 82.7065 40.9795 83.0423 41.0362C83.5035 40.7391 83.8971 40.9079 84.4381 40.6559C84.7875 40.8496 84.8181 40.9268 84.8502 41.3221C84.8858 41.6327 84.9407 41.6574 84.8252 41.8943L84.6812 41.9818L84.4011 41.881C83.9298 41.8946 83.7046 42.053 83.2412 42.1661C82.8541 42.2603 82.2952 42.1648 82.0713 42.3049C81.9929 42.5032 81.9808 42.5965 81.8033 42.7089C81.5424 42.7494 81.5823 42.7828 81.372 42.6895C81.3057 42.2254 81.9437 41.953 82.1191 41.4218Z" fill="#C8C9C5"/>
<path d="M84.4393 40.6562C84.7886 40.8499 84.8192 40.9272 84.8513 41.3224C84.887 41.6331 84.9419 41.6578 84.8264 41.8947L84.6824 41.9822L84.4022 41.8814L84.1377 41.6362C83.6964 41.6196 83.7107 42.0072 83.0919 42.0347C83.1432 41.8172 83.1012 41.899 83.288 41.7269L83.0555 41.7006C83.0299 41.5193 83.0413 41.2299 83.0434 41.0366C83.5047 40.7395 83.8982 40.9083 84.4393 40.6562Z" fill="#B5B6B2"/>
<path d="M82.125 41.4218C82.2547 41.1404 82.3874 40.8608 82.5242 40.583L82.542 40.6502C82.8094 40.9886 82.7124 40.9795 83.0482 41.0362C83.0461 41.2295 83.0346 41.5189 83.0603 41.7002C82.9662 41.9145 83.0225 41.8755 82.855 41.9485C82.7716 41.769 82.6903 41.5883 82.6112 41.4065C82.3866 41.3068 82.4201 41.3499 82.125 41.4218Z" fill="#D6D5D5"/>
<path d="M59.1166 61.7207C60.6889 61.7068 62.2611 61.7034 63.8335 61.7106C64.6619 61.7093 65.6669 61.673 66.4791 61.717L66.2223 61.927C66.3389 62.0414 66.3724 62.0438 66.529 62.1041C65.2201 62.1766 63.6312 62.1374 62.3096 62.1295C60.9639 62.1214 59.4551 62.136 58.1406 61.9546C58.5736 61.8995 58.8174 62.0816 59.1166 61.7207Z" fill="#223321"/>
<path d="M88.8203 61.7259C90.0329 61.5974 92.2778 61.6033 93.5225 61.5889C94.0265 61.6722 93.894 61.7541 94.2846 61.9033C94.5142 61.9908 95.5336 61.7982 95.7168 62.0189C94.9911 62.0686 89.7663 62.2315 89.283 62.0875C89.437 61.9534 89.5154 62.0826 89.7264 61.8737C89.5874 61.7564 89.0377 61.7447 88.8203 61.7259Z" fill="#293E28"/>
<path d="M85.0469 61.7964C85.6849 61.7044 88.0838 61.7211 88.8195 61.7262C89.0369 61.745 89.5866 61.7567 89.7256 61.874C89.5146 62.0829 89.4361 61.9537 89.2822 62.0878C88.8124 62.2201 87.0843 62.1204 86.4099 62.1451L86.3714 62.0804L86.4313 61.8501C85.9544 61.8419 85.5231 61.8319 85.0469 61.7964Z" fill="#21311D"/>
<path d="M8.5188 52.8467C10.0312 53.6882 11.591 54.172 13.2461 54.645L13.2413 54.6906C12.1511 54.6636 9.49896 53.7345 8.45614 53.2525L8.39062 53.2219L8.5188 52.8467Z" fill="#D6D5D5"/>
<path d="M80.4649 44.0125L81.0573 43.8877L81.0694 44.0624C80.6574 44.2968 77.5178 45.5769 77.125 45.6403C77.4323 45.3788 77.8058 45.433 77.9662 45.2073C77.6426 45.1227 77.4472 45.4136 77.2091 45.304C76.9582 45.482 80.5184 43.9953 80.4649 44.0125Z" fill="#B5B6B2"/>
<path d="M81.9766 53.711C82.1006 53.221 82.9646 51.2542 83.2227 50.668C83.1756 51.0702 83.1036 51.0348 83.4729 51.273C83.5485 51.7722 81.9652 52.6852 82.281 53.5409C82.7215 53.4586 83.0801 53.398 83.5079 53.6091C83.0545 53.6933 82.4499 53.6956 81.9766 53.711Z" fill="#5A7258"/>
<path d="M85.3984 43.2532C85.7128 43.1012 86.1748 42.8684 86.4557 43.2214C86.3124 43.6184 86.2304 43.8045 86.0429 44.1799C86.013 43.6431 85.9916 43.3478 85.3984 43.2532Z" fill="#ECECEB"/>
<path d="M66.6406 37.1243C66.7627 36.962 66.8185 36.8901 66.9661 36.7441L67.1293 36.7758C67.0966 36.9435 67.04 37.2838 66.994 37.4329C66.8504 37.3657 66.7527 37.2412 66.6406 37.1243Z" fill="#C8C9C5"/>
<path d="M80.8777 40.9678L80.9968 41.0218C81.1322 41.2442 81.1187 41.1521 81.0781 41.3716C80.9255 41.6028 80.7936 41.6216 80.5284 41.7098C80.4186 41.5901 80.4101 41.5777 80.3359 41.4332C80.4621 41.1817 80.6197 41.1379 80.8777 40.9678Z" fill="#D6D5D5"/>
<path d="M51.2422 32.9238L51.282 32.704C52.3303 31.6823 52.8664 30.5349 54.6746 30.9461L54.6682 31.0037C54.6279 31.3867 54.7669 31.6249 54.6318 31.7709C54.4396 31.7029 54.2899 31.6349 54.105 31.5511C53.2359 31.1678 52.1073 32.7048 51.2422 32.9238Z" fill="#97A395" fill-opacity="0.0156863"/>
<path d="M67.9739 12.6167C68.2413 12.2909 68.2623 12.2491 68.6974 12.3726L68.7595 12.4856C68.5847 12.8405 68.5298 12.9382 68.4618 13.3229C68.3439 13.6429 68.0913 14.4339 67.8816 14.6408L67.7578 14.68L67.8148 14.343C67.7154 14.254 67.6112 14.2433 67.4799 14.21C67.3216 13.963 67.5764 13.6395 67.7103 13.396C67.8829 13.1635 67.9319 12.8925 67.9739 12.6167Z" fill="#FBFBFA" fill-opacity="0.988235"/>
<path d="M16.0938 44.0922C16.4727 44.0087 17.2946 43.9574 17.6371 44.1672L17.5821 44.227C17.3921 44.2745 17.3392 44.2331 17.1577 44.1528L17.0969 44.1256C17.0055 44.1641 17.0087 44.1577 16.9551 44.2404L17.0567 44.3222L16.9494 44.4026L16.6316 44.3206L16.6313 44.2908L16.5031 44.1987C16.3074 44.1967 16.2785 44.1721 16.0938 44.0922Z" fill="#505150" fill-opacity="0.0156863"/>
</svg>
