<svg width="114" height="74" viewBox="0 0 114 74" fill="none" xmlns="http://www.w3.org/2000/svg">
<g clip-path="url(#clip0_1625_54)">
<g clip-path="url(#clip1_1625_54)">
<path d="M75.2007 10.7788C76.3471 11.3444 77.5221 11.4328 78.7857 11.6573C79.5803 11.753 80.5436 12.1314 81.3288 12.1745C84.2986 12.3372 87.2192 11.3706 90.1427 11.0636C91.1528 10.9575 91.0213 12.3291 91.6269 12.8912C91.8285 12.9898 92.0337 13.0769 92.092 13.339C92.4883 15.1223 92.3147 17.2848 92.6372 19.081C92.9339 20.31 93.2189 23.5661 93.0777 24.8209C93.1006 25.2936 93.0011 25.3509 93.1508 25.7897C93.3899 25.978 94.0625 26.0366 94.4096 26.1281C94.6398 25.7487 94.7989 25.3842 95.222 25.2738C95.3803 25.4111 95.4458 25.525 95.4462 25.7495C95.4496 27.8017 95.6792 29.8185 95.9107 31.8579L97.0626 41.2288C97.1515 41.9406 97.287 42.7075 97.3922 43.4231C97.568 44.6196 97.0252 46.7213 97.6642 47.7262C97.8627 47.9507 98.1268 48.2688 98.2129 48.5527C98.6732 50.0697 99.4976 54.5471 99.4226 55.9194C99.4158 56.0347 99.4061 56.1498 99.3944 56.2652C99.1802 56.5818 98.5616 57.2524 98.5184 57.4146L98.585 57.6767C98.6768 58.0575 98.7395 58.0313 98.6052 58.3113C97.3513 59.2842 94.9625 59.3792 93.4131 59.5204L88.111 59.9521C87.1848 60.0245 86.2091 60.2656 85.2593 60.3526C83.8289 60.4837 82.3989 60.5 80.9739 60.6315C80.2985 60.7023 79.7469 60.7205 79.0663 60.7361L78.9547 60.7402C78.0832 60.862 76.7622 60.8367 75.8516 60.9847C75.7573 60.9394 75.6772 60.9009 75.6111 60.8692C75.7087 60.6384 75.7897 60.0591 75.9144 59.6807C75.6593 59.8735 75.7439 59.8709 75.4781 59.859L75.2642 59.6879L75.2233 59.7719C74.4137 59.4403 73.6126 59.569 72.8158 59.8938L72.8755 60.0402C73.101 60.6376 73.4991 60.7276 74.0762 60.8807C73.4935 60.9595 72.6674 61.0947 72.0994 61.1157C70.8177 61.0074 69.6784 61.2301 68.4475 61.2555L57.7399 61.5358C57.1684 61.5547 55.735 61.6224 55.2331 61.5199L55.1652 61.5185C54.8015 61.5889 54.4024 61.6802 54.0355 61.6919C53.8119 61.7165 53.5743 61.7493 53.3507 61.7521C50.4887 61.8659 48.0076 62.1341 45.0818 61.9578C44.8827 61.9832 44.5803 62.0377 44.3918 62.0105C43.8042 62.0405 43.1548 62.0503 42.579 62.0949C41.8064 62.1049 41.0339 62.1228 40.2616 62.1487C39.3035 62.1469 38.581 62.1486 37.6251 62.2185C37.4397 62.2454 37.2473 62.2764 37.0623 62.2993C36.6235 62.2896 36.2536 62.2439 35.8207 62.2167C34.8317 62.1547 33.2564 62.5796 32.5063 61.8565C32.2482 61.8572 31.9931 61.8445 31.7418 61.8966C31.1488 62.103 31.0291 62.1661 30.4426 61.9994L30.3482 61.865C30.4987 61.6242 30.5256 61.6816 30.8672 61.566C30.4931 61.5366 29.003 61.3423 28.8343 61.3734C28.5433 61.4711 28.4278 61.4721 28.1252 61.3701C26.6182 61.3464 25.145 61.1209 23.6855 61.091C21.3361 61.0428 20.0259 60.6136 17.7933 59.9994C13.8812 58.9231 9.33985 58.2757 6.21915 55.446C5.51669 54.7973 5.41892 53.5593 5.4005 52.6303C5.43189 51.9531 5.54557 51.4861 5.77998 50.8591L6.00774 50.2052C6.36534 49.279 6.4987 49.165 7.21136 48.4743C7.91404 47.8368 8.10015 46.9525 8.57019 46.1667C9.04321 45.3759 9.99325 44.1164 10.8352 43.7298C11.2276 43.6117 11.5101 43.6363 11.915 43.6424C13.0053 42.8809 20.3825 41.7603 22.0606 41.3271C23.6865 40.9073 26.2641 40.7038 28.0318 40.0249C28.7991 39.7302 30.5133 39.2952 31.3165 39.1633L31.882 38.8628C33.0372 37.8916 33.9067 37.8399 35.2299 37.1808C35.6453 36.9739 35.7874 36.8121 36.245 36.6122C37.4149 35.6561 37.4851 35.9197 38.8525 35.4175C38.9992 35.3636 39.864 34.5155 40.3349 34.2689C41.034 33.903 41.7831 33.6975 42.4292 33.3377C43.019 33.0093 43.714 31.9592 44.4034 31.6399C45.0419 31.3442 45.9248 31.2406 46.6303 31.1228C47.314 30.3052 47.9615 29.1457 48.9491 28.6911C49.4747 28.4491 50.0244 28.3988 50.5573 28.0852C50.944 27.583 51.4164 27.0551 51.9139 26.6619C52.4153 26.0532 53.9502 25.4471 54.638 24.8777C55.6807 24.0146 55.7733 23.3981 55.9352 22.1525C56.0035 21.8013 56.0997 21.4891 56.1682 21.1025C56.4003 20.6986 56.7509 20.2822 57.0954 19.9708L57.2497 19.7662C58.3072 18.2406 57.8363 17.6677 58.1934 15.9965C58.4151 14.9586 59.2355 13.7684 59.9004 12.9528C59.9922 11.4742 60.549 10.9245 61.4186 9.80822L61.7452 9.24357L62.1504 8.61406C63.1669 7.45505 62.5044 5.69519 63.8743 4.70035C64.3736 4.33769 65.5903 4.17279 66.1821 4.27919C66.8316 4.22015 67.2968 4.36484 67.751 4.82235C68.1565 5.52139 68.1762 5.88206 67.9648 6.67403C67.9033 6.89855 67.8367 7.12163 67.765 7.34301C67.2685 7.24522 67.2351 7.06144 67.0166 7.02244C66.7136 6.90165 66.4114 6.77883 66.11 6.65417C65.9005 6.60755 65.6675 6.56883 65.4763 6.47875C65.5438 6.67666 65.5714 6.69206 65.7465 6.81017C66.2987 7.03053 67.2619 7.44129 67.8506 7.46423C68.9395 8.22954 71.0887 8.87037 72.3278 9.50403C73.2477 9.97457 74.2638 10.2048 75.2007 10.7788ZM46.0115 52.9665C45.7385 52.0039 45.1426 50.9994 44.8118 50.0115C44.2482 48.3279 43.6764 46.5011 43.5762 44.7244C43.5165 43.6633 43.5842 42.5381 43.5497 41.4712C43.5537 41.4322 43.5584 41.3932 43.5639 41.3543C43.6606 40.6971 43.9709 40.5163 44.4813 40.1452C44.7728 39.3238 45.2151 39.4891 45.6454 38.8429C44.8761 38.9923 44.4646 39.6429 44.0899 39.7492C43.8267 39.3145 44.7552 36.4586 44.9311 35.6966L44.8908 35.2619C44.714 35.2836 44.7482 35.3082 44.5889 35.4828C44.591 35.2984 44.8273 34.9642 44.9336 34.7291C44.8316 34.4458 44.7829 34.4727 44.5235 34.2467L43.8868 33.9192C45.8682 33.8054 45.7482 32.2587 46.6081 31.151L46.6303 31.1228C45.9248 31.2406 45.0419 31.3442 44.4034 31.6399C43.714 31.9592 43.019 33.0093 42.4292 33.3377C41.7831 33.6975 41.034 33.903 40.3349 34.2689C39.864 34.5155 38.9992 35.3636 38.8525 35.4175C37.4851 35.9197 37.4149 35.6561 36.245 36.6122C35.7874 36.8121 35.6453 36.9739 35.2299 37.1808C33.9067 37.8399 33.0372 37.8916 31.882 38.8628L31.3165 39.1633C30.5133 39.2952 28.7991 39.7302 28.0318 40.0249C26.2641 40.7038 23.6865 40.9073 22.0606 41.3271C20.3825 41.7603 13.0053 42.8809 11.915 43.6424C11.5101 43.6363 11.2276 43.6117 10.8352 43.7298C9.99325 44.1164 9.04321 45.3759 8.57019 46.1667C8.10015 46.9525 7.91404 47.8368 7.21136 48.4743C6.4987 49.165 6.36534 49.279 6.00774 50.2052L5.77998 50.8591C5.54557 51.4861 5.43189 51.9531 5.4005 52.6303C5.41892 53.5593 5.51669 54.7973 6.21915 55.446C9.33985 58.2757 13.8812 58.9231 17.7933 59.9994C20.0259 60.6136 21.3361 61.0428 23.6855 61.091C25.145 61.1209 26.6182 61.3464 28.1252 61.3701C28.4278 61.4721 28.5433 61.4711 28.8343 61.3734C29.003 61.3423 30.4931 61.5366 30.8672 61.566C30.5256 61.6816 30.4987 61.6242 30.3482 61.865L30.4426 61.9994C31.0291 62.1661 31.1488 62.103 31.7418 61.8966C31.9931 61.8445 32.2482 61.8572 32.5063 61.8565C33.2564 62.5796 34.8317 62.1547 35.8207 62.2167C36.2536 62.2439 36.6235 62.2896 37.0623 62.2993C37.2473 62.2764 37.4397 62.2454 37.6251 62.2185C38.581 62.1486 39.3035 62.1469 40.2616 62.1487C41.0339 62.1228 41.8064 62.1049 42.579 62.0949C43.1548 62.0503 43.8042 62.0405 44.3918 62.0105C44.5803 62.0377 44.8827 61.9832 45.0818 61.9578C48.0076 62.1341 50.4887 61.8659 53.3507 61.7521C53.5743 61.7493 53.8119 61.7165 54.0355 61.6919C54.4024 61.6802 54.8015 61.5889 55.1652 61.5185L55.2331 61.5199C55.735 61.6224 57.1684 61.5547 57.7399 61.5358L68.4475 61.2555C69.6784 61.2301 70.8177 61.0074 72.0994 61.1157C72.6674 61.0947 73.4935 60.9595 74.0762 60.8807C73.4991 60.7276 73.101 60.6376 72.8755 60.0402L72.8158 59.8938C73.6126 59.569 74.4137 59.4403 75.2233 59.7719L75.2642 59.6879L75.4781 59.859C75.7439 59.8709 75.6593 59.8735 75.9144 59.6807C75.7897 60.0591 75.7087 60.6384 75.6111 60.8692C75.6772 60.9009 75.7573 60.9394 75.8516 60.9847C76.7622 60.8367 78.0832 60.862 78.9547 60.7402L79.0663 60.7361C79.7469 60.7205 80.2985 60.7023 80.9739 60.6315C82.3989 60.5 83.8289 60.4837 85.2593 60.3526C86.2091 60.2656 87.1848 60.0245 88.111 59.9521L93.4131 59.5204C94.9625 59.3792 97.3513 59.2842 98.6052 58.3113C98.7395 58.0313 98.6768 58.0575 98.585 57.6767L98.5184 57.4146C98.5616 57.2524 99.1802 56.5818 99.3944 56.2652C99.4061 56.1498 99.4158 56.0347 99.4226 55.9194C99.4976 54.5471 98.6732 50.0697 98.2129 48.5527C98.1268 48.2688 97.8627 47.9507 97.6642 47.7262C92.7083 49.0579 86.7735 49.2428 81.6445 49.8341C80.1664 50.0046 75.9967 50.5431 74.6945 50.45C73.3091 50.7238 70.5956 50.8584 69.0701 51.0092C63.6224 51.5277 58.1708 52.0056 52.716 52.4427C50.7601 52.6094 47.8555 52.6698 46.0115 52.9665ZM79.0822 25.1201C79.2227 25.4742 79.0654 25.6945 79.2549 25.9519C79.4264 26.0223 79.4372 26.035 79.6134 26.0049C79.6185 25.6559 79.6751 25.6644 79.5135 25.4233L79.4569 25.3964C79.2707 25.3057 79.2132 25.2869 79.0822 25.1201Z" fill="#D5D4D4"/>
<path d="M97.666 47.7258C97.8645 47.9503 98.1286 48.2684 98.2148 48.5523C98.6751 50.0694 99.4995 54.5468 99.4245 55.919C99.4176 56.0343 99.4079 56.1495 99.3962 56.2648C99.1821 56.5814 98.5634 57.2521 98.5203 57.4143L98.5869 57.6763C98.6786 58.0571 98.7413 58.0309 98.607 58.3109C97.3532 59.2838 94.9643 59.3788 93.415 59.52L88.1128 59.9518C87.1867 60.0241 86.2109 60.2652 85.2611 60.3522C83.8307 60.4834 82.4008 60.4996 80.9758 60.6312C80.3003 60.702 79.7488 60.7202 79.0682 60.7357L78.9565 60.7398C78.085 60.8617 76.7641 60.8364 75.8535 60.9844C75.7592 60.939 75.679 60.9005 75.613 60.8688C75.7105 60.638 75.7916 60.0587 75.9163 59.6803C75.6612 59.8731 75.7457 59.8705 75.48 59.8587L75.2661 59.6875L75.2252 59.7715C74.4156 59.4399 73.6145 59.5687 72.8176 59.8934L72.8774 60.0398C73.1028 60.6373 73.5009 60.7272 74.0781 60.8804C73.4953 60.9592 72.6693 61.0943 72.1012 61.1153C70.8196 61.007 69.6803 61.2298 68.4493 61.2551L57.7418 61.5354C57.1703 61.5543 55.7368 61.622 55.235 61.5195L55.167 61.5182C54.8034 61.5885 54.4043 61.6799 54.0374 61.6915C53.8138 61.7161 53.5762 61.749 53.3526 61.7518C50.4906 61.8655 48.0095 62.1337 45.0836 61.9574C44.8845 61.9828 44.5822 62.0374 44.3936 62.0101C43.806 62.0402 43.1566 62.0499 42.5808 62.0946C41.8082 62.1045 41.0358 62.1224 40.2635 62.1483C39.3053 62.1465 38.5829 62.1482 37.6269 62.2181C37.4416 62.245 37.2491 62.2761 37.0642 62.299C36.6253 62.2892 36.2554 62.2435 35.8225 62.2164C34.8335 62.1543 33.2583 62.5792 32.5082 61.8562C32.25 61.8568 31.9949 61.8441 31.7437 61.8962C31.1507 62.1026 31.031 62.1657 30.4444 61.999L30.3501 61.8646C30.5006 61.6238 30.5275 61.6812 30.869 61.5656C30.4949 61.5363 29.0049 61.342 28.8361 61.3731C28.5451 61.4708 28.4297 61.4717 28.127 61.3697C26.6201 61.3461 25.1469 61.1205 23.6873 61.0906C21.338 61.0424 20.0278 60.6132 17.7952 59.999C13.8831 58.9227 9.34171 58.2753 6.22101 55.4456C5.51855 54.7969 5.42078 53.5589 5.40235 52.6299C5.43374 51.9527 5.54742 51.4857 5.78183 50.8587L6.0096 50.2048C6.3672 49.2786 6.50055 49.1646 7.21322 48.474C7.9159 47.8364 8.10201 46.9522 8.57204 46.1664C9.04506 45.3756 9.9951 44.116 10.837 43.7294C11.2295 43.6113 11.512 43.6359 11.9168 43.642C13.0071 42.8805 20.3844 41.76 22.0624 41.3267C23.6883 40.9069 26.266 40.7035 28.0337 40.0245C28.801 39.7298 30.5152 39.2949 31.3183 39.1629L31.8838 38.8625C33.0391 37.8912 33.9086 37.8396 35.2317 37.1804C35.6471 36.9735 35.7892 36.8118 36.2469 36.6118C37.4168 35.6558 37.4869 35.9194 38.8543 35.4171C39.001 35.3632 39.8658 34.5151 40.3368 34.2685C41.0358 33.9026 41.785 33.6971 42.4311 33.3373C43.0208 33.0089 43.7159 31.9589 44.4052 31.6396C45.0438 31.3438 45.9267 31.2402 46.6321 31.1225L46.61 31.1506C45.7501 32.2583 45.87 33.805 43.8887 33.9188L44.5253 34.2463C44.7848 34.4723 44.8335 34.4454 44.9354 34.7287C44.8291 34.9638 44.5928 35.298 44.5908 35.4824C44.7501 35.3079 44.7159 35.2833 44.8927 35.2615L44.933 35.6963C44.757 36.4582 43.8286 39.3142 44.0917 39.7488C44.4664 39.6425 44.878 38.9919 45.6472 38.8425C45.2169 39.4888 44.7746 39.3235 44.4832 40.1449C43.9727 40.516 43.6625 40.6967 43.5658 41.3539C43.5603 41.3928 43.5556 41.4318 43.5516 41.4709C43.5861 42.5377 43.5183 43.663 43.5781 44.724C43.6782 46.5007 44.2501 48.3275 44.8137 50.0111C45.1444 50.999 45.7404 52.0036 46.0134 52.9661C47.8573 52.6695 50.762 52.6091 52.7178 52.4423C58.1727 52.0052 63.6242 51.5273 69.072 51.0088C70.5974 50.858 73.3109 50.7234 74.6964 50.4497C75.9986 50.5427 80.1682 50.0042 81.6463 49.8338C86.7754 49.2424 92.7101 49.0575 97.666 47.7258ZM69.5076 60.5666C69.9491 60.7721 70.1079 60.8388 70.5689 60.6882C70.9114 60.3505 71.3549 60.2326 71.6361 59.887C70.8503 59.7589 69.8841 59.6623 69.5076 60.5666ZM98.1713 58.135C98.0108 57.8687 97.8992 57.6214 97.6278 57.478L97.4909 57.5029C97.3722 57.8899 97.5062 58.0765 97.6673 58.4779C97.9966 58.4525 98.0069 58.3843 98.1713 58.135Z" fill="#EAE8DE"/>
<path d="M46.6308 31.1229L46.6086 31.151C45.7487 32.2587 45.8687 33.8055 43.8873 33.9193L44.524 34.2467C44.7834 34.4727 44.8321 34.4459 44.9341 34.7291C44.8278 34.9643 44.5915 35.2985 44.5894 35.4829C44.7487 35.3083 44.7145 35.2837 44.8913 35.262L44.9316 35.6967C44.7557 36.4587 43.8272 39.3146 44.0904 39.7493C44.4651 39.643 44.8766 38.9923 45.6459 38.843C45.2156 39.4892 44.7733 39.3239 44.4818 40.1453C43.9714 40.5164 43.6611 40.6971 43.5644 41.3543C43.5589 41.3933 43.5542 41.4322 43.5502 41.4713C43.5847 42.5382 43.517 43.6634 43.5767 44.7245C43.6769 46.5012 44.2487 48.328 44.8123 50.0115C45.1431 50.9995 45.739 52.004 46.012 52.9665C44.918 53.1208 43.8256 53.1672 42.7188 53.2315C37.0341 53.5617 31.3745 54.1603 25.6915 53.4462C25.4481 53.4157 25.1689 53.3991 24.9329 53.3504C20.6335 53.158 11.6631 51.692 7.6206 49.4132C7.41815 49.2991 7.45743 48.648 7.21186 48.4744C7.91454 47.8368 8.10065 46.9526 8.57068 46.1668C9.0437 45.376 9.99375 44.1165 10.8357 43.7298C11.2281 43.6118 11.5106 43.6364 11.9155 43.6425C13.0058 42.8809 20.383 41.7604 22.0611 41.3271C23.687 40.9074 26.2646 40.7039 28.0323 40.025C28.7996 39.7303 30.5138 39.2953 31.317 39.1634L31.8825 38.8629C33.0377 37.8917 33.9072 37.84 35.2304 37.1809C35.6458 36.9739 35.7878 36.8122 36.2455 36.6123C37.4154 35.6562 37.4856 35.9198 38.853 35.4176C38.9997 35.3637 39.8645 34.5156 40.3354 34.269C41.0345 33.9031 41.7836 33.6975 42.4297 33.3378C43.0195 33.0094 43.7145 31.9593 44.4039 31.64C45.0424 31.3442 45.9253 31.2406 46.6308 31.1229Z" fill="#6B051F"/>
<path d="M11.9146 43.6422C13.0049 42.8807 20.3822 41.7602 22.0602 41.3269C23.6861 40.9071 26.2638 40.7037 28.0315 40.0247C28.7988 39.73 30.513 39.2951 31.3161 39.1631L31.1729 39.6716C30.4806 40.0867 30.0406 41.2948 30.2605 42.114L30.1773 42.1931C30.2839 42.9735 30.8709 43.8507 31.0214 44.5334C31.2984 44.8711 31.5478 45.3432 31.7688 45.7284C32.2745 46.41 32.3985 46.7049 32.6386 47.5153L32.8677 47.5806C32.5629 48.2137 32.7574 48.2637 32.1261 48.6442C31.7468 48.834 31.4295 49.0599 31.0798 49.2967L30.7464 49.3707C30.7122 49.7356 30.7713 49.6988 30.5761 49.9446C30.4097 49.8139 30.2897 49.7306 30.1115 49.6164C29.5547 49.6874 29.6858 50.1653 29.2076 50.2908L29.1051 50.2301C29.0762 49.9869 29.0981 49.4643 28.9392 49.4049C28.5965 49.2767 28.3489 49.1917 28.1486 48.8111C27.897 48.7764 27.8078 48.8295 27.6842 48.594C27.2738 48.7709 27.294 48.6978 26.9981 48.3744L26.8354 48.3512C26.6531 48.1301 26.5739 47.9942 26.2997 47.9156L26.2213 47.9917C26.3015 48.3474 26.4519 48.5055 26.6724 48.7994C25.9514 49.4711 23.1369 51.8922 22.927 52.7056C23.0455 53.3207 24.3919 53.0624 24.9985 53.2086L24.9321 53.3502C20.6326 53.1578 11.6622 51.6918 7.61975 49.413C7.4173 49.2988 7.45658 48.6478 7.21101 48.4742C7.91369 47.8366 8.0998 46.9523 8.56983 46.1666C9.04285 45.3758 9.9929 44.1162 10.8348 43.7296C11.2272 43.6115 11.5097 43.6361 11.9146 43.6422Z" fill="#5C0418"/>
<path d="M11.9142 43.6425C13.0046 42.881 20.3818 41.7605 22.0598 41.3272C23.6858 40.9074 26.2634 40.704 28.0311 40.025C28.7984 39.7303 30.5126 39.2954 31.3158 39.1635L31.1725 39.6719C30.4802 40.0871 30.0402 41.2952 30.2602 42.1143L30.1769 42.1934C30.2835 42.9738 30.8706 43.851 31.021 44.5337C31.298 44.8714 31.5474 45.3435 31.7685 45.7288C32.2741 46.4104 32.3981 46.7053 32.6382 47.5156L32.8674 47.5809C32.5626 48.214 32.757 48.264 32.1257 48.6445C31.7464 48.8343 31.4291 49.0603 31.0794 49.297L30.746 49.3711C30.7118 49.7359 30.7709 49.6991 30.5757 49.9449C30.4093 49.8142 30.2893 49.7309 30.1111 49.6167C29.5543 49.6877 29.6855 50.1656 29.2072 50.2911L29.1048 50.2304C29.0758 49.9872 29.0977 49.4646 28.9388 49.4052C28.5961 49.277 28.3486 49.192 28.1482 48.8114C27.9474 48.354 27.3443 47.7277 27.0559 47.1993C27.2265 47.364 27.2659 47.4049 27.4726 47.5185C27.46 47.2359 26.6708 46.2143 26.4266 46.0184C24.6926 45.5587 21.2057 45.852 19.3315 45.7334C17.3305 45.6068 15.3737 45.4188 13.4068 44.9918C12.6392 44.8252 11.9883 44.5584 11.2762 44.3871C11.1319 44.1464 11.0199 43.9423 10.8345 43.7299C11.2269 43.6119 11.5094 43.6365 11.9142 43.6425Z" fill="#1F1E1F"/>
<path d="M26.43 46.0182C28.3987 46.9829 28.7542 49.4888 30.7495 49.3708C30.7152 49.7357 30.7743 49.6989 30.5791 49.9447C30.4127 49.814 30.2928 49.7307 30.1146 49.6165C29.5577 49.6875 29.6889 50.1654 29.2106 50.2909L29.1082 50.2302C29.0792 49.987 29.1012 49.4644 28.9422 49.405C28.5995 49.2768 28.352 49.1918 28.1516 48.8112C27.9508 48.3538 27.3477 47.7275 27.0593 47.1991C27.2299 47.3638 27.2693 47.4047 27.476 47.5183C27.4634 47.2357 26.6742 46.214 26.43 46.0182Z" fill="#560619"/>
<path d="M31.7665 45.728C32.2722 46.4096 32.3962 46.7046 32.6363 47.5149L32.308 47.6843C31.8571 47.4935 31.5138 47.1435 31.1473 46.8183C31.0075 46.4443 30.5893 45.5537 30.9384 45.2939C31.2426 45.308 31.5118 45.5459 31.7665 45.728Z" fill="#5D5D5D"/>
<path d="M31.0208 44.533C31.2977 44.8707 31.5472 45.3428 31.7682 45.7281C31.5134 45.5459 31.2442 45.308 30.94 45.2939C30.5909 45.5537 31.0091 46.4443 31.149 46.8183C31.5154 47.1435 31.8587 47.4935 32.3096 47.6843C31.1887 47.9116 31.0377 46.5702 30.7324 46.4013L30.6511 46.4884L30.7278 46.9826C30.1389 46.8847 29.5272 45.2488 30.4058 45.2102C30.611 45.2011 30.9136 45.0598 31.1014 44.9864C31.1291 44.8102 30.9276 44.5903 30.8031 44.3976L31.0208 44.533Z" fill="#403D3F"/>
<path d="M25.9062 43.1445C26.0942 43.2802 26.1156 43.2993 26.2192 43.5059C26.1411 43.7736 26.1333 43.7176 25.8993 43.9313L25.7404 43.7684C25.7043 43.4797 25.7727 43.3947 25.9062 43.1445Z" fill="#121313"/>
<path d="M27.6822 48.5937C27.4966 48.0327 26.7709 47.7752 26.7618 47.0785L26.8642 47.0266L27.0542 47.1987C27.3426 47.727 27.9458 48.3534 28.1466 48.8108C27.8949 48.776 27.8058 48.8292 27.6822 48.5937Z" fill="#7E1721"/>
<path d="M46.6325 31.1226L46.6103 31.1507C45.7504 32.2584 45.8704 33.8052 43.889 33.919C43.4266 33.8667 43.2755 33.8631 42.8504 34.1004C40.9518 34.1466 41.2217 35.1514 40.2793 35.941C40.109 36.0705 39.6113 36.4312 39.4811 36.5614C39.3036 36.3331 39.2434 36.2056 39.1377 35.9375C38.1533 35.7508 37.3776 37.6941 36.2472 36.612C37.4171 35.6559 37.4873 35.9195 38.8547 35.4173C39.0014 35.3634 39.8661 34.5153 40.3371 34.2687C41.0362 33.9028 41.7853 33.6972 42.4314 33.3375C43.0212 33.0091 43.7162 31.959 44.4056 31.6397C45.0441 31.3439 45.927 31.2403 46.6325 31.1226Z" fill="#060303"/>
<path d="M36.244 36.612C37.3744 37.6942 38.1501 35.7509 39.1346 35.9376C39.2402 36.2057 39.3004 36.3331 39.4779 36.5615C39.4576 36.946 39.198 37.3693 39.0177 37.7231C38.7093 37.7756 38.3816 37.8375 38.0727 37.8739C37.62 38.3747 37.162 38.9147 36.5243 39.1683C36.7908 38.8153 36.5902 38.2702 36.7072 37.6802C34.9847 37.9884 34.3649 37.8925 34.5641 39.776C33.563 39.4024 33.3529 39.4364 32.6678 40.3468C32.3948 40.4105 32.4306 40.3692 32.1231 40.2538L31.881 38.8627C33.0362 37.8915 33.9057 37.8398 35.2289 37.1807C35.6443 36.9737 35.7864 36.812 36.244 36.612Z" fill="#1D0F11"/>
<path d="M44.5859 35.4827C44.7452 35.3082 44.711 35.2836 44.8878 35.2619L44.9281 35.6966C44.7522 36.4585 43.8237 39.3145 44.0869 39.7492C44.4615 39.6429 44.8731 38.9922 45.6424 38.8429C45.212 39.4891 44.7698 39.3238 44.4783 40.1452C43.9679 40.5163 43.6576 40.697 43.5609 41.3542C43.5554 41.3932 43.5507 41.4321 43.5467 41.4712L43.3845 41.3198C42.8958 40.2407 44.1613 36.6442 44.5859 35.4827Z" fill="#3D0711"/>
<path d="M40.2767 35.941C41.2191 35.1514 40.9491 34.1466 42.8478 34.1004C42.5794 34.945 42.6489 35.0469 42.5557 35.9139C42.2299 35.8287 41.9141 35.7116 41.5929 35.8047C41.1834 36.1408 41.379 36.9394 40.5543 36.8649L40.408 36.9525C40.3752 36.5398 40.4876 36.2854 40.2767 35.941Z" fill="#1D0F11"/>
<path d="M30.26 42.1142C30.9949 43.1399 31.6025 44.2313 32.287 45.2902L32.4929 45.7927C32.7457 46.4644 33.4287 47.0642 32.8672 47.5808L32.6381 47.5155C32.3979 46.7052 32.274 46.4103 31.7683 45.7287C31.5473 45.3434 31.2978 44.8713 31.0209 44.5336C30.8704 43.8509 30.2834 42.9737 30.1768 42.1933L30.26 42.1142Z" fill="#1D0F11"/>
<path d="M38.0764 37.8735C38.3852 37.8371 38.7129 37.7752 39.0214 37.7226C38.8899 38.2763 38.7932 38.3744 38.5487 38.8578C38.1315 39.6825 37.0155 40.3908 36.5279 39.1678C37.1657 38.9143 37.6237 38.3742 38.0764 37.8735Z" fill="#060303"/>
<path d="M34.569 39.7762C34.5353 41.3705 32.4122 41.5739 32.128 40.254C32.4355 40.3694 32.3997 40.4107 32.6727 40.347C33.3577 39.4366 33.5679 39.4026 34.569 39.7762Z" fill="#060303"/>
<path d="M42.5591 35.9143C42.2898 36.528 41.894 37.5083 41.0684 37.6228C40.7106 37.6725 40.4703 37.2838 40.4114 36.9529L40.5577 36.8653C41.3824 36.9398 41.1868 36.1412 41.5963 35.8052C41.9175 35.712 42.2333 35.8292 42.5591 35.9143Z" fill="#060303"/>
<path d="M32.3446 44.9217C32.1898 43.9339 30.5009 41.8503 30.8832 41.3021C31.0394 41.3831 31.4777 42.604 31.829 43.0775C32.2829 43.7426 32.5339 44.2363 32.8119 44.9946L32.3446 44.9217Z" fill="#8F2A3C"/>
<path d="M32.13 48.6438C32.3406 49.0748 32.5453 49.5536 32.8497 49.9188C32.7347 49.9946 32.6461 50.0068 32.5139 50.0401C32.183 49.7424 32.2084 49.4485 31.9154 49.2425L31.7326 49.2764C31.431 49.347 31.39 49.3546 31.0837 49.2963C31.4334 49.0596 31.7507 48.8336 32.13 48.6438Z" fill="#560619"/>
<path d="M32.8122 44.9949L32.9827 45.0664C33.0454 45.2735 33.1071 45.4808 33.1677 45.6884L33.0116 45.8312C33.054 46.025 33.0648 46.0508 33.1692 46.2195C32.8015 46.1071 32.7645 46.0719 32.4972 45.7926L32.2912 45.29L32.3449 44.922L32.8122 44.9949Z" fill="#7E1721"/>
<path d="M26.6691 48.7994C26.4485 48.5055 26.2982 48.3474 26.218 47.9917L26.2964 47.9156C26.5705 47.9942 26.6498 48.1301 26.832 48.3512C27.0317 48.5614 27.5133 48.9676 27.5541 49.1874C27.1641 49.2729 26.9253 49.0545 26.6691 48.7994Z" fill="#8F2A3C"/>
<path d="M33.1677 45.688C33.3862 46.0467 34.1186 47.0891 34.1991 47.3537L34.1374 47.4703C33.8046 47.3615 33.249 46.5446 33.1691 46.2191C33.0648 46.0503 33.054 46.0245 33.0116 45.8307L33.1677 45.688Z" fill="#8F2A3C"/>
<path d="M31.7324 49.2768L31.9152 49.2429C32.2083 49.449 32.1828 49.7428 32.5137 50.0405L32.5038 50.2511L32.3748 50.2904C32.0618 50.0657 31.7475 49.6619 31.7324 49.2768Z" fill="#8F2A3C"/>
<path d="M33.5272 48.7974C33.502 48.6444 33.4896 48.6129 33.5195 48.4549L33.7789 48.4631C34.0143 49.1125 34.2029 49.3701 34.4557 49.9384C34.8299 50.3245 35.3968 52.174 35.5172 52.7567L35.4572 52.9565L35.5398 52.8924L35.5235 53.0047C35.2221 52.8865 34.1854 50.4843 34.0443 50.0855C33.8109 49.6562 33.8402 49.2707 33.5272 48.7974Z" fill="#3D0711"/>
<path d="M34.733 49.4633C35.2907 49.7745 35.0192 49.7723 35.4232 50.1607C35.4944 50.2291 36.1322 50.4026 36.2166 50.5138C36.4496 50.8208 36.6039 51.1008 36.6215 51.4713C36.506 51.3835 36.3417 51.2637 36.3046 51.1184C36.1124 50.3656 35.211 50.7833 34.8866 50.0876C34.7063 49.701 34.6947 49.9303 34.733 49.4633Z" fill="#8F2A3C"/>
<path d="M33.3209 44.8739C33.5613 44.9294 33.6339 44.9033 33.788 45.1194C34.1953 45.6903 34.747 46.591 34.9975 47.2379C34.5549 47.2658 33.6267 45.3441 33.3209 44.8739Z" fill="#8F2A3C"/>
<path d="M34.8359 47.5195C35.004 47.7235 35.3036 48.0185 35.2109 48.3088C35.0809 48.6036 35.1624 48.5303 34.9247 48.6386C34.7422 48.5893 34.626 48.563 34.4509 48.4803C34.495 48.2313 34.5857 48.0504 34.6843 47.8187L34.8359 47.5195Z" fill="#560619"/>
<path d="M34.8359 47.5195C35.004 47.7235 35.3036 48.0185 35.2109 48.3088C35.0571 48.1817 34.8362 47.9615 34.6843 47.8187L34.8359 47.5195Z" fill="#8F2A3C"/>
<path d="M27.7796 49.421C28.0523 49.5401 28.1046 49.5578 28.326 49.766C28.3707 50.027 28.3877 49.9166 28.2065 50.1911C27.9681 50.0676 27.9253 50.0371 27.7258 49.8571C27.6587 49.5897 27.6527 49.7037 27.7796 49.421Z" fill="#7E1721"/>
<path d="M35.5123 49.1327C35.6836 49.2917 35.7869 49.3606 35.8474 49.5911L35.7369 49.7751C35.4801 49.5241 35.4025 49.5374 35.3587 49.2518L35.5123 49.1327Z" fill="#8F2A3C"/>
<path d="M72.4508 59.9229C72.613 59.8727 72.6469 59.8837 72.8198 59.8938L72.8795 60.0402C73.105 60.6377 73.5031 60.7276 74.0802 60.8808C73.4975 60.9596 72.6714 61.0948 72.1034 61.1158C70.8217 61.0075 69.6824 61.2302 68.4515 61.2556L57.7439 61.5359C57.1724 61.5548 55.739 61.6224 55.2371 61.5199L55.1691 61.5186C54.8055 61.5889 54.4064 61.6803 54.0395 61.6919C53.8159 61.7165 53.5783 61.7494 53.3547 61.7522C50.4927 61.8659 48.0116 62.1341 45.0858 61.9578C44.8867 61.9833 44.5843 62.0378 44.3958 62.0106C43.8082 62.0406 43.1588 62.0504 42.583 62.095C41.8104 62.1049 41.0379 62.1228 40.2656 62.1487L40.2075 61.9984L40.2675 61.8698L40.6478 61.7417C40.3419 61.1125 40.822 60.7641 40.3265 60.3781C40.208 60.1818 39.8778 60.0919 39.6423 59.998C40.1397 59.9473 41.3744 60.0009 41.9299 60.0001L46.5149 59.9484C51.3701 59.894 56.972 59.8128 61.79 59.5855C63.1654 59.5767 66.1307 59.3665 67.3304 59.499C68.0729 59.8232 68.5839 59.4978 69.3063 59.8281C69.4609 60.1103 69.4501 60.1735 69.4459 60.4902L69.5097 60.567C69.9512 60.7725 70.11 60.8393 70.571 60.6886C70.9136 60.3509 71.3571 60.233 71.6383 59.8874C71.9768 59.9202 72.1241 60.0395 72.4508 59.9229Z" fill="#5C0418"/>
<path d="M72.4486 59.923C72.6108 59.8728 72.6448 59.8838 72.8176 59.8939L72.8774 60.0403C73.1028 60.6378 73.5009 60.7278 74.0781 60.8809C73.4953 60.9597 72.6693 61.0949 72.1013 61.1159C70.8196 61.0076 69.6803 61.2303 68.4494 61.2557L57.7418 61.536L57.6699 61.1739L57.7697 60.8765L57.9907 60.8325L58.2089 60.988C58.8187 61.5241 60.4771 61.0153 61.2827 61.1344C61.4696 61.162 61.6461 61.1328 61.8228 61.0638C62.1498 60.9158 62.2632 60.9785 62.5562 61.0906C63.3733 60.9856 64.221 61.0646 65.1923 60.9388C65.3162 60.6582 65.4831 60.1831 65.7035 60.0078L65.7975 60.0581C65.8311 60.3234 65.8617 60.5341 65.9147 60.7965C66.2047 60.9618 68.5408 61.009 68.7213 60.6877C68.9427 60.2934 68.7245 60.2177 69.3042 59.8283C69.4588 60.1105 69.448 60.1737 69.4438 60.4904L69.5076 60.5671C69.9491 60.7727 70.1079 60.8394 70.5689 60.6887C70.9115 60.351 71.355 60.2332 71.6362 59.8875C71.9747 59.9203 72.122 60.0396 72.4486 59.923Z" fill="#1D0F11"/>
<path d="M72.4498 59.9224C72.612 59.8722 72.646 59.8832 72.8189 59.8933L72.8786 60.0397C73.104 60.6372 73.5021 60.7271 74.0793 60.8803C73.4965 60.9591 72.6705 61.0943 72.1025 61.1152L71.9703 60.7997L72.1631 60.7859C72.3583 60.5946 72.3661 60.254 72.4498 59.9224Z" fill="#060303"/>
<path d="M71.6332 59.8873C71.9717 59.92 72.119 60.0393 72.4457 59.9228C72.3619 60.2544 72.3542 60.5949 72.1589 60.7863L71.9661 60.8001C71.5036 60.7687 71.0249 60.7438 70.5659 60.6885C70.9085 60.3508 71.352 60.2329 71.6332 59.8873Z" fill="#3D0711"/>
<path d="M52.8478 61.4717L53.3488 61.7515C50.4869 61.8652 48.0057 62.1335 45.0799 61.9572L45.2379 61.7613C45.724 61.6664 46.4984 61.6446 47.0161 61.6157C47.1455 61.6327 47.3952 61.5662 47.6381 61.5823C48.4317 61.5542 49.8638 61.5424 50.6203 61.629C50.5956 61.1365 50.5138 60.8793 50.6818 60.4174L50.7908 60.3932C51.031 60.6595 51.0594 61.0574 51.1418 61.4307C51.692 61.4293 52.2937 61.4573 52.8478 61.4717Z" fill="#1D0F11"/>
<path d="M43.4694 61.6294C43.4336 61.3139 43.3197 60.7999 43.575 60.5757C43.7345 60.7746 43.8557 61.0006 43.9106 61.2487C43.9954 61.6318 44.1742 61.7087 44.3932 62.0107C43.8056 62.0407 43.1562 62.0505 42.5804 62.0951C42.4247 62.0317 42.2814 61.8915 42.1502 61.7803C42.5446 61.7196 43.0642 61.6751 43.4694 61.6294Z" fill="#1D0F11"/>
<path d="M57.6699 61.1733L57.7418 61.5354C57.1704 61.5543 55.7369 61.622 55.235 61.5194C55.7646 61.0323 57.3577 61.2893 57.6699 61.1733Z" fill="#560619"/>
<path d="M54.1314 61.3396C54.1653 61.076 54.1902 60.52 54.3308 60.3561C54.8776 61.0074 54.3913 61.0093 55.1659 61.5183C54.8023 61.5886 54.4032 61.68 54.0363 61.6917C54.0452 61.5686 54.0916 61.4573 54.1314 61.3396Z" fill="#1D0F11"/>
<path d="M42.1485 61.7799C42.2797 61.8911 42.4229 62.0313 42.5786 62.0947C41.806 62.1046 41.0335 62.1225 40.2613 62.1484L40.2032 61.9981L40.2631 61.8695L40.6434 61.7414C41.0985 61.7871 41.7221 61.8891 42.1485 61.7799Z" fill="#1D0F11"/>
<path d="M47.02 61.616C46.9852 61.324 46.9039 60.6663 47.0525 60.4514L47.2024 60.4489C47.4855 60.7841 47.3491 61.2203 47.642 61.5826C47.3991 61.5665 47.1494 61.633 47.02 61.616Z" fill="#1D0F11"/>
<path d="M54.1337 61.3397C54.0939 61.4575 54.0475 61.5688 54.0386 61.6918C53.815 61.7164 53.5774 61.7493 53.3538 61.752L52.8527 61.4722C53.5434 61.2533 53.4759 61.3329 54.1337 61.3397Z" fill="#560619"/>
<path d="M62.1028 59.9791C62.4434 60.3514 62.1652 60.6466 62.5558 61.0898C62.2628 60.9777 62.1494 60.915 61.8224 61.063C61.8205 60.6798 61.8542 60.2786 62.1028 59.9791Z" fill="#3D0711"/>
<path d="M57.7692 60.8764C57.7118 60.5363 57.6103 60.2947 57.965 60.1458L58.154 60.2683C58.2892 60.4773 58.2318 60.7343 58.2084 60.988L57.9902 60.8325L57.7692 60.8764Z" fill="#3D0711"/>
<path d="M27.6322 59.4988C27.9313 59.7166 28.0108 59.736 28.38 59.7547L28.4369 59.8992L28.1497 60.0431C28.2553 60.0459 28.2843 60.1152 28.4257 60.1153C28.1895 60.5462 28.1266 60.8742 28.1223 61.3694C26.6153 61.3458 25.1421 61.1203 23.6826 61.0904C21.3332 61.0422 20.023 60.613 17.7904 59.9988C13.8783 58.9225 9.33696 58.2751 6.21626 55.4454C5.5138 54.7967 5.41603 53.5587 5.3976 52.6297C6.12896 53.6989 9.997 54.8804 11.3735 55.3142C15.4114 56.5868 19.5159 58.0899 23.6976 58.7919C25.0143 59.013 26.3238 59.2534 27.6322 59.4988Z" fill="#5C0418"/>
<path d="M39.6421 59.9973C39.8775 60.0912 40.2078 60.1811 40.3263 60.3775C40.8218 60.7634 40.3417 61.1118 40.6475 61.7411L40.2672 61.8691L40.2073 61.9977L40.2654 62.148C39.3072 62.1463 38.5848 62.148 37.6288 62.2179C37.4435 62.2447 37.251 62.2758 37.0661 62.2987C36.6272 62.289 36.2573 62.2433 35.8244 62.2161C34.8354 62.1541 33.2602 62.579 32.5101 61.8559C32.2519 61.8566 31.9968 61.8439 31.7455 61.896C31.1526 62.1024 31.0329 62.1655 30.4463 61.9988L30.3519 61.8644C30.5025 61.6236 30.5293 61.6809 30.8709 61.5654C30.4968 61.536 29.0067 61.3417 28.838 61.3728C28.547 61.4705 28.4315 61.4715 28.1289 61.3694C28.1333 60.8742 28.1961 60.5461 28.4323 60.1152C28.291 60.1152 28.2619 60.0458 28.1563 60.0431L28.4436 59.8992L28.3866 59.7546C28.0175 59.736 27.9379 59.7166 27.6388 59.4988C29.4782 59.6758 31.7844 59.8343 33.6284 59.8999C34.5474 59.8483 35.9146 59.95 36.8489 59.9682C37.774 59.9862 38.7291 59.9688 39.6421 59.9973Z" fill="#560619"/>
<path d="M36.847 61.8341C37.0568 62.0969 37.0029 61.9739 37.0597 62.299C36.6208 62.2893 36.2509 62.2436 35.818 62.2164C34.829 62.1544 33.2538 62.5793 32.5037 61.8562C32.9969 61.774 33.517 61.7213 34.0164 61.7372C34.1553 61.8313 34.3553 61.7875 34.5331 61.7745C35.0057 61.8107 36.3968 61.8637 36.847 61.8341Z" fill="#060303"/>
<path d="M40.3229 60.3783C40.8184 60.7642 40.3383 61.1126 40.6442 61.7418L40.2638 61.8699L40.2039 61.9985L40.262 62.1488C39.3038 62.1471 38.5814 62.1487 37.6254 62.2187C37.9004 62.03 37.92 62.081 38.0231 61.8206C38.2595 61.6781 39.58 61.8319 39.8917 61.665C40.0863 61.5609 40.1379 60.8061 40.2938 60.4443L40.3229 60.3783Z" fill="#3D0711"/>
<path d="M30.8643 61.5653C31.1703 61.1387 30.8855 60.3746 31.4534 60.2297C31.6312 60.4179 31.3423 61.0251 31.739 61.896C31.146 62.1023 31.0263 62.1654 30.4397 61.9988L30.3454 61.8643C30.4959 61.6235 30.5228 61.6809 30.8643 61.5653Z" fill="#1D0F11"/>
<path d="M36.8463 61.8342C36.9771 61.3868 36.9133 60.6127 37.3344 60.4483L37.3267 60.4327C37.3671 60.8206 37.4164 61.2076 37.4742 61.5933C37.666 61.8369 37.6212 61.7631 38.0194 61.8203C37.9162 62.0807 37.8966 62.0296 37.6217 62.2183C37.4363 62.2452 37.2439 62.2762 37.0589 62.2991C37.0021 61.9741 37.056 62.097 36.8463 61.8342Z" fill="#1D0F11"/>
<path d="M28.4287 60.1159L28.6137 60.1031C28.7817 60.3411 28.6786 60.8905 28.8344 61.3734C28.5434 61.4711 28.4279 61.4721 28.1253 61.37C28.1296 60.8748 28.1925 60.5468 28.4287 60.1159Z" fill="#3D0711"/>
<path d="M34.4097 60.3377C34.4843 60.8476 34.3637 61.2739 34.5362 61.7741C34.3584 61.7871 34.1584 61.8309 34.0195 61.7368C33.9667 61.1903 33.7887 60.5262 34.4097 60.3377Z" fill="#1D0F11"/>
<path d="M99.3951 56.265C99.181 56.5816 98.5623 57.2523 98.5191 57.4145L98.5857 57.6765C98.6775 58.0573 98.7402 58.0311 98.6059 58.3111C97.3521 59.284 94.9632 59.379 93.4138 59.5203L88.1117 59.952C87.1855 60.0243 86.2098 60.2654 85.26 60.3524C83.8296 60.4836 82.3997 60.4998 80.9746 60.6314L80.8131 60.294C81.16 60.2162 82.2705 60.2163 82.69 60.1962C82.7158 59.7623 82.6912 59.4016 82.9799 59.0748C83.3888 59.1585 83.013 60.1138 83.8407 60.0772C84.6045 60.0433 85.4082 59.9897 86.1621 59.9332L86.2934 59.7823C86.5429 59.714 86.7221 59.6449 86.9797 59.6913C87.0285 59.6873 87.0813 59.6799 87.1303 59.6863C87.9621 59.7964 90.5499 59.4306 91.5102 59.3162L92.0583 59.2198L92.0796 58.6089C92.0745 58.4618 92.0369 58.2367 92.0167 58.084C91.9403 57.9913 91.9809 57.9116 91.9927 57.748C93.1961 57.6077 98.6535 56.7149 99.3951 56.265ZM98.1701 58.1352C98.0096 57.8689 97.898 57.6216 97.6267 57.4782L97.4897 57.5031C97.3711 57.8902 97.5051 58.0767 97.6661 58.4782C97.9954 58.4527 98.0057 58.3845 98.1701 58.1352Z" fill="#7E1721"/>
<path d="M98.5876 57.6768C98.6794 58.0575 98.7421 58.0314 98.6078 58.3113C97.3539 59.2842 94.9651 59.3792 93.4157 59.5205L88.1136 59.9522C87.1874 60.0245 86.2117 60.2656 85.2619 60.3527C83.8315 60.4838 82.4015 60.5 80.9765 60.6316L80.815 60.2942C81.1619 60.2164 82.2724 60.2165 82.6918 60.1965C82.7177 59.7625 82.6931 59.4018 82.9818 59.075C83.3906 59.1587 83.0148 60.1141 83.8426 60.0774C84.6064 60.0436 85.41 59.9899 86.164 59.9334L86.2953 59.7825C86.5448 59.7142 86.724 59.6451 86.9816 59.6915C87.0304 59.6875 87.0832 59.6801 87.1322 59.6865C87.964 59.7966 90.5517 59.4308 91.512 59.3164L92.0602 59.22C92.5424 59.2872 93.4138 59.1206 93.8918 59.0268C93.9264 58.6877 93.9264 58.2898 94.1261 58.0256L94.2486 58.0375C94.3789 58.3131 94.3016 58.7291 94.2719 59.0475C94.9171 58.9785 95.4096 58.9116 96.0469 58.7914C96.054 58.4035 96.0695 58.021 96.304 57.7092L96.412 57.7256C96.5215 58.0069 96.416 58.3964 96.3624 58.7069C96.6974 58.6737 97.3159 58.543 97.668 58.4784C97.9973 58.4529 98.0076 58.3847 98.172 58.1354C98.3127 57.789 98.3061 57.8255 98.5876 57.6768Z" fill="#1D0F11"/>
<path d="M86.5474 58.3061C86.6323 58.4606 86.6791 58.4811 86.6687 58.6254C86.8417 59.1939 86.5702 59.3081 86.9769 59.6907C86.7193 59.6444 86.5401 59.7134 86.2907 59.7817L86.1593 59.9327C85.4054 59.9891 84.6017 60.0428 83.8379 60.0766C83.0102 60.1133 83.386 59.158 82.9771 59.0742C82.6884 59.4011 82.713 59.7617 82.6872 60.1957C82.2677 60.2157 81.1572 60.2157 80.8103 60.2935L80.9719 60.6309C80.2964 60.7017 79.7449 60.7198 79.0643 60.7354L78.9526 60.7395C78.0811 60.8614 76.7602 60.836 75.8496 60.9841C75.7552 60.9387 75.6751 60.9002 75.6091 60.8685C75.7066 60.6377 75.7877 60.0584 75.9124 59.68C75.6573 59.8728 75.7418 59.8702 75.4761 59.8583L75.2622 59.6872C75.2132 59.5968 75.1459 59.5736 75.0539 59.5203L75.0119 59.4963L75.0205 59.4068C75.3615 59.3717 75.5053 59.3658 75.7923 59.1725C76.0016 59.1263 77.3476 59.1558 77.7473 59.1079C80.5922 58.7672 83.7215 58.7009 86.5474 58.3061Z" fill="#5C0418"/>
<path d="M75.9112 59.6801C76.4502 59.7217 76.3745 60.0114 76.5674 60.4547C76.8906 60.5952 78.2397 60.3685 78.6828 60.4584C78.8622 60.4947 78.848 60.5529 78.9515 60.7397C78.08 60.8615 76.759 60.8362 75.8484 60.9842C75.7541 60.9389 75.6739 60.9004 75.6079 60.8686C75.7054 60.6379 75.7865 60.0586 75.9112 59.6801Z" fill="#3D0711"/>
<path d="M79.0656 60.736C79.2396 60.3829 79.3214 59.651 79.6129 59.4966C79.8078 59.6734 79.8052 60.0139 79.8358 60.2893C80.1505 60.281 80.4944 60.2911 80.8116 60.2941L80.9732 60.6315C80.2977 60.7023 79.7462 60.7205 79.0656 60.736Z" fill="#3D0711"/>
<path d="M86.6677 58.6261C86.8407 59.1947 86.5693 59.3089 86.976 59.6915C86.7184 59.6451 86.5391 59.7141 86.2897 59.7825L86.1584 59.9334C86.1847 59.7628 86.1377 59.3338 86.1728 59.0089C86.3771 58.6969 86.2973 58.7924 86.6677 58.6261Z" fill="#3D0711"/>
<path d="M44.4509 55.0913L44.4432 55.369C44.1905 55.3842 43.9544 55.3884 43.7027 55.3924C39.6096 55.4579 35.5426 55.8507 31.4477 55.8498C24.7829 55.7965 18.1482 54.9495 11.6838 53.3269C10.0161 52.924 8.34411 52.6408 6.826 51.7682C6.429 51.54 6.19149 51.1739 5.86078 50.854L5.77702 50.8592L6.00479 50.2052C6.05075 50.3549 6.09947 50.6009 6.2135 50.6848C7.30986 51.9738 13.2683 53.4443 15.002 53.6464L16.1562 53.3922C17.8305 53.6615 18.7655 53.8559 20.2435 54.6709C27.3421 55.78 34.4001 55.6938 41.5372 55.1615C42.5252 55.0878 43.41 55.1814 44.4509 55.0913Z" fill="#B8A881"/>
<path d="M16.1612 53.3914C17.8355 53.6607 18.7705 53.8551 20.2485 54.6701C19.1241 54.5831 16.0931 53.9632 15.007 53.6456L16.1612 53.3914Z" fill="#D8D2B6"/>
<path d="M87.3225 51.2582L87.4937 51.5304C81.6533 52.2714 75.5819 52.7233 69.7118 53.29C66.7262 53.5783 63.5737 54.0056 60.5878 54.0529C58.9566 54.0787 55.3649 54.7797 53.9697 54.5578L53.933 54.3081C55.8472 54.0205 58.2313 53.9019 60.1874 53.7717L67.0937 53.2838C67.9406 53.2305 68.9432 52.9712 69.8062 52.9169C71.5783 52.8053 73.7693 52.7183 75.5099 52.522C78.6397 52.1691 81.8102 51.876 84.921 51.4446C85.6882 51.3382 86.4528 51.381 87.3225 51.2582Z" fill="#B8A881"/>
<path d="M91.989 57.7475C91.9771 57.9111 91.9365 57.9908 92.0129 58.0835C92.0331 58.2362 92.0707 58.4613 92.0758 58.6085L92.0546 59.2193L91.5064 59.3157C90.5461 59.4301 87.9583 59.7959 87.1265 59.6859C87.0775 59.6794 87.0248 59.6868 86.976 59.6908C86.5692 59.3082 86.8407 59.194 86.6677 58.6254C86.6781 58.4811 86.6313 58.4607 86.5464 58.3062C86.8879 58.2309 88.2699 58.1489 88.6817 58.1157C89.7885 58.0354 90.8917 57.9126 91.989 57.7475Z" fill="#6B051F"/>
<path d="M91.5377 58.5809C91.6872 58.5994 91.9229 58.602 92.0806 58.6091L92.0594 59.22L91.5112 59.3164C91.4933 59.0691 91.5197 58.8286 91.5377 58.5809Z" fill="#3D0711"/>
<path d="M92.0197 58.0835C92.0399 58.2362 92.0775 58.4613 92.0826 58.6084C91.9248 58.6013 91.6891 58.5987 91.5396 58.5802C91.6191 58.2126 91.6986 58.1975 92.0197 58.0835Z" fill="#3D0711"/>
<path d="M6.21809 50.6842C6.75916 50.7578 7.37765 51.3543 7.79024 51.3684L7.56465 51.1871L7.64018 51.1485C7.94516 51.2147 8.14273 51.2527 8.41167 51.4133L8.05274 51.1331C10.111 52.0882 13.9132 53.1493 16.1608 53.3916L15.0066 53.6458C13.2729 53.4437 7.31445 51.9733 6.21809 50.6842Z" fill="#DFD9CD"/>
<path d="M75.7923 59.1727C75.5052 59.366 75.3614 59.3719 75.0204 59.407L75.0118 59.4965L75.0538 59.5205C75.1458 59.5737 75.2131 59.597 75.2621 59.6874L75.2212 59.7714C74.4116 59.4398 73.6105 59.5685 72.8136 59.8933C72.6408 59.8832 72.6068 59.8722 72.4446 59.9223C72.118 60.0389 71.9706 59.9196 71.6321 59.8868C70.8463 59.7588 69.8801 59.6622 69.5036 60.5664L69.4398 60.4897C69.444 60.173 69.4548 60.1098 69.3002 59.8276C68.5778 59.4972 68.0667 59.8226 67.3243 59.4985C67.6484 59.4661 68.0186 59.4516 68.3449 59.441C70.8202 59.3607 73.3181 59.2236 75.7923 59.1727Z" fill="#6B051F"/>
<path d="M87.3188 51.2581C87.6536 51.1637 87.9986 51.0458 88.3477 51.0225C90.8613 50.8544 93.4089 50.6016 95.8859 50.1374C96.1835 50.0816 96.5361 49.9718 96.8281 50.0057C95.9425 50.7307 89.0897 51.3469 87.49 51.5303L87.3188 51.2581Z" fill="#D8D2B6"/>
<path d="M50.6051 54.5889L50.656 54.8745C50.1699 54.9036 48.4136 55.1938 48.1391 55.1105L48.0023 54.6707C48.5858 54.3898 49.992 54.4377 50.6051 54.5889Z" fill="#D8D2B6"/>
<path d="M50.6012 54.5894C51.2078 54.4151 53.3183 54.2415 53.9271 54.3083L53.9639 54.558C53.3491 54.6261 51.1223 54.9501 50.652 54.875L50.6012 54.5894Z" fill="#B8A881"/>
<path d="M44.4545 55.0909C45.0392 54.93 46.766 54.5883 47.3216 54.7279C47.3146 54.8733 47.2911 55.0553 47.3405 55.185C46.98 54.9825 44.947 55.2879 44.4468 55.3686L44.4545 55.0909Z" fill="#D5CC9F"/>
<path d="M48.002 54.6713L48.1388 55.1111C47.922 55.1362 47.5462 55.1904 47.3411 55.1854C47.2917 55.0556 47.3153 54.8737 47.3222 54.7283L48.002 54.6713Z" fill="#B8A881"/>
<path d="M75.2008 10.7784C76.3473 11.344 77.5223 11.4323 78.7858 11.6568C79.5805 11.7526 80.5437 12.131 81.329 12.174C84.2988 12.3368 87.2194 11.3701 90.1429 11.0631C91.153 10.9571 91.0215 12.3286 91.627 12.8907C91.8287 12.9893 92.0339 13.0764 92.0922 13.3386C92.4885 15.1218 92.3148 17.2844 92.6374 19.0806C92.9341 20.3096 93.2191 23.5657 93.0779 24.8204C93.1008 25.2932 93.0012 25.3505 93.151 25.7892C93.39 25.9775 94.0627 26.0362 94.4097 26.1276L94.4002 26.1914C94.519 27.47 94.6387 28.7161 94.702 29.9986C93.8553 30.2207 93.0116 30.4577 92.204 30.7993C88.3092 32.4465 84.2809 33.7291 80.2901 35.1159C78.2321 35.8312 76.3312 36.6979 74.2217 37.261C74.2125 36.5008 73.4499 36.6968 72.9411 36.249C71.4128 35.5327 69.3586 35.0226 68.1005 34.4036C66.58 34.123 64.3137 32.6011 62.995 32.2191C62.4075 31.9969 61.6496 31.7337 61.1092 31.4465L61.0949 31.2314C60.9164 31.0726 60.791 30.9873 60.5977 30.8548C60.3626 30.7173 60.3105 30.7063 60.0551 30.6423C60.281 30.5331 60.3219 30.509 60.5111 30.3447C60.4818 29.7473 59.4129 28.0335 58.5266 28.6086C58.4974 27.677 58.9947 27.2963 58.4414 26.4281C58.2846 26.2988 58.2855 25.876 58.2661 25.6736C57.7228 25.082 57.6911 23.6785 57.2867 22.8995C57.0425 22.429 56.7821 21.7546 56.5907 21.2533L56.5793 21.1625L56.1684 21.102C56.4004 20.6982 56.7511 20.2818 57.0956 19.9703L57.2498 19.7657C58.3073 18.2402 57.8365 17.6672 58.1936 15.996C58.4153 14.9581 59.2356 13.7679 59.9006 12.9523C59.9924 11.4737 60.5492 10.9241 61.4188 9.80776L61.7454 9.24311L62.1506 8.61361C63.1671 7.4546 62.5045 5.69473 63.8744 4.69989C64.3738 4.33723 65.5904 4.17233 66.1823 4.27873C66.8318 4.21969 67.2969 4.36438 67.7511 4.82189C68.1566 5.52093 68.1764 5.8816 67.965 6.67358C67.9035 6.89809 67.8369 7.12117 67.7651 7.34255C67.2687 7.24476 67.2352 7.06098 67.0168 7.02198C66.7138 6.90119 66.4116 6.77837 66.1102 6.65372C65.9007 6.60709 65.6677 6.56837 65.4764 6.47829C65.544 6.6762 65.5715 6.69161 65.7467 6.80971C66.2988 7.03007 67.2621 7.44083 67.8508 7.46377C68.9396 8.22908 71.0889 8.86991 72.3279 9.50357C73.2479 9.97412 74.264 10.2044 75.2008 10.7784ZM79.6136 26.0044C79.6187 25.6554 79.6753 25.664 79.5137 25.4229L79.4571 25.3959C79.2709 25.3053 79.2134 25.2864 79.0824 25.1196C79.2228 25.4738 79.0656 25.694 79.2551 25.9514C79.4266 26.0219 79.4374 26.0345 79.6136 26.0044Z" fill="#520316"/>
<path d="M75.2008 10.7784C76.3473 11.344 77.5223 11.4323 78.7858 11.6568C79.5805 11.7526 80.5437 12.131 81.329 12.174C84.2988 12.3368 87.2194 11.3701 90.1429 11.0631C91.153 10.9571 91.0215 12.3286 91.627 12.8907C91.8287 12.9893 92.0339 13.0764 92.0922 13.3386C92.4885 15.1218 92.3148 17.2844 92.6374 19.0806C90.6227 19.716 82.9744 18.6006 80.7679 17.9804C76.6319 16.9643 72.7658 15.7589 68.9131 13.9653C68.6871 13.8601 68.4838 13.7538 68.2485 13.6677C67.2527 13.1921 66.2679 12.6937 65.295 12.1728C64.7613 11.8848 64.2316 11.5849 63.6996 11.2928C63.4889 11.1772 63.073 11.0358 62.9062 10.9188C62.1769 10.378 61.4964 10.8184 60.8552 11.2362C60.0534 11.7588 60.3627 12.7625 60.0377 12.9681C59.978 12.5585 60.686 10.5539 61.1197 10.5357C61.5415 10.5181 62.3829 10.41 62.7639 10.442C63.8913 10.5363 66.0236 11.5225 67.0989 11.1886C65.5381 10.875 63.2641 10.3595 61.6358 10.0603C61.6379 10.0607 61.4319 9.86735 61.4357 9.84104C61.4301 9.82992 61.4245 9.81881 61.4188 9.80776L61.7454 9.24311L62.1506 8.61361C63.1671 7.4546 62.5045 5.69473 63.8744 4.69989C64.3738 4.33723 65.5904 4.17233 66.1823 4.27873C66.8318 4.21969 67.2969 4.36438 67.7511 4.82189C68.1566 5.52093 68.1764 5.8816 67.965 6.67358C67.9035 6.89809 67.8369 7.12117 67.7651 7.34255C67.2687 7.24476 67.2352 7.06098 67.0168 7.02198C66.7138 6.90119 66.4116 6.77837 66.1102 6.65372C65.9007 6.60709 65.6677 6.56837 65.4764 6.47829C65.544 6.6762 65.5715 6.69161 65.7467 6.80971C66.2988 7.03007 67.2621 7.44083 67.8508 7.46377C68.9396 8.22908 71.0889 8.86991 72.3279 9.50357C73.2479 9.97412 74.264 10.2044 75.2008 10.7784Z" fill="#151114"/>
<path d="M75.2008 10.7784C76.3473 11.344 77.5223 11.4323 78.7858 11.6568C79.5805 11.7526 80.5437 12.131 81.329 12.174C84.2988 12.3368 87.2194 11.3701 90.1429 11.0631C91.153 10.9571 91.0215 12.3286 91.627 12.8907C91.0016 13.215 79.6025 12.8283 78.0499 12.7271C76.3215 12.6144 74.569 12.4224 72.8513 12.2005C71.2684 11.9961 68.5156 11.1212 67.0989 11.1886C65.5381 10.875 63.2641 10.3595 61.6358 10.0603C61.6379 10.0607 61.4319 9.86735 61.4357 9.84104C61.4301 9.82992 61.4245 9.81881 61.4188 9.80776L61.7454 9.24311L62.1506 8.61361C63.1671 7.4546 62.5045 5.69473 63.8744 4.69989C64.3738 4.33723 65.5904 4.17233 66.1823 4.27873C66.8318 4.21969 67.2969 4.36438 67.7511 4.82189C68.1566 5.52093 68.1764 5.8816 67.965 6.67358C67.9035 6.89809 67.8369 7.12117 67.7651 7.34255C67.2687 7.24476 67.2352 7.06098 67.0168 7.02198C66.7138 6.90119 66.4116 6.77837 66.1102 6.65372C65.9007 6.60709 65.6677 6.56837 65.4764 6.47829C65.544 6.6762 65.5715 6.69161 65.7467 6.80971C66.2988 7.03007 67.2621 7.44083 67.8508 7.46377C68.9396 8.22908 71.0889 8.86991 72.3279 9.50357C73.2479 9.97412 74.264 10.2044 75.2008 10.7784Z" fill="#5C0418"/>
<path d="M66.1812 4.27884C66.8307 4.21981 67.2959 4.36449 67.75 4.82201C68.1556 5.52104 68.1753 5.88171 67.9639 6.67369C67.9024 6.8982 67.8358 7.12128 67.764 7.34266C67.2676 7.24487 67.2341 7.06109 67.0157 7.02209C66.7127 6.9013 66.4105 6.77848 66.1091 6.65383C65.8996 6.60721 65.6666 6.56849 65.4754 6.47841C65.5429 6.67631 65.5704 6.69172 65.7456 6.80982C66.2977 7.03018 67.261 7.44094 67.8497 7.46389C68.9385 8.2292 71.0878 8.87003 72.3268 9.50368C73.2468 9.97423 74.2629 10.2045 75.1997 10.7785C74.4549 10.8362 74.197 10.6456 73.5841 10.5927C72.9285 11.201 70.6585 10.3951 69.8207 10.1979C67.9713 9.7626 66.0095 9.08093 64.1328 8.80477C63.2985 8.83527 62.5456 9.01434 61.7443 9.24322L62.1495 8.61372C63.166 7.45471 62.5034 5.69484 63.8733 4.7C64.3727 4.33734 65.5893 4.17245 66.1812 4.27884Z" fill="#060303"/>
<path d="M73.5861 10.5929C72.9305 11.2013 70.6605 10.3953 69.8227 10.1982C67.9733 9.76284 66.0115 9.08118 64.1348 8.80502L64.0709 8.65306L64.1757 8.57218C64.4831 8.56524 64.5708 8.549 64.8697 8.48263C65.2337 8.50779 66.369 8.82647 66.7797 8.93427C68.0335 9.26652 69.2891 9.59235 70.5462 9.91173C71.4573 10.1343 72.7905 10.3023 73.5861 10.5929Z" fill="#8F2A3C"/>
<path d="M66.1814 4.27849C66.8309 4.21946 67.296 4.36414 67.7502 4.82166L67.4958 4.82192C67.2317 5.17442 67.7336 6.03674 66.9073 6.35592C66.7823 5.66293 66.6071 4.86259 66.1814 4.27849Z" fill="#1D0F11"/>
<path d="M62.1527 8.61359C62.4245 8.65614 63.8085 8.27264 64.8709 8.48226C64.572 8.54863 64.4844 8.56486 64.177 8.5718L64.0721 8.65269L64.136 8.80464C63.3018 8.83514 62.5488 9.01421 61.7476 9.2431L62.1527 8.61359Z" fill="#7E1721"/>
<path d="M65.4773 6.47806C65.6376 6.05444 65.863 5.15419 66.4079 5.22638C66.7135 5.66915 66.4268 6.29575 66.1111 6.65348C65.9016 6.60686 65.6685 6.56814 65.4773 6.47806Z" fill="#5C0418"/>
<path d="M65.7492 6.81037C65.2776 6.6609 64.4461 6.60066 64.3359 6.02428C64.7254 5.82925 65.2147 6.19411 65.4789 6.47896C65.5464 6.67686 65.574 6.69227 65.7492 6.81037Z" fill="#191518"/>
<path d="M93.0757 24.8211C93.0986 25.2939 92.999 25.3512 93.1488 25.7899C93.3879 25.9782 94.0605 26.0369 94.4075 26.1283L94.398 26.1921C94.5168 27.4707 94.6365 28.7168 94.6998 29.9993C93.8532 30.2214 93.0094 30.4584 92.2018 30.8C88.307 32.4472 84.2787 33.7298 80.288 35.1166C78.2299 35.8319 76.329 36.6986 74.2195 37.2617C74.2103 36.5015 73.4477 36.6975 72.9389 36.2497C71.4106 35.5334 69.3564 35.0233 68.0983 34.4043C66.5779 34.1237 64.3116 32.6018 62.9928 32.2198C62.4054 31.9976 61.6474 31.7344 61.107 31.4472L61.0927 31.2321C60.9142 31.0733 60.7888 30.988 60.5955 30.8555L60.9971 30.8265C61.3544 30.9985 62.2326 31.1077 62.5084 30.892C62.5963 30.726 62.6335 30.72 62.8028 30.617L62.854 30.5865L62.8816 30.4594C63.1309 30.0638 63.3583 29.6547 63.5626 29.234C63.704 28.9629 64.1444 28.4046 64.4036 28.2349C64.7788 27.9893 64.8211 28.0536 65.2053 28.1151C65.7796 28.3424 66.275 28.5327 66.8238 28.8171C67.034 28.8644 68.3337 29.5161 68.6895 29.6544C70.3628 30.2965 72.0904 30.7868 73.8515 31.1193C74.6699 31.2454 76.2463 31.4806 77.0529 31.3451C79.7697 30.8665 82.5341 29.9568 85.146 29.0445C87.3276 28.2826 89.8182 27.5524 91.9518 26.6897C91.9912 26.5923 92.0177 26.5722 92.0818 26.4891C92.2996 26.451 92.3598 26.4568 92.5345 26.3332C92.5323 26.2002 92.4769 26.1489 92.3998 26.0367L92.3677 25.9905C92.4671 25.8468 93.0801 24.8167 93.0757 24.8211Z" fill="#D1CFD0"/>
<path d="M65.2114 28.1147C65.7857 28.342 66.2811 28.5324 66.8299 28.8167C66.5382 28.8488 66.4565 28.82 66.1936 28.7113C65.9126 28.7639 65.523 29.1653 65.3245 29.3833C65.1082 30.3234 66.7978 30.5338 66.9792 31.2089L66.9516 31.2979C66.1727 30.9827 64.6077 29.1091 63.5687 29.2336C63.7101 28.9625 64.1505 28.4042 64.4097 28.2346C64.7849 27.9889 64.8272 28.0533 65.2114 28.1147Z" fill="#A19EA4"/>
<path d="M93.0781 24.8203C93.1011 25.2931 93.0015 25.3504 93.1512 25.7892C93.3903 25.9774 94.063 26.0361 94.41 26.1275L94.4004 26.1913C94.1969 26.2311 92.0104 26.6932 91.9542 26.6889C91.9936 26.5915 92.0202 26.5714 92.0842 26.4883C92.302 26.4502 92.3622 26.456 92.5369 26.3325C92.5347 26.1995 92.4793 26.1481 92.4022 26.0359L92.3701 25.9898C92.4695 25.846 93.0826 24.8159 93.0781 24.8203Z" fill="#6B051F"/>
<path d="M68.1004 34.4038L68.159 34.3426C68.9849 34.3175 72.4117 35.6389 72.941 36.2492C71.4127 35.533 69.3585 35.0229 68.1004 34.4038Z" fill="#A19EA4"/>
<path d="M62.5136 30.8916C62.3175 31.391 62.1026 31.2154 61.9653 31.4851C62.233 31.8942 62.8048 31.7239 62.9979 32.2195C62.4105 31.9972 61.6526 31.7341 61.1122 31.4469L61.0978 31.2317C60.9193 31.073 60.794 30.9877 60.6007 30.8552L61.0022 30.8261C61.3596 30.9981 62.2378 31.1074 62.5136 30.8916Z" fill="#8C888A"/>
<path d="M77.2906 35.1493C77.3952 35.4711 76.7283 35.7357 76.4696 35.839L76.4181 35.6294C76.6367 35.469 77.0356 35.2799 77.2906 35.1493Z" fill="#A19EA4"/>
<path d="M65.4085 30.7128C65.6318 30.8598 65.8799 30.9808 65.9619 31.2289L65.8666 31.3979C65.6434 31.2334 65.3953 31.0896 65.2829 30.8438L65.4085 30.7128Z" fill="#A19EA4"/>
<path d="M90.6468 30.3246C90.7372 30.5253 90.7365 30.4481 90.6923 30.6381L90.3323 30.7341L90.2428 30.627L90.2593 30.49L90.6468 30.3246Z" fill="#DFD9CD"/>
<path d="M60.7593 21.7266C61.327 21.9485 62.2897 22.275 62.5623 22.8306L62.5027 22.9571C62.5723 23.1003 62.666 23.24 62.6368 23.3886C62.6659 23.9815 62.7991 24.7691 62.9734 25.3368C63.4209 25.8172 63.2996 26.8823 63.6851 27.3306C63.6921 27.3387 64.0146 27.3973 64.1204 27.588C64.4871 27.7535 64.8491 27.9291 65.2062 28.1146C64.822 28.0531 64.7797 27.9888 64.4045 28.2344C64.1453 28.404 63.7048 28.9624 63.5634 29.2334C63.3591 29.6542 63.1318 30.0633 62.8825 30.4589L62.8548 30.586L62.8037 30.6165C62.6343 30.7195 62.5972 30.7255 62.5093 30.8914C62.2335 31.1072 61.3553 30.9979 60.998 30.826L60.5964 30.855C60.3613 30.7175 60.3092 30.7065 60.0538 30.6425C60.2797 30.5333 60.3206 30.5091 60.5098 30.3449C60.4804 29.7475 59.4116 28.0336 58.5253 28.6088C58.4961 27.6771 58.9934 27.2965 58.4401 26.4283C58.2832 26.2989 58.2842 25.8762 58.2648 25.6738C57.7215 25.0821 57.6898 23.6787 57.2854 22.8997C57.0412 22.4291 56.7808 21.7547 56.5894 21.2535L56.5779 21.1627L56.167 21.1022C56.3991 20.6983 56.7498 20.2819 57.0943 19.9705L57.2485 19.7659C57.8955 19.9604 58.4308 20.1841 58.9102 20.6961C59.4812 21.0377 60.1543 21.5068 60.7593 21.7266Z" fill="#3D0711"/>
<path d="M57.0968 19.9707C57.1671 20.2808 57.1243 20.3441 57.0036 20.6354C57.3042 22.3223 58.7312 23.7825 58.2673 25.674C57.724 25.0823 57.6924 23.6789 57.288 22.8999C57.0437 22.4294 56.7833 21.755 56.592 21.2537L56.5805 21.1629L56.1696 21.1024C56.4017 20.6985 56.7523 20.2821 57.0968 19.9707Z" fill="#060303"/>
<path d="M60.7574 21.7264C61.3251 21.9482 62.2877 22.2747 62.5603 22.8303L62.5008 22.9568L62.3376 23.0498C62.2993 23.1833 62.311 23.1848 62.2037 23.269C61.9463 23.1384 61.0909 22.5595 60.8053 22.3768C59.7267 21.687 58.3531 20.8899 57.3839 20.0658L57.4025 20.0035C57.9894 20.1723 58.3771 20.4105 58.9083 20.6958C59.4793 21.0375 60.1524 21.5066 60.7574 21.7264Z" fill="#5C0418"/>
<path d="M64.1254 27.5882C64.4922 27.7537 64.8541 27.9293 65.2112 28.1147C64.827 28.0533 64.7847 27.9889 64.4095 28.2346C64.1503 28.4042 63.7099 28.9625 63.5685 29.2336C63.3642 29.6543 63.1368 30.0634 62.8875 30.4591C62.6618 30.4054 62.6047 30.1883 62.4112 29.9353C62.9269 29.4217 63.6956 28.7287 63.797 27.9769L64.1254 27.5882Z" fill="#5D5D5D"/>
<path d="M62.4054 29.9354C62.5989 30.1884 62.656 30.4055 62.8817 30.4592L62.8541 30.5863L62.8029 30.6167C62.6336 30.7198 62.5964 30.7257 62.5085 30.8917C62.2327 31.1075 61.3545 30.9982 60.9972 30.8262C61.6052 30.5464 61.9225 30.3891 62.4054 29.9354Z" fill="#6E6B6B"/>
<path d="M62.9766 25.3369C63.4241 25.8174 63.3028 26.8824 63.6882 27.3307C63.6953 27.3389 64.0177 27.3975 64.1236 27.5882L63.7951 27.9769L63.3912 27.9193C63.1035 27.694 63.3721 27.712 63.3557 27.3821C63.3253 26.7706 63.1084 25.9185 62.9766 25.3369Z" fill="#1D0F11"/>
<path d="M61.0925 29.0997C61.3894 29.2568 61.5203 29.4669 61.6806 29.745L61.5406 29.8536C61.1706 29.7996 61.2504 29.8605 60.9759 29.65C60.9264 29.3446 60.9481 29.4227 61.0925 29.0997Z" fill="#5C0418"/>
<path d="M61.4198 9.80761C61.4255 9.81866 61.4311 9.82977 61.4367 9.84089C61.4329 9.8672 61.639 10.0605 61.6369 10.0601C63.2651 10.3593 65.5392 10.8749 67.1 11.1885C66.0247 11.5224 63.8924 10.5361 62.765 10.4418C62.384 10.4099 61.5425 10.5179 61.1207 10.5356C60.687 10.5537 59.979 12.5583 60.0387 12.968C60.3637 12.7623 60.0545 11.7587 60.8563 11.2361C61.4974 10.8182 62.1779 10.3778 62.9073 10.9186L62.3306 10.8509C61.0475 10.5621 60.521 12.0132 60.2652 12.9361C61.0065 13.1175 61.367 13.3083 61.9815 13.4836C62.4019 13.7164 62.5691 13.7105 63.0532 13.6991C63.3746 14.6898 63.2323 14.7933 62.5793 15.5396C62.4199 16.208 61.7539 17.5784 61.9102 17.9953C62.4626 19.0394 62.2356 19.468 61.3179 20.1017C61.2395 20.4662 61.1113 21.3739 60.9799 21.6004L60.7617 21.7263C60.1567 21.5065 59.4836 21.0374 58.9126 20.6957C58.4332 20.1837 57.8979 19.9601 57.2509 19.7656C58.3084 18.24 57.8375 17.6671 58.1946 15.9959C58.4163 14.958 59.2367 13.7678 59.9017 12.9522C59.9934 11.4736 60.5502 10.9239 61.4198 9.80761Z" fill="#060303"/>
<path d="M62.5778 15.5396C62.4185 16.208 61.7524 17.5784 61.9088 17.9953L61.3695 17.7318L61.2928 17.6207L61.3174 17.493L61.2668 17.4325C60.8406 16.9185 60.7428 16.5955 60.4879 15.9836C61.1965 15.7607 61.6908 15.8498 62.5778 15.5396Z" fill="#1D0F11"/>
<path d="M61.2922 17.6213L61.3689 17.7324C60.9645 17.829 60.4267 18.0532 60.0855 17.943C59.8086 17.7641 59.4548 16.8605 59.2891 16.5076C59.9291 16.8927 60.6333 17.2618 61.2922 17.6213Z" fill="#191518"/>
<path d="M64.084 24.3625C64.3671 24.4592 65.0354 24.8027 65.264 24.9803C67.0803 26.392 72.7227 28.7181 73.7362 30.6952C73.8051 30.8265 73.8457 30.9707 73.8552 31.1186C72.0941 30.7861 70.3666 30.2958 68.6933 29.6538C68.3374 29.5154 67.0377 28.8637 66.8276 28.8164C66.2788 28.5321 65.7833 28.3417 65.209 28.1144C64.852 27.929 64.49 27.7534 64.1233 27.5879C64.0174 27.3972 63.6949 27.3386 63.6879 27.3304C63.3025 26.8821 63.4238 25.8171 62.9763 25.3366C62.802 24.7689 62.6687 23.9813 62.6397 23.3885C63.0115 23.6632 62.8835 23.8505 63.099 24.0948L63.1679 24.163L63.2912 24.2827C63.5408 24.4087 63.7874 24.3101 64.0687 24.2443L64.084 24.3625Z" fill="#060303"/>
<path d="M64.0708 24.2445L64.0861 24.3627L64.0833 24.4208C64.0505 25.1465 64.208 25.8609 63.9245 26.6203L63.8198 26.6546C63.4999 26.1278 63.1083 24.7646 63.1012 24.095L63.17 24.1632L63.2934 24.2829C63.543 24.4089 63.7896 24.3103 64.0708 24.2445Z" fill="#3D0711"/>
<path d="M80.7696 17.9806L80.727 18.0908C78.566 18.0931 70.8511 15.2129 68.6942 14.258C68.3429 13.9783 68.4761 14.0106 68.2502 13.6679C68.4854 13.754 68.6888 13.8603 68.9148 13.9655C72.7675 15.7591 76.6336 16.9645 80.7696 17.9806Z" fill="#8F2A3C"/>
<path d="M62.9075 10.9194C63.0742 11.0365 63.4901 11.1778 63.7008 11.2935C64.2328 11.5855 64.7625 11.8855 65.2962 12.1734C66.2691 12.6943 67.2539 13.1927 68.2497 13.6683C68.4756 14.0111 68.3424 13.9787 68.6938 14.2584C67.9355 13.9278 62.6351 11.3236 62.3307 10.8517L62.9075 10.9194Z" fill="#8D4E54"/>
<path d="M61.9805 13.4844L61.9104 13.3464C62.234 13.1198 62.3575 13.0278 62.7604 13.1695C62.9853 13.3467 62.9881 13.43 63.0522 13.6999C62.5682 13.7113 62.401 13.7172 61.9805 13.4844Z" fill="#3D0711"/>
<path d="M63.1671 24.1629C63.4077 24.0232 63.5795 23.8989 63.8561 23.8678C64.0613 24.0043 63.9953 23.9256 64.0679 24.2442C63.7866 24.31 63.54 24.4086 63.2904 24.2826L63.1671 24.1629Z" fill="#6B051F"/>
<path d="M79.4517 24.1697C79.7975 24.3191 80.1281 24.0148 80.5033 24.2055C80.6686 24.4875 80.6194 24.4187 80.6303 24.7742C80.3169 25.0924 79.7162 24.9539 79.3416 24.78C79.0967 24.6507 78.8409 24.6718 78.5615 24.666L78.4448 24.5317C78.3797 24.1611 78.4554 23.715 78.8796 23.6346C79.1107 23.7382 79.1425 23.7518 79.2737 23.9662L79.4517 24.1697Z" fill="#8F2A3C"/>
<path d="M79.3371 24.7793C79.0922 24.6499 78.8364 24.671 78.557 24.6652L78.4403 24.5309C78.3752 24.1603 78.451 23.7142 78.8752 23.6338C79.1063 23.7375 79.138 23.751 79.2693 23.9654C79.0176 24.1884 78.9734 24.1516 78.9144 24.4197C79.0439 24.6063 79.1505 24.6589 79.3371 24.7793Z" fill="#5C0418"/>
<path d="M79.4504 24.1694C79.7963 24.3188 80.1269 24.0145 80.502 24.2052C80.6673 24.4872 80.6182 24.4184 80.629 24.774C80.1506 24.5458 79.5897 24.7201 79.4504 24.1694Z" fill="#5C0418"/>
<path d="M83.34 25.1177C83.4605 25.1205 83.4001 25.1109 83.5211 25.2073L83.4621 25.347L83.263 25.4148C82.6252 25.1309 82.0851 25.0835 81.4044 25.1647L81.2682 25.053C81.1251 24.8585 80.9639 24.7002 80.9682 24.4745C81.5358 24.2015 82.7168 25.0321 83.34 25.1177Z" fill="#8F2A3C"/>
<path d="M76.4184 26.8682C76.5081 26.9148 76.5283 26.9644 76.5867 27.0487L76.4788 27.132C75.6064 27.1312 74.3902 26.6472 73.6055 26.303C73.4885 26.2675 73.4457 26.2198 73.3527 26.143L73.366 25.9971C73.5723 25.9501 75.1615 26.6375 75.5237 26.7123C75.8217 26.7739 76.0912 26.8273 76.4184 26.8682Z" fill="#7E1721"/>
<path d="M71.1608 24.1284C71.471 24.2271 71.9651 24.4041 72.1459 24.6767L71.9094 24.9476C72.1803 25.2224 72.5678 25.5695 72.6421 25.9472L72.5723 26.0166C71.7466 25.2751 71.8851 24.8046 70.9984 24.6147L71.1608 24.1284Z" fill="#6B051F"/>
<path d="M72.8391 19.5929C73.0621 19.8205 73.2549 20.0716 73.2157 20.3941L73.0508 20.5036L72.9236 20.4492L72.7899 19.9177C72.5795 19.7669 72.6809 19.7964 72.4031 19.8213C71.7524 19.9583 72.1362 20.0355 71.6798 20.1443L71.6222 20.0035C71.724 19.6584 71.647 19.7644 71.909 19.5244C72.1744 19.4218 72.5471 19.5346 72.8391 19.5929Z" fill="#560619"/>
<path d="M80.0758 25.5889L80.0217 25.4497L80.1035 25.3142C80.4128 25.162 80.6073 25.1254 80.9066 25.3151L80.8978 25.4457L80.7144 25.5759L80.7083 25.6188C80.6827 25.8085 80.6858 25.8624 80.7032 26.052L80.5671 26.2464L80.4129 26.2556C80.2022 26.0477 80.168 25.8702 80.0758 25.5889Z" fill="#5C0418"/>
<path d="M80.0795 25.5889C80.3385 25.6938 80.3982 25.6313 80.718 25.576L80.7119 25.6189C80.6863 25.8086 80.6895 25.8625 80.7068 26.052L80.5708 26.2465L80.4166 26.2556C80.2058 26.0478 80.1717 25.8703 80.0795 25.5889Z" fill="#560619"/>
<path d="M70.3216 23.652C69.9157 22.9617 69.318 22.6801 69.2026 22.2258C69.6498 22.3416 70.4119 23.1941 70.7242 23.5352C70.4878 23.6806 70.5942 23.6512 70.3216 23.652Z" fill="#6B051F"/>
<path d="M77.1401 21.4227C77.4166 21.5644 77.8613 22.3042 77.9035 22.6126C77.1214 22.4381 76.9243 22.218 77.1401 21.4227Z" fill="#6B051F"/>
<path d="M68.9389 20.3257L68.9463 20.5074C68.7518 20.5058 68.5861 20.4824 68.3941 20.4595L68.2905 20.5447C68.377 20.8661 68.4531 21.1902 68.519 21.5165L68.3881 21.5533C67.929 21.2848 67.9407 20.6145 68.3212 20.282C68.5114 20.1159 68.7265 20.2547 68.9389 20.3257Z" fill="#5C0418"/>
<path d="M75.7194 24.0778C75.8922 24.3512 75.8098 25.308 75.5929 25.614C75.265 25.1532 75.2558 24.4519 75.7194 24.0778Z" fill="#3D0711"/>
<path d="M72.1418 24.6761C72.4059 24.7099 72.3015 24.7361 72.5301 24.5656C72.6142 24.7286 72.651 24.8247 72.7129 24.9976L72.8933 25.0399L73.1196 24.866C73.0708 24.7338 73.0778 24.7349 72.9859 24.63L73.1263 24.5797C73.2417 24.8013 73.2258 24.698 73.1512 24.9841C72.771 25.2881 72.3026 25.1908 71.9053 24.947L72.1418 24.6761Z" fill="#3D0711"/>
<path d="M73.5365 27.9421C73.815 28.0706 74.4163 28.7524 74.5112 29.0298L74.4004 29.2093C74.1442 29.05 73.5352 28.3301 73.4454 28.0411L73.5365 27.9421Z" fill="#5C0418"/>
<path d="M70.7263 23.5349C71.0943 23.8437 71.014 24.0065 71.1595 24.1276L70.9971 24.6138C70.9378 24.3859 70.4997 23.8149 70.3237 23.6517C70.5963 23.651 70.4899 23.6804 70.7263 23.5349Z" fill="#560619"/>
<path d="M79.0859 25.1201C79.2169 25.287 79.2744 25.3058 79.4607 25.3964L79.5173 25.4234C79.6789 25.6645 79.6223 25.656 79.6171 26.0049C79.441 26.035 79.4301 26.0224 79.2586 25.9519C79.0691 25.6945 79.2264 25.4743 79.0859 25.1201Z" fill="#560619" fill-opacity="0.988235"/>
<path d="M77.7583 26.9954C77.8737 27.1026 77.8362 27.0375 77.8618 27.2036C77.6479 27.3584 77.3682 27.355 77.0933 27.3862C76.9915 27.2559 76.9991 27.2454 76.9613 27.09C77.16 26.9539 77.4812 26.9991 77.7583 26.9954Z" fill="#7E1721"/>
<path d="M80.5469 22.3799C80.8826 22.5946 81.0544 22.686 81.3142 22.9833L81.2981 23.2016C81.0085 23.0417 80.588 22.8699 80.4475 22.5935L80.5469 22.3799Z" fill="#8F2A3C"/>
<path d="M78.6196 20.2529C78.7449 20.3883 78.7484 20.4273 78.8156 20.6038C78.6564 20.8008 78.5811 20.7645 78.2894 20.8412L78.1359 20.8718L78.0918 20.7896C78.2123 20.5381 78.3986 20.4241 78.6196 20.2529Z" fill="#5C0418"/>
<path d="M94.4073 26.1281C94.6375 25.7487 94.7966 25.3842 95.2197 25.2738C95.378 25.4111 95.4435 25.525 95.4439 25.7495C95.4474 27.8017 95.6769 29.8185 95.9084 31.8579L97.0603 41.2288C97.1493 41.9406 97.2847 42.7075 97.3899 43.4231C97.5658 44.6196 97.0229 46.7213 97.6619 47.7262C92.706 49.0579 86.7712 49.2428 81.6422 49.8341C80.1641 50.0046 75.9945 50.5431 74.6922 50.45C74.7503 50.0962 75.6817 47.8763 75.8458 47.3506C76.3834 45.6275 77.5079 41.1858 78.4842 39.7473L78.4263 39.623C78.5057 39.3897 78.6452 39.3325 78.8575 39.1495L78.7539 39.035C77.4071 39.5396 74.7738 40.8634 73.617 41.1979L73.101 41.3698L72.9957 41.4332C69.6702 42.6959 62.2389 45.5036 58.7912 45.5008C58.0009 45.498 57.2199 45.3302 56.4981 45.0083C53.6434 43.731 52.7692 41.0949 54.0454 38.335C54.6294 37.0724 56.0968 35.3972 57.358 34.795C57.7372 34.5649 58.4026 34.1217 58.8102 34.1022C59.2579 34.2924 59.1696 34.8279 59.1593 35.2685C59.1197 36.977 59.1828 37.9234 60.4485 39.175C60.6391 39.2842 60.8319 39.3893 61.0269 39.4903C62.1494 40.0712 63.1483 40.0959 64.3666 39.8943C67.7118 39.3407 70.9906 38.2854 74.2192 37.2615C76.3287 36.6984 78.2296 35.8316 80.2877 35.1164C84.2784 33.7295 88.3068 32.447 92.2016 30.7997C93.0092 30.4581 93.8529 30.2212 94.6996 29.9991C94.6362 28.7165 94.5165 27.4705 94.3977 26.1918L94.4073 26.1281Z" fill="#181719"/>
<path d="M57.3589 34.7948C57.7381 34.5647 58.4035 34.1215 58.811 34.102C59.2588 34.2922 59.1704 34.8277 59.1602 35.2684C59.1206 36.9769 59.1837 37.9232 60.4494 39.1749C60.0264 38.9792 59.7518 38.8163 59.5533 38.3837L59.4446 38.4055L59.4393 38.5782C59.7737 39.1587 60.4386 39.8611 61.0784 40.0998L61.1143 40.1129L61.1096 40.1946C60.9086 40.1566 60.7648 40.102 60.5844 40.1805C60.5311 40.8066 60.9387 40.5677 61.1596 40.9351C59.2494 40.1614 58.0236 39.1398 57.5353 37.0676C57.6771 36.5227 57.8144 35.9542 58.0115 35.4257C58.1215 35.1304 58.5092 34.6309 58.5305 34.3754C58.1821 34.5493 57.7474 34.8226 57.3589 34.7948Z" fill="#403D3F"/>
<path d="M73.1061 41.3698C73.1067 40.8391 73.773 39.5756 73.9718 39.0039C74.1352 38.534 74.09 38.1646 74.3265 37.8009L74.4214 37.8013C74.5216 38.3055 73.7249 40.2898 73.6222 41.1979L73.1061 41.3698Z" fill="#191518"/>
<path d="M80.72 38.1033C79.8314 38.6579 79.2411 39.0076 78.4897 39.7473L78.4317 39.623C78.5112 39.3897 78.6507 39.3326 78.863 39.1495L78.7594 39.035C79.1167 38.7412 80.2583 38.2933 80.72 38.1033Z" fill="#8C888A"/>
<path d="M56.1699 21.102L56.5808 21.1625L56.5923 21.2533C56.7836 21.7546 57.044 22.4289 57.2883 22.8995C57.6927 23.6785 57.7243 25.0819 58.2676 25.6736C58.287 25.876 58.2861 26.2988 58.4429 26.4281C58.9962 27.2963 58.499 27.677 58.5282 28.6086C59.4144 28.0334 60.4833 29.7473 60.5126 30.3447C60.3235 30.5089 60.2826 30.5331 60.0567 30.6423C59.9316 30.6333 59.7971 30.6415 59.6974 30.5864C58.7924 30.7828 58.1898 30.8304 57.2702 30.9189L57.0813 30.9096L55.9401 31.092L55.4048 31.2521C53.1174 32.2858 52.3227 32.5335 50.6227 34.609C50.2468 35.0679 49.7055 35.6264 49.343 36.11C48.4769 36.8775 47.6658 37.5284 46.6732 38.1301C46.4942 38.2385 45.7461 38.7109 45.6471 38.8424C44.8778 38.9918 44.4663 39.6424 44.0916 39.7487C43.8284 39.3141 44.7569 36.4581 44.9329 35.6962L44.8925 35.2614C44.7158 35.2832 44.7499 35.3078 44.5906 35.4823C44.5927 35.2979 44.829 34.9638 44.9353 34.7286C44.8333 34.4453 44.7846 34.4722 44.5252 34.2462L43.8885 33.9187C45.8699 33.8049 45.7499 32.2582 46.6098 31.1505L46.632 31.1224C47.3157 30.3047 47.9632 29.1452 48.9508 28.6906C49.4764 28.4487 50.0261 28.3983 50.559 28.0848C50.9457 27.5825 51.4181 27.0546 51.9156 26.6615C52.417 26.0527 53.952 25.4466 54.6397 24.8773C55.6824 24.0141 55.7751 23.3976 55.9369 22.1521C56.0052 21.8008 56.1014 21.4887 56.1699 21.102Z" fill="#6B051F"/>
<path d="M56.1683 21.1022L56.5792 21.1627L56.5907 21.2535C56.7821 21.7548 57.0425 22.4291 57.2867 22.8997C57.6911 23.6787 57.7228 25.0821 58.2661 25.6738C58.2855 25.8762 58.2845 26.299 58.4414 26.4283C58.9947 27.2965 58.4974 27.6772 58.5266 28.6088C57.6468 28.9199 56.5406 28.6824 56.0863 27.8052L55.9077 27.4981C55.6906 27.5317 55.6294 27.5477 55.4132 27.5297L55.3798 27.4923C55.2633 27.3646 55.148 27.2534 54.9848 27.1858L54.5482 27.2201C54.3053 27.062 54.3742 27.0673 54.2807 26.6999L53.7394 26.8815C53.296 26.9847 53.1989 27.0634 52.8148 27.3198C52.5586 26.956 52.7186 26.7643 52.8838 26.3855L52.8314 26.3202C52.5823 26.4433 52.1771 26.6882 51.9141 26.6617C52.4154 26.0529 53.9504 25.4468 54.6382 24.8775C55.6809 24.0143 55.7735 23.3978 55.9354 22.1523C56.0036 21.801 56.0999 21.4889 56.1683 21.1022Z" fill="#191518"/>
<path d="M58.4429 26.4286C58.9962 27.2968 58.499 27.6775 58.5282 28.6091C57.6483 28.9202 56.5422 28.6827 56.0879 27.8055L56.2705 27.6949C56.3019 27.7018 56.3334 27.7082 56.3649 27.7141C57.133 27.8588 57.0586 26.9815 57.4591 26.7028C57.6499 26.5701 57.9021 26.7944 58.4429 26.4286Z" fill="#060303"/>
<path d="M55.6752 26.3648C55.7128 26.7494 55.7899 27.129 55.9054 27.4978C55.6883 27.5314 55.6271 27.5474 55.4109 27.5294L55.3775 27.492C55.261 27.3642 55.1457 27.2531 54.9825 27.1855L54.5459 27.2197C54.303 27.0617 54.372 27.067 54.2785 26.6996C54.7759 26.5509 55.1686 26.4683 55.6752 26.3648Z" fill="#560619"/>
<path d="M56.1658 21.1022L56.5767 21.1627L56.5882 21.2535C56.2442 21.576 56.4223 21.7228 55.9328 22.1523C56.0011 21.801 56.0973 21.4889 56.1658 21.1022Z" fill="#121313"/>
<path d="M51.9145 26.6612C52.1775 26.6878 52.5827 26.4429 52.8318 26.3198L52.8842 26.3851C52.719 26.7639 52.559 26.9556 52.8152 27.3194C52.5951 27.7975 52.582 28.4494 52.943 28.8633C52.8339 28.9175 52.4955 29.0949 52.4002 29.124C51.4808 29.0728 51.3585 29.5732 50.9333 30.3319L50.9321 30.5558C50.1236 30.3211 50.7889 29.6309 50.3695 28.9685C49.4533 29.4525 48.128 30.7017 47.7568 31.6509C47.7584 31.7481 47.7628 32.3162 47.7758 32.3727C47.7929 32.9877 47.7774 33.5991 47.7975 34.2077C47.6647 35.2093 47.0506 35.9287 46.0168 35.3972L45.9699 35.3602C45.6915 35.1373 45.612 34.93 45.3297 34.8513C45.0608 35.0442 45.0176 35.3603 44.9317 35.6959L44.8914 35.2612C44.7146 35.283 44.7488 35.3076 44.5895 35.4821C44.5915 35.2977 44.8278 34.9635 44.9341 34.7284C44.8322 34.4451 44.7835 34.472 44.524 34.246L43.8874 33.9185C45.8687 33.8047 45.7488 32.258 46.6087 31.1503L46.6309 31.1222C47.3145 30.3045 47.9621 29.145 48.9496 28.6904C49.4753 28.4484 50.0249 28.3981 50.5578 28.0846C50.9446 27.5823 51.4169 27.0544 51.9145 26.6612Z" fill="#1D0F11"/>
<path d="M47.7939 34.2086C47.6611 35.2102 47.047 35.9296 46.0132 35.3981C45.8005 35.0606 45.6962 34.9384 45.6646 34.5474C46.5693 34.5507 46.2416 34.3081 46.8387 33.9084C47.2019 33.8595 47.4272 34.0431 47.7939 34.2086Z" fill="#060303"/>
<path d="M44.5276 34.2467C44.777 33.8268 45.0699 33.4139 45.5952 33.7089C45.7517 33.9608 45.6929 34.243 45.6718 34.5473C45.7034 34.9382 45.8077 35.0605 46.0204 35.398L45.9735 35.361C45.695 35.138 45.6156 34.9307 45.3333 34.8521C45.0643 35.045 45.0212 35.361 44.9353 35.6967L44.8949 35.262C44.7182 35.2837 44.7523 35.3083 44.5931 35.4829C44.5951 35.2985 44.8314 34.9643 44.9377 34.7291C44.8358 34.4459 44.7871 34.4728 44.5276 34.2467Z" fill="#5C0418"/>
<path d="M52.3976 29.1241C52.5201 29.352 52.7036 29.6506 52.7446 29.8929C52.5201 30.1235 52.2997 30.358 52.0834 30.5962C51.755 30.5978 51.2359 30.619 50.9295 30.5558L50.9307 30.3319C51.3559 29.5732 51.4782 29.0729 52.3976 29.1241Z" fill="#060303"/>
<path d="M52.8132 27.3203C53.1973 27.0639 53.2945 26.9852 53.7379 26.882C53.7906 27.2808 53.9935 27.4173 54.0629 27.9042C53.7234 27.7681 53.7861 27.73 53.4991 27.8124C53.2235 28.0163 52.9671 28.5597 52.9968 28.8977L52.9411 28.8642C52.5801 28.4503 52.5932 27.7984 52.8132 27.3203Z" fill="#560619"/>
<path d="M56.9645 30.7244C57.4945 30.4698 59.1767 30.2124 59.6992 30.5868C58.7942 30.7832 58.1916 30.8308 57.272 30.9193L57.0831 30.91L56.9645 30.7244Z" fill="#D2767D"/>
<path d="M55.7661 30.7617C56.1526 30.7934 56.1519 30.6015 56.2903 30.3025C56.6055 30.2322 56.3329 30.5431 56.9597 30.7244L57.0783 30.91L55.9371 31.0924L55.4018 31.2525C55.3371 30.9929 55.3761 30.8776 55.5563 30.7251L55.7661 30.7617Z" fill="#8F2A3C"/>
<path d="M47.7599 31.6518C48.0508 31.7078 48.2723 31.7289 48.5205 31.8915L48.5623 32.0263C48.2043 32.3975 48.0749 32.1892 47.7789 32.3736C47.7658 32.317 47.7615 31.749 47.7599 31.6518Z" fill="#5C0418"/>
<path d="M52.9999 28.8978C53.0009 29.2266 53.0347 29.5078 52.8714 29.7903L52.7484 29.8937C52.7074 29.6514 52.5239 29.3528 52.4014 29.1249C52.4967 29.0958 52.8351 28.9185 52.9442 28.8643L52.9999 28.8978Z" fill="#1D0F11"/>
<path d="M57.2682 30.9192L57.5239 31.1872C57.3485 31.3841 57.3667 31.1503 56.9546 31.5963C52.3128 32.4877 52.2735 33.3939 49.3452 36.6038C49.3559 36.4106 49.3543 36.3035 49.3409 36.1104C49.7034 35.6267 50.2447 35.0683 50.6206 34.6093C52.3206 32.5339 53.1153 32.2861 55.4027 31.2524L55.938 31.0923L57.0793 30.91L57.2682 30.9192Z" fill="#1D0F11"/>
<path d="M49.3439 36.1104C49.3572 36.3035 49.3589 36.4106 49.3482 36.6039C47.3849 38.8823 46.9521 38.7697 44.4839 40.1451C44.7753 39.3237 45.2176 39.489 45.648 38.8428C45.747 38.7113 46.4951 38.2389 46.674 38.1304C47.6666 37.5288 48.4777 36.8779 49.3439 36.1104Z" fill="#332025"/>
<path d="M60.0535 30.6422C60.3088 30.7062 60.361 30.7172 60.5961 30.8547C60.7894 30.9872 60.9147 31.0725 61.0932 31.2312L61.1076 31.4464C59.6222 31.0508 58.4664 31.3611 56.9535 31.5959C57.3656 31.1498 57.3474 31.3837 57.5228 31.1867L57.2671 30.9187C58.1866 30.8302 58.7892 30.7826 59.6942 30.5863C59.7939 30.6414 59.9284 30.6331 60.0535 30.6422Z" fill="#403D3F"/>
<path d="M78.7539 39.035C77.9727 39.9035 74.6378 40.7976 73.4713 41.4466C73.2548 41.567 72.8942 43.2292 72.712 43.3331C72.5114 42.8689 73.0128 41.8641 72.9957 41.4333L73.1009 41.3699L73.617 41.198C74.7738 40.8635 77.407 39.5397 78.7539 39.035Z" fill="#A6AAA3"/>
<path d="M63.5974 45.3267L63.7317 45.5024L63.6472 45.6189C62.8658 46.0051 61.3271 46.2306 60.4522 46.2662L60.4354 46.116C60.7348 45.8479 61.6844 45.8128 62.1306 45.712C62.6418 45.5967 63.0948 45.4814 63.5974 45.3267Z" fill="#8C888A"/>
<path d="M72.0426 42.4602C72.1482 42.6466 72.1321 42.551 72.105 42.754C71.4111 43.038 70.9295 43.1415 70.2474 43.4951L70.17 43.4114C70.2309 43.0282 71.4494 42.9308 72.0426 42.4602Z" fill="#A19EA4"/>
<path d="M71.8047 45.1289C71.8869 45.197 71.9286 45.2714 71.9883 45.3594C71.8526 45.8762 71.6681 46.2594 71.2225 46.5701L71.1509 46.3835C71.5717 45.9622 71.6902 45.6989 71.8047 45.1289Z" fill="#DFD9CD"/>
<path d="M59.1503 46.304L59.1017 46.3677C58.7628 46.5198 57.8968 46.3561 57.4507 46.3097L57.5292 46.1665C57.7165 46.0608 58.8433 46.2633 59.1503 46.304Z" fill="#8C888A"/>
<path d="M52.8125 38.5635L52.9405 38.7856C52.8792 39.1744 52.8191 39.8402 52.6705 40.1571C52.3869 39.8251 52.7069 38.9641 52.8125 38.5635Z" fill="#A19EA4"/>
<path d="M77.6239 40.2153C77.7078 40.325 77.6973 40.3467 77.7117 40.4831C77.5468 40.6854 77.2634 40.7355 76.9992 40.8202L76.8906 40.7753C77.0033 40.5429 77.3713 40.3735 77.6239 40.2153Z" fill="#A19EA4"/>
<path d="M76.433 40.7717L76.4733 40.9497C76.304 41.14 75.9706 41.2633 75.7278 41.3745L75.6662 41.2324C75.8256 40.9936 76.1612 40.8886 76.433 40.7717Z" fill="#A19EA4"/>
<path d="M56.2372 33.7221C56.3402 33.8343 56.515 34.0055 56.5649 34.1416L56.1526 34.2882L56.0212 34.4434L55.9556 34.3815C56.0195 34.0484 56.0223 33.9826 56.2372 33.7221Z" fill="#DFD9CD"/>
<path d="M70.9766 47.1289C71.0934 47.467 70.7498 48.1092 70.568 48.3915C70.5672 48.0103 70.7861 47.4567 70.9766 47.1289Z" fill="#A6AAA3"/>
<path d="M55.5764 34.9796C55.6085 35.0497 55.5814 35.052 55.5452 35.1672L55.3344 35.251C55.3215 35.2065 55.3584 35.1258 55.3763 35.066L55.5764 34.9796Z" fill="#DFD9CD"/>
<path d="M75.267 59.6874L75.481 59.8585C75.7467 59.8704 75.6622 59.873 75.9172 59.6802C75.7926 60.0586 75.7115 60.6379 75.6139 60.8687C75.0004 60.8336 74.6891 61.0189 74.079 60.8803C73.5019 60.7271 73.1038 60.6371 72.8783 60.0397C73.4281 60.4373 74.8436 60.2054 75.2262 59.7714L75.267 59.6874Z" fill="#560619" fill-opacity="0.988235"/>
<path d="M75.2261 59.7716C74.8436 60.2056 73.428 60.4376 72.8783 60.0399L72.8186 59.8935C73.6154 59.5688 74.4165 59.4401 75.2261 59.7716Z" fill="#560619" fill-opacity="0.0117647"/>
<path d="M67.7648 7.3428L67.8505 7.46403C67.2618 7.44108 66.2985 7.03033 65.7464 6.80996C65.5712 6.69186 65.5437 6.67645 65.4761 6.47855C65.6674 6.56863 65.9004 6.60735 66.1099 6.65397C66.4113 6.77862 66.7135 6.90144 67.0165 7.02224C67.2349 7.06123 67.2684 7.24502 67.7648 7.3428Z" fill="#332025" fill-opacity="0.984314"/>
</g>
</g>
<defs>
<clipPath id="clip0_1625_54">
<rect width="114" height="74" fill="white"/>
</clipPath>
<clipPath id="clip1_1625_54">
<rect width="89.2391" height="85.2433" fill="white" transform="translate(44.3203 -18) rotate(31.3254)"/>
</clipPath>
</defs>
</svg>
